<?xml version="1.0" standalone="no"?>
<!DOCTYPE svg PUBLIC "-//W3C//DTD SVG 1.1//EN" "http://www.w3.org/Graphics/SVG/1.1/DTD/svg11.dtd" >
<svg>
<metadata>
Created by FontForge 20090914 at Fri Jan 20 16:40:46 2017
 By www-data
Copyright (c) 2008 by . All rights reserved.
</metadata>
<defs>
<font id="NimbusSansLight" horiz-adv-x="560" >
  <font-face 
    font-family="NimbusSans Light"
    font-weight="300"
    font-stretch="normal"
    units-per-em="1000"
    panose-1="2 0 4 0 0 0 0 0 0 0"
    ascent="800"
    descent="-200"
    x-height="479"
    cap-height="667"
    bbox="-39 -218.998 1004 915.999"
    underline-thickness="33"
    underline-position="-78"
    unicode-range="U+0020-U+F000"
  />
<missing-glyph horiz-adv-x="250" 
 />
    <glyph glyph-name=".notdef" horiz-adv-x="250" 
 />
    <glyph glyph-name="space" unicode=" " horiz-adv-x="250" 
 />
    <glyph glyph-name="exclam" unicode="!" horiz-adv-x="241" 
d="M151 667l-7 -498h-27l-7 498h41zM151 91v-91h-40v91h40z" />
    <glyph glyph-name="quotedbl" unicode="&#x22;" horiz-adv-x="279" 
d="M98 400h-33l-5 267h43zM214 400h-33l-5 267h43z" />
    <glyph glyph-name="numbersign" unicode="#" 
d="M359 237l-29 -206h-30l29 206h-125l-29 -206h-31l29 206h-120l4 31h120l17 118h-120l4 31h120l27 191h31l-27 -191h125l27 191h31l-27 -191h122l-5 -31h-122l-16 -118h122l-5 -31h-122zM350 386h-125l-17 -118h125z" />
    <glyph glyph-name="dollar" unicode="$" 
d="M289 727l-0.000976562 -70.998c123.333 -7.33301 188 -71 194 -191h-38c-6 96.667 -58 149 -156 157v-273c56.667 -16 94.334 -27.667 113.001 -35c65.333 -26.667 98 -78 98 -154c0 -53.333 -18.667 -95.333 -56 -126s-89 -46.667 -155 -48v-86h-23v87
c-136 8 -205 81.667 -207 221h37c2 -116.667 58.667 -179.334 170 -188.001v297c-59.333 16 -100 31 -122 45c-43.333 27.333 -65 70.666 -65 129.999c0 50 16.333 89.333 49 118s78.667 44 138 46v71h23zM288.999 310.002v-290.998c54.667 1.33301 97 14.166 127 38.499
s45 58.5 45 102.5c0 59.333 -28.667 100.666 -86 123.999c-15.333 6 -44 14.667 -86 26zM265.999 355.004v268.001c-98.667 -3.33301 -148 -47 -148 -131c0 -36 9.5 -63.5 28.5 -82.5s53.833 -35.5 104.5 -49.5c2.66699 -0.666992 7.66699 -2.33398 15 -5.00098z" />
    <glyph glyph-name="percent" unicode="%" horiz-adv-x="765" 
d="M601 665l-416 -688h-33l416 688h33zM568 319c44.667 0 81.333 -15.5 110 -46.5s43 -70.833 43 -119.5c0 -47.333 -14.5 -86.833 -43.5 -118.5s-65.167 -47.5 -108.5 -47.5c-46.667 0 -84.167 15.333 -112.5 46s-42.5 70.667 -42.5 120c0 47.333 14.667 86.833 44 118.5
s66 47.5 110 47.5zM567.999 290c-35.333 0 -64.333 -12.834 -87 -38.501s-34 -58.5 -34 -98.5s11.5 -73 34.5 -99s52.167 -39 87.5 -39c32.667 0 60.5 13.333 83.5 40s34.5 59.334 34.5 98.001c0 39.333 -11.333 72 -34 98s-51 39 -85 39zM196.999 655.999
c44.667 0 81.334 -15.3311 110.001 -45.998s43 -70.334 43 -119.001s-14.333 -88.667 -43 -120s-65.334 -47 -110.001 -47c-45.333 0 -82.333 15.333 -111 46s-43 70 -43 118c0 49.333 14.333 89.666 43 120.999s65.667 47 111 47zM196.999 627.001
c-35.333 0 -64.333 -12.832 -87 -38.499s-34 -58.834 -34 -99.501c0 -39.333 11.333 -72 34 -98s51.334 -39 86.001 -39s63.5 13.167 86.5 39.5s34.5 59.5 34.5 99.5c0 39.333 -11.333 71.833 -34 97.5s-51.334 38.5 -86.001 38.5z" />
    <glyph glyph-name="ampersand" unicode="&#x26;" horiz-adv-x="581" 
d="M454 275l36.001 -0.000976562c-1.33301 -49.333 -13 -96.666 -35 -141.999l110 -133h-48l-81 100c-48 -75.333 -111.667 -113 -191 -113c-59.333 0 -107.5 16 -144.5 48s-55.5 73.667 -55.5 125c0 38.667 13.167 73.667 39.5 105s71.166 65.666 134.499 102.999
c-38 47.333 -62.667 81.333 -74 102s-17 42 -17 64c0 37.333 13.333 68 40 92s60.667 36 102 36c40.667 0 74.167 -11.833 100.5 -35.5s39.5 -53.167 39.5 -88.5c0 -43.333 -18 -81.666 -54 -114.999c-17.333 -16 -45.333 -37.333 -84 -64l158 -197c14 37.333 22 75 24 113z
M251.001 384.999c82 47.333 123 97.001 123 149.001c0 27.333 -10 50.166 -30 68.499s-44.667 27.5 -74 27.5c-31.333 0 -57 -9 -77 -27s-30 -41 -30 -69c0 -24.667 15.333 -56.667 46 -96l17.5 -22l18.5 -24c2 -2.66699 4 -5 6 -7zM413.001 127l-174 215
c-104 -59.333 -156 -120 -156 -182c0 -40.667 15.5 -74.5 46.5 -101.5s69.167 -40.5 114.5 -40.5c74 0 130.333 36.333 169 109z" />
    <glyph glyph-name="quotesingle" unicode="'" horiz-adv-x="163" 
d="M98 400h-33l-5 267h43z" />
    <glyph glyph-name="parenleft" unicode="(" horiz-adv-x="259" 
d="M165 667l33 -0.000976562c-76 -126 -114 -265.333 -114 -418c0 -147.333 38 -288 114 -422h-33c-80 142 -120 283.333 -120 424c0 68.667 11 140.834 33 216.501s51 142.167 87 199.5z" />
    <glyph glyph-name="parenright" unicode=")" horiz-adv-x="259" 
d="M94 -173l-33 0.000976562c76 126 114 265.333 114 418c0 145.333 -38 286 -114 422h33c80 -142 120 -283.333 120 -424c0 -68.667 -11 -140.834 -33 -216.501s-51 -142.167 -87 -199.5z" />
    <glyph glyph-name="asterisk" unicode="*" 
d="M418 559l-117 -39l73 -98l-22 -16l-72 99l-75 -97l-22 16l75 96l-115 39l8 25l115 -39v122h27v-122l115 39z" />
    <glyph glyph-name="plus" unicode="+" 
d="M54 337h210v211h32v-211h210v-32h-210v-211h-32v211h-210v32z" />
    <glyph glyph-name="comma" unicode="," horiz-adv-x="200" 
d="M124 95v-78.999c0 -39.333 -4.5 -69 -13.5 -89s-24.833 -35.667 -47.5 -47v32c21.333 13.333 32 42.666 32 87.999h-18v95h47z" />
    <glyph glyph-name="hyphen" unicode="-" horiz-adv-x="213" 
d="M213 264v-34h-213v34h213z" />
    <glyph glyph-name="period" unicode="." horiz-adv-x="200" 
d="M124 95v-95h-47v95h47z" />
    <glyph glyph-name="slash" unicode="/" horiz-adv-x="407" 
d="M369 667l-374 -840h-34l376 840h32z" />
    <glyph glyph-name="zero" unicode="0" 
d="M280 656c74.667 0 132.333 -29.166 173 -87.499s61 -141.5 61 -249.5c0 -106 -20.5 -188 -61.5 -246s-98.833 -87 -173.5 -87c-75.333 0 -133 27.833 -173 83.5s-60 136.167 -60 241.5c0 109.333 20.5 194.166 61.5 254.499s98.5 90.5 172.5 90.5zM279.999 623.001
c-61.333 0 -109.166 -27.501 -143.499 -82.501s-51.5 -132.167 -51.5 -231.5c0 -92.667 16.833 -164.167 50.5 -214.5s81.5 -75.5 143.5 -75.5s110.167 26.333 144.5 79s51.5 126.334 51.5 221.001c0 97.333 -16.833 172.333 -50.5 225s-81.834 79 -144.501 79z" />
    <glyph glyph-name="one" unicode="1" horiz-adv-x="463" 
d="M335 645v-645h-40v575c-46 -46.667 -103 -74 -171 -82v32c42.667 8 77.167 21 103.5 39s50.833 45 73.5 81h34z" />
    <glyph glyph-name="two" unicode="2" 
d="M497 34l-0.00195312 -33.998h-431c6.66699 57.333 26.334 103.666 59.001 138.999c14.667 16 37 36 67 60c2.66699 1.33301 32 21.333 88 60c64 44 107.833 81.667 131.5 113s35.5 67.666 35.5 108.999c0 42.667 -14.667 77 -44 103s-68.666 39 -117.999 39
c-109.333 0 -165 -65.333 -167 -196h-38c3.33301 152.667 72 229 206 229c61.333 0 110 -16 146 -48s54 -75 54 -129c0 -58 -21 -108.667 -63 -152c-25.333 -26.667 -79.333 -68 -162 -124c-56 -38 -93.833 -68 -113.5 -90s-32.167 -48.333 -37.5 -79h387z" />
    <glyph glyph-name="three" unicode="3" 
d="M106 442l-36.001 -0.00292969c2.66699 69.333 22.334 122.333 59.001 159s88.334 55 155.001 55c59.333 0 107.333 -15.167 144 -45.5s55 -69.833 55 -118.5c0 -39.333 -11.333 -72 -34 -98s-54.334 -42.333 -95.001 -49c98 -16.667 147 -71.667 147 -165
c0 -56.667 -20.667 -103.167 -62 -139.5s-94.333 -54.5 -159 -54.5c-70 0 -125.333 18.833 -166 56.5s-61 88.834 -61 153.501c0 6.66699 0.333008 12.334 1 17.001h36v-14c0 -55.333 16.833 -99.166 50.5 -131.499s79.5 -48.5 137.5 -48.5c54 0 98.167 14.833 132.5 44.5
s51.5 68.167 51.5 115.5c0 99.333 -65 149 -195 149c-8 0 -15.333 -0.333008 -22 -1v33c8 -0.666992 16.667 -1 26 -1c115.333 0 173 43.333 173 130c0 40.667 -14.5 73.167 -43.5 97.5s-68.167 36.5 -117.5 36.5c-114.667 0 -173.667 -60.333 -177 -181z" />
    <glyph glyph-name="four" unicode="4" 
d="M506 199v-34h-106v-165h-37v165h-312v39l311 443h38v-448h106zM363 199v320c0 32 0.333008 59.333 1 82c-18 -28.667 -33 -51.667 -45 -69l-194 -276l-21 -29l-7 -9l-7 -10l-7 -9h280z" />
    <glyph glyph-name="five" unicode="5" 
d="M472 641v-33.999h-299l-39 -183c-2.66699 -14 -7.66699 -37.667 -15 -71c40.667 52.667 95 79 163 79c62 0 114 -20.833 156 -62.5s63 -93.5 63 -155.5c0 -66 -20.833 -120.5 -62.5 -163.5s-94.5 -64.5 -158.5 -64.5c-66.667 0 -119.834 18.667 -159.501 56
s-60.167 88.666 -61.5 153.999h37c7.33301 -118 68.333 -177 183 -177c52.667 0 96.334 18 131.001 54s52 81.333 52 136s-17.167 100 -51.5 136s-77.5 54 -129.5 54c-72.667 0 -128 -29.333 -166 -88l-36 1l66 329h327z" />
    <glyph glyph-name="six" unicode="6" 
d="M494 485h-38.9961c-6.66699 42.667 -24.5 76.334 -53.5 101.001s-64.167 37 -105.5 37c-130.667 0 -197.334 -112.667 -200.001 -338c34 93.333 99.333 140 196 140c61.333 0 112.5 -20.667 153.5 -62s61.5 -93.333 61.5 -156c0 -63.333 -20.833 -116 -62.5 -158
s-93.834 -63 -156.501 -63c-80.667 0 -141.334 31.667 -182.001 95c-30.667 47.333 -46 119.666 -46 216.999c0 116 20.333 204.667 61 266s99.334 92 176.001 92c53.333 0 97.166 -15 131.499 -45s56.166 -72 65.499 -126zM287.004 392
c-51.333 0 -94.334 -17.666 -129.001 -52.999s-52 -79 -52 -131c0 -54 17.333 -99 52 -135s78.334 -54 131.001 -54c50.667 0 93.167 17.833 127.5 53.5s51.5 80.167 51.5 133.5s-17.167 97.666 -51.5 132.999s-77.5 53 -129.5 53z" />
    <glyph glyph-name="seven" unicode="7" 
d="M500 641v-34.002c-1.33301 -2 -16.666 -19.333 -45.999 -52c-72 -79.333 -129.667 -174.666 -173 -285.999c-31.333 -81.333 -50 -171 -56 -269h-41c4 112 33.333 225 88 339c31.333 64.667 70.666 126.667 117.999 186c16.667 20.667 42 48.334 76 83.001h-15
c-6 -0.666992 -9.66699 -1 -11 -1h-354v34h414z" />
    <glyph glyph-name="eight" unicode="8" 
d="M201 349c-80.667 18.667 -121 66.667 -121 144c0 50.667 18 90.5 54 119.5s85.667 43.5 149 43.5c60.667 0 108.667 -14.5 144 -43.5s53 -68.167 53 -117.5c0 -77.333 -40 -126 -120 -146c98 -18 147 -74.333 147 -169c0 -60 -20.333 -107.333 -61 -142s-96 -52 -166 -52
c-70.667 0 -126.167 17.5 -166.5 52.5s-60.5 83.167 -60.5 144.5c0 44 13 80.5 39 109.5s62.333 47.833 109 56.5zM283 623c-109.333 0 -163.999 -43.667 -163.999 -131c0 -40 14.5 -71.333 43.5 -94s69.167 -34 120.5 -34c49.333 0 88.166 11.5 116.499 34.5
s42.5 54.167 42.5 93.5c0 41.333 -14 73.5 -42 96.5s-67 34.5 -117 34.5zM282.001 333c-59.333 0 -105.834 -13.3311 -139.501 -39.998s-50.5 -63.334 -50.5 -110.001c0 -51.333 16.5 -91.5 49.5 -120.5s79.167 -43.5 138.5 -43.5c58.667 0 104.667 14.333 138 43
s50 68 50 118c0 47.333 -16.667 84.666 -50 111.999s-78.666 41 -135.999 41z" />
    <glyph glyph-name="nine" unicode="9" 
d="M71 153h36.999c7.33301 -41.333 25.666 -74 54.999 -98s65.333 -36 108 -36c62.667 0 110.834 26.333 144.501 79s50.5 128.334 50.5 227.001c0 12 -0.333008 24 -1 36c-2 -6.66699 -4 -11.334 -6 -14.001c-36 -86.667 -99.333 -130 -190 -130
c-63.333 0 -115.166 20.667 -155.499 62s-60.5 94.333 -60.5 159c0 61.333 21.167 113 63.5 155s94.5 63 156.5 63c78 0 137.667 -30.667 179 -92c33.333 -49.333 50 -124 50 -224c0 -236 -77 -354 -231 -354c-54 0 -99.167 15.167 -135.5 45.5s-57.833 70.833 -64.5 121.5z
M271.999 623c-50.667 0 -93.333 -17.833 -128 -53.5s-52 -79.5 -52 -131.5c0 -54 16.833 -98.833 50.5 -134.5s76.167 -53.5 127.5 -53.5c53.333 0 97.333 17.667 132 53s52 80.333 52 135c0 51.333 -17.667 95 -53 131s-78.333 54 -129 54z" />
    <glyph glyph-name="colon" unicode=":" horiz-adv-x="217" 
d="M140 95v-95h-47v95h47zM140 463v-95h-47v95h47z" />
    <glyph glyph-name="semicolon" unicode=";" horiz-adv-x="217" 
d="M140 95v-78.999c0 -39.333 -4.5 -69 -13.5 -89s-24.833 -35.667 -47.5 -47v32c21.333 13.333 32 42.666 32 87.999h-18v95h47zM140 463.001v-95h-47v95h47z" />
    <glyph glyph-name="less" unicode="&#x3c;" horiz-adv-x="500" 
d="M466 547v-43l-387 -170l387 -170v-43l-433 194v38z" />
    <glyph glyph-name="equal" unicode="=" 
d="M54 407h452v-33h-452v33zM54 273h452v-32h-452v32z" />
    <glyph glyph-name="greater" unicode="&#x3e;" horiz-adv-x="500" 
d="M34 121v43l387 170l-387 170v43l433 -194v-38z" />
    <glyph glyph-name="question" unicode="?" horiz-adv-x="493" 
d="M91 460l-36.002 0.00195312c0.666992 70 18.834 124.333 54.501 163s85.167 58 148.5 58c56 0 101.833 -15.667 137.5 -47s53.5 -71.333 53.5 -120c0 -42.667 -13.667 -81 -41 -115c-8.66699 -10.667 -33 -35 -73 -73c-28.667 -26.667 -46.167 -48.334 -52.5 -65.001
s-9.83301 -47.667 -10.5 -93h-38c0 47.333 3.66699 80.666 11 99.999c8.66699 22.667 30.334 50 65.001 82c40 37.333 66.667 66.833 80 88.5s20 46.167 20 73.5c0 39.333 -14.333 71.833 -43 97.5s-64.667 38.5 -108 38.5c-108 0 -164 -62.667 -168 -188zM273.998 93.002
v-93h-41v93h41z" />
    <glyph glyph-name="at" unicode="@" horiz-adv-x="741" 
d="M643 166l27.9961 -0.00292969c-22.667 -51.333 -60.5 -93 -113.5 -125s-111.167 -48 -174.5 -48c-91.333 0 -168.666 31.833 -231.999 95.5s-95 141.5 -95 233.5c0 93.333 32.333 172.5 97 237.5s143.334 97.5 236.001 97.5c84 0 154.5 -26.167 211.5 -78.5
s85.5 -117.166 85.5 -194.499c0 -76 -28.333 -138 -85 -186c-41.333 -34.667 -81.666 -52 -120.999 -52c-41.333 0 -64 19.333 -68 58c-33.333 -37.333 -69 -56 -107 -56c-30.667 0 -55 10.667 -73 32s-27 50.333 -27 87c0 59.333 19.333 113.333 58 162
s81.334 73 128.001 73c43.333 0 73.333 -22.333 90 -67l19 52h34l-82 -235c-6 -17.333 -9 -31.333 -9 -42c0 -26 14.667 -39 44 -39c43.333 0 82.833 21.667 118.5 65s53.5 91.333 53.5 144c0 72.667 -25.5 132.834 -76.5 180.501s-115.833 71.5 -194.5 71.5
c-85.333 0 -157.333 -30.167 -216 -90.5s-88 -133.833 -88 -220.5c0 -85.333 28.833 -157.166 86.5 -215.499s128.834 -87.5 213.501 -87.5c53.333 0 103.666 13.5 150.999 40.5s83.333 62.833 108 107.5zM427.996 284.997l23.001 63.001c8.66699 24 13 42.333 13 55
c0 20.667 -6.5 38.5 -19.5 53.5s-28.833 22.5 -47.5 22.5c-38.667 0 -74.334 -23.333 -107.001 -70s-49 -97.334 -49 -152.001c0 -57.333 22 -86 66 -86c52.667 0 93 38 121 114z" />
    <glyph glyph-name="A" unicode="A" horiz-adv-x="601" 
d="M324 667l265 -667h-44l-84 214h-322l-84 -214h-44l270 667h43zM448 249l-122 309l-16 47c-1.33301 3.33301 -4 11 -8 23l-25 -67l-125 -312h296z" />
    <glyph glyph-name="B" unicode="B" horiz-adv-x="630" 
d="M84 667l264.999 -0.000976562c68 0 120.5 -14.5 157.5 -43.5s55.5 -69.833 55.5 -122.5c0 -38.667 -11.667 -71.667 -35 -99s-54.333 -44.666 -93 -51.999c32 -6 56.667 -14 74 -24c52 -30.667 78 -77.334 78 -140.001c0 -79.333 -37 -134.666 -111 -165.999
c-31.333 -13.333 -75.666 -20 -132.999 -20h-258v667zM124.999 631.999v-269h190c60.667 0 104 5.66699 130 17c50.667 22 76 61 76 117c0 90 -61 135 -183 135h-213zM124.999 327.999v-293h214c137.333 0 206 50.333 206 151c0 94.667 -67 142 -201 142h-219z" />
    <glyph glyph-name="C" unicode="C" horiz-adv-x="681" 
d="M603 259l39.9961 -0.000976562c-7.33301 -82.667 -37.666 -149 -90.999 -199s-120.333 -75 -201 -75c-89.333 0 -162.166 31.833 -218.499 95.5s-84.5 146.5 -84.5 248.5c0 105.333 28.333 190.5 85 255.5s130.667 97.5 222 97.5c73.333 0 136 -20.167 188 -60.5
s81.667 -91.833 89 -154.5h-40c-11.333 55.333 -38.5 99.166 -81.5 131.499s-94.833 48.5 -155.5 48.5c-79.333 0 -143.5 -29.167 -192.5 -87.5s-73.5 -135.166 -73.5 -230.499c0 -91.333 24.5 -165.666 73.5 -222.999s112.5 -86 190.5 -86
c68.667 0 125.334 21.333 170.001 64s71.334 101 80.001 175z" />
    <glyph glyph-name="D" unicode="D" horiz-adv-x="660" 
d="M84 667l225.001 0.000976562c90 0 159.667 -23 209 -69c63.333 -58.667 95 -143.334 95 -254.001c0 -117.333 -31.333 -207 -94 -269c-50.667 -50 -120.334 -75 -209.001 -75h-226v667zM125.001 632.001v-597.001h171c48 0 86.833 4.83301 116.5 14.5
s56.167 26.5 79.5 50.5c53.333 54 80 134.333 80 241c0 94.667 -22.5 166.834 -67.5 216.501s-110.833 74.5 -197.5 74.5h-182z" />
    <glyph glyph-name="E" unicode="E" horiz-adv-x="577" 
d="M533 667v-35h-408v-267h384v-35h-384v-295h413v-35h-454v667h449z" />
    <glyph glyph-name="F" unicode="F" horiz-adv-x="523" 
d="M504 667v-35h-379v-268h340v-35h-340v-329h-41v667h420z" />
    <glyph glyph-name="G" unicode="G" horiz-adv-x="720" 
d="M653 326l0.00195312 -325.997h-30l-4 162c-18.667 -56.667 -50.334 -100.334 -95.001 -131.001s-98.667 -46 -162 -46c-94 0 -169.833 31.667 -227.5 95s-86.5 146.666 -86.5 249.999c0 104 29.167 188.667 87.5 254s134.166 98 227.499 98
c72.667 0 134.5 -20.167 185.5 -60.5s82.167 -93.833 93.5 -160.5h-39c-11.333 55.333 -39 100.166 -83 134.499s-96 51.5 -156 51.5c-82.667 0 -149.167 -29 -199.5 -87s-75.5 -134.667 -75.5 -230c0 -94 25 -169.167 75 -225.5s116.667 -84.5 200 -84.5
c76 0 137.167 24 183.5 72s69.5 111 69.5 189v10h-246v35h282z" />
    <glyph glyph-name="H" unicode="H" horiz-adv-x="676" 
d="M592 667v-667h-41v332h-427v-332h-41v667h41v-300h427v300h41z" />
    <glyph glyph-name="I" unicode="I" horiz-adv-x="208" 
d="M125 667v-667h-41v667h41z" />
    <glyph glyph-name="J" unicode="J" horiz-adv-x="459" 
d="M385 667v-485.998c0 -130.667 -61.667 -196 -185 -196c-64 0 -111 16.167 -141 48.5s-45 83.166 -45 152.499c0 9.33301 0.333008 17.666 1 24.999h38v-22c0 -60.667 11.5 -104 34.5 -130s60.833 -39 113.5 -39c50 0 86.333 13 109 39s34 67.333 34 124v484h41z" />
    <glyph glyph-name="K" unicode="K" horiz-adv-x="615" 
d="M600 667l-308 -277l326 -390h-51l-303 363l-139 -126v-237h-41v667h41v-383l42 40l379 343h54z" />
    <glyph glyph-name="L" unicode="L" horiz-adv-x="520" 
d="M505 35v-35h-421v667h41v-632h380z" />
    <glyph glyph-name="M" unicode="M" horiz-adv-x="811" 
d="M727 667l0.000976562 -666.999h-41v499c0 -2 0.666992 24 2 78c0.666992 17.333 1.66699 34.666 3 51.999c-0.666992 -3.33301 -4 -12.333 -10 -27c-0.666992 -1.33301 -2.33398 -5.66602 -5.00098 -12.999l-3 -6l-2 -7l-10 -25l-234 -551h-40l-235 545
c-2.66699 6 -8.33398 20.667 -17.001 44l-3 8l-3 7l-2 8l-4 10l-2 6c2.66699 -64.667 4 -107.334 4 -128.001v-500h-41v667h58l232 -539l19 -50c2.66699 -5.33301 7.33398 -17.333 14.001 -36l32 84l231 541h57z" />
    <glyph glyph-name="N" unicode="N" horiz-adv-x="684" 
d="M601 667v-667.001h-47l-374 528c-0.666992 0.666992 -4.66699 7 -12 19l-13 19l-33 54c1.33301 -11.333 2 -24.666 2 -39.999v-10c0 -7.33301 0.333008 -14 1 -20v-32v-518h-41v667h49l365 -519c11.333 -16 33 -49.333 65 -100c-2 32 -3 74.667 -3 128v491h41z" />
    <glyph glyph-name="O" unicode="O" horiz-adv-x="729" 
d="M364 682c94 0 170.5 -32.668 229.5 -98.001s88.5 -150.333 88.5 -255c0 -102.667 -29.167 -185.667 -87.5 -249s-134.833 -95 -229.5 -95c-95.333 0 -172 31.833 -230 95.5s-87 147.834 -87 252.501c0 103.333 29.167 187.333 87.5 252s134.5 97 228.5 97zM365 646.999
c-80.667 0 -146.834 -28.6689 -198.501 -86.002s-77.5 -130.666 -77.5 -219.999c0 -97.333 25 -175.166 75 -233.499s117 -87.5 201 -87.5c82 0 148.5 28.667 199.5 86s76.5 132 76.5 224c0 93.333 -25.667 169.5 -77 228.5s-117.666 88.5 -198.999 88.5z" />
    <glyph glyph-name="P" unicode="P" horiz-adv-x="593" 
d="M84 667h260c64 0 111.667 -10.333 143 -31c50 -33.333 75 -85 75 -155c0 -57.333 -18.5 -102.5 -55.5 -135.5s-87.5 -49.5 -151.5 -49.5h-230v-296h-41v667zM125 632l-0.000976562 -301h207c54 0 93.667 7.33301 119 22c46.667 27.333 70 70 70 128
c0 56 -20 97.667 -60 125c-25.333 17.333 -66.666 26 -123.999 26h-212z" />
    <glyph glyph-name="Q" unicode="Q" horiz-adv-x="729" 
d="M684 -5l-21 -25.999l-110 79c-48.667 -42 -112.667 -63 -192 -63c-92 0 -167.167 32 -225.5 96s-87.5 146.667 -87.5 248c0 104.667 29.333 189.667 88 255s135.334 98 230.001 98c93.333 0 169.166 -32.167 227.499 -96.5s87.5 -147.833 87.5 -250.5
c0 -110.667 -33.333 -199.334 -100 -266.001zM439 172.001l111 -80.002c60 66.667 90 147.334 90 242.001c0 93.333 -25.333 168.833 -76 226.5s-116.667 86.5 -198 86.5c-82 0 -148.667 -29 -200 -87s-77 -133 -77 -225c0 -95.333 25.167 -171.666 75.5 -228.999
s117.5 -86 201.5 -86c59.333 0 111 17 155 51l-104 74z" />
    <glyph glyph-name="R" unicode="R" horiz-adv-x="637" 
d="M81 667h275.001c142 0 213 -59 213 -177c0 -44 -12.333 -80.5 -37 -109.5s-59.667 -48.167 -105 -57.5c43.333 -6.66699 75 -21.334 95 -44.001c14 -16 23 -33.667 27 -53s7.33301 -57.666 10 -114.999c2 -52.667 7.33301 -86.667 16 -102l5 -9h-45
c-6.66699 12.667 -11.334 47 -14.001 103s-7 94.833 -13 116.5s-17.333 39.5 -34 53.5c-26.667 22 -75 33 -145 33h-207v-306h-41v667zM122.001 632v-291h201c136.667 0 205 49 205 147c0 96 -61.667 144 -185 144h-221z" />
    <glyph glyph-name="S" unicode="S" horiz-adv-x="588" 
d="M526 477l-39.998 0.00195312c-8.66699 112.667 -78.667 169 -210 169c-58 0 -103.667 -12.333 -137 -37s-50 -58.334 -50 -101.001c0 -52 25.333 -88.667 76 -110c20.667 -8.66699 47.334 -17 80.001 -25c4.66699 -0.666992 20 -4 46 -10l16 -4l17 -4
c75.333 -18 126.333 -35 153 -51c44 -26.667 66 -70.334 66 -131.001c0 -58 -22.5 -103.667 -67.5 -137s-106.833 -50 -185.5 -50c-84.667 0 -149.334 20 -194.001 60s-67.334 98.333 -68.001 175h39c1.33301 -64.667 21 -114.167 59 -148.5s92.333 -51.5 163 -51.5
c67.333 0 119.666 13.167 156.999 39.5s56 63.833 56 112.5c0 50 -22.667 86 -68 108c-26 12.667 -77.667 27.667 -155 45c-84 19.333 -140.667 38.333 -170 57c-40.667 26 -61 66.667 -61 122c0 54.667 20.5 97.667 61.5 129s97.167 47 168.5 47
c157.333 0 240 -68 248 -204z" />
    <glyph glyph-name="T" unicode="T" horiz-adv-x="540" 
d="M527 667v-35h-236v-632h-41v632h-236v35h513z" />
    <glyph glyph-name="U" unicode="U" horiz-adv-x="663" 
d="M589 667v-408.001c0 -182.667 -85.333 -274 -256 -274c-109.333 0 -185 38.333 -227 115c-21.333 38.667 -32 92.334 -32 161.001v406h41v-408c0 -82 18 -142.333 54 -181s91.667 -58 167 -58c72.667 0 126.167 19.5 160.5 58.5s51.5 99.5 51.5 181.5v407h41z" />
    <glyph glyph-name="V" unicode="V" horiz-adv-x="570" 
d="M559 667l-248.001 -666.999h-48l-252 667h44l200 -534c11.333 -30.667 21 -58.334 29 -83.001l4 -14c6.66699 23.333 17.334 55 32.001 95l198 536h41z" />
    <glyph glyph-name="W" unicode="W" horiz-adv-x="877" 
d="M860 667l-191 -667h-46l-156 526c-2 6 -6 19.667 -12 41c-4 14.667 -9.33301 35.667 -16 63l-6 -28c-2 -4 -6 -16 -12 -36c0.666992 0 -3 -13.667 -11 -41l-153 -525h-46l-194 667h44l147 -512c1.33301 -4.66699 4 -15 8 -31l7 -29
c4.66699 -17.333 8.66699 -34.333 12 -51c1.33301 8 6 24.667 14 50c2.66699 14 7.66699 33.667 15 59l150 514h50l155 -518c4 -13.333 8 -27.666 12 -42.999c0.666992 -4.66699 3.33398 -15.667 8.00098 -33c1.33301 -4.66699 3.66602 -14.334 6.99902 -29.001
c2 9.33301 11 44.333 27 105l147 518h40z" />
    <glyph glyph-name="X" unicode="X" horiz-adv-x="571" 
d="M548 667l-237 -324l250 -343h-49l-197 269c-2.66699 3.33301 -7 9.66602 -13 18.999c-3.33301 5.33301 -9 13.333 -17 24c-2.66699 -3.33301 -9 -12 -19 -26c-2 -4 -6.33301 -10.333 -13 -19l-195 -267h-48l251 343l-236 324h48l182 -249
c4 -5.33301 8 -11.166 12 -17.499s10.333 -15.833 19 -28.5l17 25l15 22l185 248h45z" />
    <glyph glyph-name="Y" unicode="Y" horiz-adv-x="573" 
d="M578 667l-270 -389v-278h-41v278l-269 389h49l212 -307l30 -47c0.666992 2 4.66699 8.66699 12 20c4.66699 6.66699 10 15 16 25l214 309h47z" />
    <glyph glyph-name="Z" unicode="Z" horiz-adv-x="561" 
d="M528 667l0.000976562 -39l-426 -558l-28 -36l70 1h393v-35h-507v40l429 560c5.33301 6.66699 13.666 17.667 24.999 33c-24 -0.666992 -43.667 -1 -59 -1h-366v35h469z" />
    <glyph glyph-name="bracketleft" unicode="[" horiz-adv-x="261" 
d="M207 667v-31h-92v-778h92v-31h-129v840h129z" />
    <glyph glyph-name="backslash" unicode="\" horiz-adv-x="407" 
d="M38 667h32l376 -840h-34z" />
    <glyph glyph-name="bracketright" unicode="]" horiz-adv-x="261" 
d="M54 -173v31h92v778h-92v31h129v-840h-129z" />
    <glyph glyph-name="asciicircum" unicode="^" horiz-adv-x="500" 
d="M83 386h-44l185 281h51l185 -281h-45l-167 251z" />
    <glyph glyph-name="underscore" unicode="_" horiz-adv-x="500" 
d="M0 -78h500v-33h-500v33z" />
    <glyph glyph-name="grave" unicode="`" horiz-adv-x="500" 
d="M178 687l113 -132h-35l-127 132h49z" />
    <glyph glyph-name="a" unicode="a" horiz-adv-x="491" 
d="M475 34v-30.999c-12.667 -4 -23.334 -6 -32.001 -6c-24 0 -40.333 5.83301 -49 17.5s-13 33.167 -13 64.5v23c-38 -77.333 -99 -116 -183 -116c-52 0 -92.167 11.667 -120.5 35s-42.5 56.333 -42.5 99c0 64.667 31.333 108 94 130c21.333 7.33301 51.333 13 90 17l61 6
l31 2c24.667 1.33301 42.167 6.16602 52.5 14.499s15.5 24.833 15.5 49.5c0 80.667 -46.333 121 -139 121c-86.667 0 -134 -42.667 -142 -128h-37c3.33301 51.333 20.833 91 52.5 119s75.167 42 130.5 42c85.333 0 139.333 -25 162 -75c8 -18 12 -50 12 -96v-241
c0 -18 1.33301 -30 4 -36c4.66699 -10 14.334 -15 29.001 -15c7.33301 0 15.333 1.33301 24 4zM379 187.001l-0.000976562 84.999c-14 -14.667 -50 -25 -108 -31c-68.667 -7.33301 -116 -16.666 -142 -27.999c-38 -16.667 -57 -46 -57 -88c0 -32.667 11.333 -58.667 34 -78
s53.334 -29 92.001 -29c52.667 0 96 15.833 130 47.5s51 72.167 51 121.5z" />
    <glyph glyph-name="b" unicode="b" horiz-adv-x="553" 
d="M117 667l-0.000976562 -301c32.667 84.667 93 127 181 127c66 0 118 -22.667 156 -68s57 -107.333 57 -186c0 -76.667 -19.167 -138 -57.5 -184s-89.166 -69 -152.499 -69c-95.333 0 -157 43 -185 129v-115h-38v667h39zM294.999 460c-55.333 0 -98.834 -20 -130.501 -60
s-47.5 -94.333 -47.5 -163c0 -66.667 16.5 -119.667 49.5 -159s77.167 -59 132.5 -59c52.667 0 94.834 20 126.501 60s47.5 93.333 47.5 160c0 68 -16 121.833 -48 161.5s-75.333 59.5 -130 59.5z" />
    <glyph glyph-name="c" unicode="c" horiz-adv-x="501" 
d="M430 169l37.999 -0.000976562c-8 -58 -29.833 -103 -65.5 -135s-81.834 -48 -138.501 -48c-67.333 0 -121 22.833 -161 68.5s-60 106.834 -60 183.501s20.167 138.334 60.5 185.001s94.166 70 161.499 70c56.667 0 102.334 -14 137.001 -42s55.334 -67.667 62.001 -119
h-39c-16.667 85.333 -69 128 -157 128c-57.333 0 -102.833 -20 -136.5 -60s-50.5 -93.667 -50.5 -161c0 -64.667 16.5 -117.5 49.5 -158.5s75.833 -61.5 128.5 -61.5c48 0 86.833 13.167 116.5 39.5s47.834 63.166 54.501 110.499z" />
    <glyph glyph-name="d" unicode="d" horiz-adv-x="554" 
d="M476 667v-667h-37v117c-11.333 -40.667 -32.833 -72.667 -64.5 -96s-69.834 -35 -114.501 -35c-67.333 0 -120.333 22.333 -159 67s-58 106 -58 184c0 78.667 19.5 141 58.5 187s91.5 69 157.5 69c84.667 0 144.334 -41.333 179.001 -124v298h38zM259 460
c-54.667 0 -98.001 -19.999 -130.001 -59.999s-48 -94 -48 -162c0 -68.667 16 -122.334 48 -161.001s76.333 -58 133 -58c54 0 97 19.833 129 59.5s48 93.167 48 160.5c0 68 -16.167 121.833 -48.5 161.5s-76.166 59.5 -131.499 59.5z" />
    <glyph glyph-name="e" unicode="e" horiz-adv-x="510" 
d="M428 164h38.0029c-10 -56.667 -33 -100.5 -69 -131.5s-82 -46.5 -138 -46.5c-64.667 0 -116.834 22.833 -156.501 68.5s-59.5 106.167 -59.5 181.5s20.167 137 60.5 185s92.5 72 156.5 72c66.667 0 118.667 -22.833 156 -68.5s55.666 -109.167 54.999 -190.5h-389
c1.33301 -67.333 17.666 -120 48.999 -158s75 -57 131 -57c44 0 80.333 12.667 109 38s47.667 61 57 107zM83.0029 267h349c-2.66699 60 -19.167 107.167 -49.5 141.5s-70.833 51.5 -121.5 51.5c-51.333 0 -92.333 -16.667 -123 -50s-49 -81 -55 -143z" />
    <glyph glyph-name="f" unicode="f" horiz-adv-x="248" 
d="M235 668v-33.999c-14 2.66699 -26.333 4 -37 4c-39.333 0 -63 -14 -71 -42c-3.33301 -12 -5 -37.333 -5 -76v-41h100v-33h-100v-446h-38v446h-83v33h83v50c0 53.333 8 90.166 24 110.499s44.667 30.5 86 30.5c3.33301 0 17 -0.666992 41 -2z" />
    <glyph glyph-name="g" unicode="g" horiz-adv-x="542" 
d="M464 479v-440.001c0 -77.333 -16.667 -133.666 -50 -168.999s-86.333 -53 -159 -53c-119.333 0 -182.666 49.333 -189.999 148h38c10 -76.667 61 -115 153 -115c59.333 0 102.5 14.833 129.5 44.5s40.5 77.5 40.5 143.5v100c-34.667 -80.667 -94.667 -121 -180 -121
c-61.333 0 -110.5 21 -147.5 63s-55.5 98.333 -55.5 169c0 73.333 19.167 132.333 57.5 177s89.166 67 152.499 67c86.667 0 144.667 -41.333 174 -124v110h37zM253 459.999c-51.333 0 -92.832 -18.668 -124.499 -56.001s-47.5 -86.666 -47.5 -147.999
c0 -63.333 15.167 -113.5 45.5 -150.5s71.166 -55.5 122.499 -55.5c53.333 0 96 18.5 128 55.5s48 86.5 48 148.5c0 62.667 -15.5 112.667 -46.5 150s-72.833 56 -125.5 56z" />
    <glyph glyph-name="h" unicode="h" horiz-adv-x="531" 
d="M116 667l-0.000976562 -240c0 -4.66699 -0.333008 -13.334 -1 -26.001c0 -5.33301 -0.333008 -15.333 -1 -30c32.667 81.333 91.334 122 176.001 122c53.333 0 94.666 -16.167 123.999 -48.5s44 -78.166 44 -137.499v-307h-38v301c0 106 -46.333 159 -139 159
c-53.333 0 -94.166 -18.667 -122.499 -56s-42.5 -91 -42.5 -161v-243h-38v667h38z" />
    <glyph glyph-name="i" unicode="i" horiz-adv-x="192" 
d="M115 667v-94h-38v94h38zM115 479v-479h-38v479h38z" />
    <glyph glyph-name="j" unicode="j" horiz-adv-x="190" 
d="M113 479l0.000976562 -530c0 -46.667 -8 -79 -24 -97s-44.667 -27 -86 -27c-8.66699 0 -16 0.333008 -22 1v33c6 -0.666992 12.333 -1 19 -1c29.333 0 49.166 6.16699 59.499 18.5s15.5 35.833 15.5 70.5v532h38zM113.001 667v-94h-38v94h38z" />
    <glyph glyph-name="k" unicode="k" horiz-adv-x="490" 
d="M463 479l-210 -178l225 -301h-48l-206 274l-108 -92v-182h-38v667h38v-442c8 8.66699 20.667 20 38 34l258 220h51z" />
    <glyph glyph-name="l" unicode="l" horiz-adv-x="192" 
d="M115 667v-667h-38v667h38z" />
    <glyph glyph-name="m" unicode="m" horiz-adv-x="791" 
d="M116 479l-0.000976562 -97c29.333 74 81.333 111 156 111c71.333 0 118 -34.333 140 -103c32.667 68.667 84.334 103 155.001 103c100.667 0 151 -54.667 151 -164v-329h-38v325c0 90 -40.333 135 -121 135c-44 0 -78.333 -14.5 -103 -43.5s-37 -69.167 -37 -120.5v-296
h-38v317c0 95.333 -39.667 143 -119 143c-44.667 0 -80 -16.833 -106 -50.5s-39 -79.167 -39 -136.5v-273h-39v479h38z" />
    <glyph glyph-name="n" unicode="n" horiz-adv-x="533" 
d="M116 479l-0.000976562 -104c32.667 78.667 90.334 118 173.001 118c73.333 0 124.333 -27 153 -81c12 -22.667 18 -58 18 -106v-306h-38v297c0 43.333 -5 75.333 -15 96c-21.333 44.667 -63.333 67 -126 67s-108.667 -26 -138 -78c-17.333 -30.667 -26 -75 -26 -133v-249
h-39v479h38z" />
    <glyph glyph-name="o" unicode="o" horiz-adv-x="531" 
d="M265 493c67.333 0 121.167 -23.167 161.5 -69.5s60.5 -108.5 60.5 -186.5c0 -76.667 -20 -137.667 -60 -183s-93.667 -68 -161 -68c-68.667 0 -123 23 -163 69s-60 108.333 -60 187c0 74.667 20.5 135.167 61.5 181.5s94.5 69.5 160.5 69.5zM265.001 460
c-54.667 0 -98.999 -20.167 -132.999 -60.5s-51 -92.5 -51 -156.5c0 -69.333 16.667 -124 50 -164s78.333 -60 135 -60c55.333 0 99.666 19.833 132.999 59.5s50 92.5 50 158.5c0 67.333 -16.667 121.333 -50 162s-78 61 -134 61z" />
    <glyph glyph-name="p" unicode="p" horiz-adv-x="550" 
d="M116 479l0.000976562 -113.002c28 84.667 88.333 127 181 127c62.667 0 113.5 -23.167 152.5 -69.5s58.5 -107.166 58.5 -182.499c0 -77.333 -19.333 -139.166 -58 -185.499s-90.334 -69.5 -155.001 -69.5c-92.667 0 -152 41.333 -178 124v-283h-39v652h38z
M291.001 459.998c-54.667 0 -97.5 -19.668 -128.5 -59.001s-46.5 -93.666 -46.5 -162.999c0 -68 15.667 -121.5 47 -160.5s74.333 -58.5 129 -58.5s98 19.833 130 59.5s48 93.5 48 161.5c0 66.667 -16.167 120 -48.5 160s-75.833 60 -130.5 60z" />
    <glyph glyph-name="q" unicode="q" horiz-adv-x="550" 
d="M472 479v-652.001h-38v283c-30.667 -82.667 -90.334 -124 -179.001 -124c-65.333 0 -117 22.667 -155 68s-57 106.333 -57 183c0 78 19.333 140.167 58 186.5s90.667 69.5 156 69.5c44.667 0 80.834 -9.66699 108.501 -29s51.167 -51.666 70.5 -96.999v112h36z
M259 459.999c-55.333 0 -98.832 -20.002 -130.499 -60.002s-47.5 -94.333 -47.5 -163c0 -66.667 15.833 -119.667 47.5 -159s74.5 -59 128.5 -59c54.667 0 98.167 19.833 130.5 59.5s48.5 92.834 48.5 159.501c0 68.667 -15.833 122.834 -47.5 162.501
s-74.834 59.5 -129.501 59.5z" />
    <glyph glyph-name="r" unicode="r" horiz-adv-x="296" 
d="M302 483v-38h-12c-68.667 0 -118.667 -30 -150 -90c-15.333 -30 -23 -79.333 -23 -148v-207h-39v479h38v-126c16.667 46 39.5 79.167 68.5 99.5s68.167 30.5 117.5 30.5z" />
    <glyph glyph-name="s" unicode="s" horiz-adv-x="449" 
d="M396 340l-38.999 -0.000976562c-6.66699 80 -54.667 120 -144 120c-42.667 0 -75.667 -8.33301 -99 -25s-35 -39.667 -35 -69c0 -27.333 9.5 -47.333 28.5 -60s60.5 -26.334 124.5 -41.001c58 -13.333 99 -26.666 123 -39.999c37.333 -21.333 56 -55 56 -101
c0 -41.333 -17.833 -74.666 -53.5 -99.999s-82.167 -38 -139.5 -38c-60.667 0 -107.834 15.167 -141.501 45.5s-50.834 73.5 -51.501 129.5h38c4 -94.667 56.667 -142 158 -142c46 0 82.833 9.66699 110.5 29s41.5 45.333 41.5 78c0 26.667 -10.333 47.334 -31 62.001
s-60 28.667 -118 42c-66 15.333 -109.333 28.666 -130 39.999c-35.333 19.333 -53 50 -53 92c0 41.333 15.5 73.5 46.5 96.5s74.167 34.5 129.5 34.5c112.667 0 172.334 -51 179.001 -153z" />
    <glyph glyph-name="t" unicode="t" horiz-adv-x="251" 
d="M221 479l0.00195312 -33h-104v-324c0 -38 4.16699 -63 12.5 -75s25.166 -18 50.499 -18c9.33301 0 23 2 41 6v-34c-16.667 -2.66699 -32 -4 -46 -4c-44.667 0 -73.334 13 -86.001 39c-6.66699 13.333 -10 47 -10 101v309h-87v33h87v150h38v-150h104z" />
    <glyph glyph-name="u" unicode="u" horiz-adv-x="529" 
d="M452 479l-0.000976562 -479h-37v101c-33.333 -76.667 -89.666 -115 -168.999 -115c-114.667 0 -172 61.333 -172 184v309h38v-286c0 -47.333 5.33301 -82.666 16 -105.999c21.333 -46 62.333 -69 123 -69c49.333 0 88.833 18.167 118.5 54.5s44.5 85.166 44.5 146.499
v260h38z" />
    <glyph glyph-name="v" unicode="v" horiz-adv-x="430" 
d="M425 479l-181.001 -479h-44l-195 479h42l137 -336c4.66699 -12 17.334 -47 38.001 -105l38 107l126 334h39z" />
    <glyph glyph-name="w" unicode="w" horiz-adv-x="685" 
d="M675 479l-154.999 -479h-43l-114 364c-5.33301 16.667 -11.666 40.334 -18.999 71.001c-4.66699 -17.333 -11.334 -40.666 -20.001 -69.999l-114 -365h-44l-155 479h41l111 -350c8 -24 16.333 -53.333 25 -88c3.33301 11.333 6.66602 25.666 9.99902 42.999
c3.33301 12 8 27.667 14 47l109 348h47l108 -350c5.33301 -18 13.333 -47 24 -87c9.33301 35.333 17.333 63.666 24 84.999l112 352h39z" />
    <glyph glyph-name="x" unicode="x" horiz-adv-x="437" 
d="M415 479l-174 -226.001l193 -253h-49l-150 199l-18 25c-1.33301 -1.33301 -4.33301 -5.66602 -9 -12.999c-2.66699 -3.33301 -5.66699 -7.33301 -9 -12l-150 -199h-45l190 251l-175 228h48l128 -170c2 -2 9.66699 -12 23 -30l21 30l131 170h45z" />
    <glyph glyph-name="y" unicode="y" horiz-adv-x="436" 
d="M432 479l-205.999 -528.999c-19.333 -50 -37.833 -83.167 -55.5 -99.5s-43.167 -23.833 -76.5 -22.5l-22 1h-14v34c10 -1.33301 20.333 -2 31 -2c41.333 0 70.333 20.667 87 62c10.667 26 17 41 19 45c10.667 18.667 15 30.667 13 36l-203 475h43l158 -376
c1.33301 -2.66699 8.66602 -22.334 21.999 -59.001l22 64l142 371h40z" />
    <glyph glyph-name="z" unicode="z" horiz-adv-x="415" 
d="M390 479v-32l-297 -381c-2 -2 -11 -13 -27 -33h339v-33h-382v36l295 377c2 2.66699 11 13.667 27 33h-298v33h343z" />
    <glyph glyph-name="braceleft" unicode="{" horiz-adv-x="261" 
d="M111 537l0.000976562 -181.001c0 -30.667 -4 -54 -12 -70s-22 -29 -42 -39c36 -18.667 54 -56.667 54 -114v-171c0 -69.333 27.667 -104 83 -104h10v-31h-7c-44.667 0 -76.334 11.333 -95.001 34s-28 61.334 -28 116.001v158c0 29.333 -4.16699 51 -12.5 65
s-23.5 24.667 -45.5 32v31c38.667 12 58 43.333 58 94v176c0 89.333 41.333 134 124 134h6v-31h-10c-55.333 0 -83 -33 -83 -99z" />
    <glyph glyph-name="bar" unicode="|" horiz-adv-x="500" 
d="M229 667h42v-834h-42v834z" />
    <glyph glyph-name="braceright" unicode="}" horiz-adv-x="261" 
d="M150 -43l-0.000976562 181.001c0 30.667 4 54 12 70s22 29 42 39c-36 18.667 -54 56.667 -54 114v171c0 69.333 -27.667 104 -83 104h-10v31h7c44.667 0 76.334 -11.333 95.001 -34s28 -61.334 28 -116.001v-158c0 -29.333 4.16699 -51 12.5 -65s23.5 -24.667 45.5 -32
v-31c-38.667 -12 -58 -43.333 -58 -94v-176c0 -89.333 -41.333 -134 -124 -134h-6v31h10c55.333 0 83 33 83 99z" />
    <glyph glyph-name="asciitilde" unicode="~" horiz-adv-x="667" 
d="M122 594l-27.001 20c35.333 66.667 78.333 100 129 100c25.333 0 64.333 -14 117 -42c46.667 -24.667 81 -37 103 -37c36.667 0 70.334 27 101.001 81l27 -19c-34.667 -66.667 -78.667 -100 -132 -100c-19.333 0 -42 5.66699 -68 17
c-3.33301 2 -23.833 12.833 -61.5 32.5s-67.167 29.5 -88.5 29.5c-36 0 -69.333 -27.333 -100 -82z" />
    <glyph glyph-name="exclamdown" unicode="&#xa1;" horiz-adv-x="241" 
d="M90 -187l7 498h27l7 -498h-41zM90 388v91h40v-91h-40z" />
    <glyph glyph-name="cent" unicode="&#xa2;" 
d="M451 260l36.998 -0.000976562c-7.33301 -55.333 -27.666 -98.833 -60.999 -130.5s-76.666 -48.167 -129.999 -49.5v-100h-23v100c-63.333 4 -113 28.333 -149 73s-54 104 -54 178c0 73.333 17.833 132.333 53.5 177s85.5 70.334 149.5 77.001v82h23v-82
c112.667 -6 175.334 -60 188.001 -162h-38c-14 80.667 -64 124 -150 130v-442c89.333 4 140.666 53.667 153.999 149zM273.998 110.999v441c-51.333 -6 -91.5 -28 -120.5 -66s-43.5 -88.333 -43.5 -151c0 -134 54.667 -208.667 164 -224z" />
    <glyph glyph-name="sterling" unicode="&#xa3;" 
d="M503 435l-36.999 -0.00195312c-2 125.333 -61.333 188 -178 188c-52.667 0 -95 -12.833 -127 -38.5s-48 -59.167 -48 -100.5c0 -30 12.667 -68 38 -114l24 -44h149v-23h-136c15.333 -34.667 23 -67.667 23 -99c0 -38.667 -13.333 -77 -40 -115
c-9.33301 -13.333 -28.333 -34.333 -57 -63c40 20.667 73.667 31 101 31c22 0 62.333 -10.667 121 -32c16.667 -6 34 -9 52 -9c20.667 0 43 5.83301 67 17.5s44 26.834 60 45.501l21 -28c-44.667 -46 -94 -69 -148 -69c-23.333 0 -64 10 -122 30c-23.333 8 -45 12 -65 12
c-32.667 0 -69.334 -13.667 -110.001 -41l-24 33c72 54 108 115.333 108 184c0 34 -9 68.333 -27 103h-75v23h61c-12 20.667 -21.333 37.334 -28 50.001c-21.333 39.333 -32 75.333 -32 108c0 51.333 19.667 92.833 59 124.5s90.333 47.5 153 47.5
c144.667 0 217 -73.667 217 -221z" />
    <glyph glyph-name="yen" unicode="&#xa5;" 
d="M205 373l-157 269h45l188 -323l187 323h43l-157 -269h137v-23h-151l-42 -72v-45h173v-23h-173v-210h-37v210h-173v23h173v45l-42 72h-151v23h137z" />
    <glyph glyph-name="brokenbar" unicode="&#xa6;" horiz-adv-x="500" 
d="M229 667h42v-326h-42v326zM229 153h42v-320h-42v320z" />
    <glyph glyph-name="section" unicode="&#xa7;" 
d="M439 493l-37.001 -0.000976562c-3.33301 88 -46.666 132 -129.999 132c-33.333 0 -60.5 -8.83301 -81.5 -26.5s-31.5 -40.167 -31.5 -67.5c0 -24 6.5 -43.333 19.5 -58s41.167 -34 84.5 -58c80.667 -44.667 135 -78.334 163 -101.001c44 -34.667 66 -74 66 -118
c0 -29.333 -9.33301 -55.666 -28 -78.999s-44.334 -40.666 -77.001 -51.999c37.333 -33.333 56 -68.333 56 -105c0 -39.333 -15 -71.333 -45 -96s-68.333 -37 -115 -37c-54 0 -96.167 15.333 -126.5 46s-45.166 73 -44.499 127h37c2 -93.333 46.333 -140 133 -140
c36.667 0 66.167 9 88.5 27s33.5 41.667 33.5 71c0 30 -13 56 -39 78c-18 15.333 -56.333 40 -115 74c-74 43.333 -120.333 74.333 -139 93c-28.667 28.667 -43 60.667 -43 96c0 64.667 34.333 109 103 133c-33.333 26.667 -50 59.667 -50 99
c0 37.333 14.167 67.833 42.5 91.5s64.5 35.5 108.5 35.5c108 0 163.667 -55 167 -165zM194.999 412.999c-60 -27.333 -90.001 -64.333 -90.001 -111c0 -32.667 15.333 -61 46 -85c10.667 -8 41.667 -27.667 93 -59c-4 2.66699 22 -13 78 -47
c18.667 -11.333 31.334 -20 38.001 -26c63.333 20 95 54.667 95 104c0 30.667 -14 59 -42 85s-85.333 63 -172 111c-12.667 6.66699 -28 16 -46 28z" />
    <glyph glyph-name="dieresis" unicode="&#xa8;" horiz-adv-x="500" 
d="M352 668v-96h-39v96h39zM188 668v-96h-39v96h39z" />
    <glyph glyph-name="copyright" unicode="&#xa9;" horiz-adv-x="793" 
d="M545 295h30.002c-4 -48.667 -22.167 -87.5 -54.5 -116.5s-73.833 -43.5 -124.5 -43.5c-54.667 0 -99.167 18.167 -133.5 54.5s-51.5 83.5 -51.5 141.5c0 60 17.333 108.5 52 145.5s80 55.5 136 55.5c45.333 0 83.666 -11.833 114.999 -35.5s49.333 -54.167 54 -91.5h-30
c-6.66699 31.333 -22.5 56 -47.5 74s-55.833 27 -92.5 27c-46.667 0 -84.334 -16 -113.001 -48s-43 -74.333 -43 -127c0 -50.667 14.333 -91.667 43 -123s66 -47 112 -47c41.333 0 75 11.833 101 35.5s41.667 56.5 47 98.5zM397.002 682c96 0 178 -34 246 -102
s102 -150 102 -246c0 -96.667 -34 -179 -102 -247s-150 -102 -246 -102c-96.667 0 -179 34 -247 102s-102 150.333 -102 247c0 96 34 178 102 246s150.333 102 247 102zM397.002 655c-88.667 0 -164 -31.333 -226 -94s-93 -138.334 -93 -227.001s31.167 -164.5 93.5 -227.5
s137.5 -94.5 225.5 -94.5s163 31.333 225 94s93 138.667 93 228c0 88.667 -31 164.334 -93 227.001s-137 94 -225 94z" />
    <glyph glyph-name="ordfeminine" unicode="&#xaa;" horiz-adv-x="373" 
d="M335 297h-297v33h297v-33zM317 427l0.000976562 -24.002c-8 -3.33301 -15.333 -5 -22 -5c-15.333 0 -25.5 3.33301 -30.5 10s-7.83301 18.334 -8.5 35.001c-26 -34 -58.667 -51 -98 -51c-64 0 -96 25.667 -96 77c0 36.667 18.667 61.667 56 75
c5.33301 2 22.666 4.66699 51.999 8l17 2l17 1l17 2c13.333 1.33301 22.5 3.66602 27.5 6.99902s7.5 11 7.5 23c0 41.333 -24.667 62 -74 62c-46.667 0 -72.334 -23.333 -77.001 -70h-28c4 63.333 39.333 95 106 95c36.667 0 62.834 -7.16699 78.501 -21.5
s23.5 -38.166 23.5 -71.499v-23c-0.666992 -15.333 -1 -29.666 -1 -42.999v-70c0 -14.667 4.66699 -22 14 -22c4.66699 0 11 1.33301 19 4zM255.001 504.998v37.001c-13.333 -5.33301 -32 -9.33301 -56 -12c-42.667 -4.66699 -71.167 -10.834 -85.5 -18.501
s-21.5 -21.167 -21.5 -40.5c0 -36 22 -54 66 -54c28.667 0 52 8.33301 70 25s27 37.667 27 63z" />
    <glyph glyph-name="guillemotleft" unicode="&#xab;" horiz-adv-x="344" 
d="M158 107l-107 121v36l107 122v-44l-81 -97l81 -91v-47zM279 107l-108 120v36l108 124v-44l-82 -98l82 -94v-44z" />
    <glyph glyph-name="logicalnot" unicode="&#xac;" horiz-adv-x="500" 
d="M424 0v233h-391v38h433v-271h-42z" />
    <glyph glyph-name="registered" unicode="&#xae;" horiz-adv-x="793" 
d="M257 523l167.998 0.00195312c87.333 0 131 -34 131 -102c0 -45.333 -23.667 -76.333 -71 -93c22 -4.66699 38.333 -14.334 49 -29.001c8.66699 -11.333 14.334 -41.333 17.001 -90c2 -32 4.66699 -50.667 8 -56l7 -10h-35
c-5.33301 7.33301 -8.66602 27.666 -9.99902 60.999c-2 48 -9.66699 78.5 -23 91.5s-43 19.5 -89 19.5h-121v-172h-31v380zM287.998 497.002v-156h117c80 0 120 26.333 120 79c0 51.333 -36 77 -108 77h-129zM396.998 682.002c96 0 178 -34 246 -102s102 -150 102 -246
c0 -96.667 -34 -179 -102 -247s-150 -102 -246 -102c-96.667 0 -179 34 -247 102s-102 150.333 -102 247c0 96 34 178 102 246s150.333 102 247 102zM396.998 655.002c-88.667 0 -164 -31.333 -226 -94s-93 -138.334 -93 -227.001s31.167 -164.5 93.5 -227.5
s137.5 -94.5 225.5 -94.5s163 31.333 225 94s93 138.667 93 228c0 88.667 -31 164.334 -93 227.001s-137 94 -225 94z" />
    <glyph glyph-name="macron" unicode="&#xaf;" horiz-adv-x="500" 
d="M376 631v-29h-252v29h252z" />
    <glyph glyph-name="degree" unicode="&#xb0;" horiz-adv-x="400" 
d="M201 686c42.667 0 78.167 -14.499 106.5 -43.499s42.5 -65.167 42.5 -108.5c0 -42.667 -14.5 -78.834 -43.5 -108.501s-64.5 -44.5 -106.5 -44.5s-77.5 14.833 -106.5 44.5s-43.5 66.167 -43.5 109.5c0 41.333 14.833 76.833 44.5 106.5s65.167 44.5 106.5 44.5z
M199 629.001c-26 0 -47.999 -9.49902 -65.999 -28.499s-27 -42.167 -27 -69.5c0 -24.667 9.16699 -46.334 27.5 -65.001s39.5 -28 63.5 -28c27.333 0 50.166 9 68.499 27s27.5 40.333 27.5 67c0 27.333 -9 50.333 -27 69s-40.333 28 -67 28z" />
    <glyph glyph-name="plusminus" unicode="&#xb1;" horiz-adv-x="549" 
d="M302 662v-245h237v-55h-237v-233h-55v233h-237v55h237v245h55zM11 55h524v-55h-524v55z" />
    <glyph glyph-name="twosuperior" unicode="&#xb2;" horiz-adv-x="358" 
d="M315 295l0.000976562 -29h-271c3.33301 34 12.5 60.167 27.5 78.5s50.167 45.833 105.5 82.5c38 25.333 64.167 47 78.5 65s21.5 38.333 21.5 61c0 24.667 -8.5 44.167 -25.5 58.5s-40.167 21.5 -69.5 21.5c-64.667 0 -97.334 -38.333 -98.001 -115h-31
c1.33301 94.667 44.333 142 129 142c38.667 0 69.334 -9.66699 92.001 -29s34 -45.666 34 -78.999c0 -30 -9.16699 -55.833 -27.5 -77.5s-55.5 -50.834 -111.5 -87.501c-32.667 -21.333 -54.334 -37.5 -65.001 -48.5s-18.667 -25.5 -24 -43.5h235z" />
    <glyph glyph-name="threesuperior" unicode="&#xb3;" horiz-adv-x="358" 
d="M77 527l-30 -0.000976562c3.33301 88.667 48.666 133 135.999 133c36.667 0 66.667 -9.33301 90 -28s35 -42.667 35 -72c0 -43.333 -21.333 -72 -64 -86c49.333 -14 74 -46.667 74 -98c0 -34.667 -13 -63 -39 -85s-59.333 -33 -100 -33
c-43.333 0 -77.833 11.5 -103.5 34.5s-38.5 54.167 -38.5 93.5v14h31c-0.666992 -3.33301 -1 -7.33301 -1 -12c0 -32 9.83301 -57.167 29.5 -75.5s46.834 -27.5 81.501 -27.5c32.667 0 59 8.33301 79 25s30 38.334 30 65.001c0 56 -38.667 84 -116 84h-17v27h20
c68 0 102 24.333 102 73c0 22.667 -8.5 40.667 -25.5 54s-39.833 20 -68.5 20c-68 0 -103 -35.333 -105 -106z" />
    <glyph glyph-name="acute" unicode="&#xb4;" horiz-adv-x="500" 
d="M368 687l-123 -132h-34l110 132h47z" />
    <glyph glyph-name="mu" unicode="&#xb5;" horiz-adv-x="576" 
d="M442 500l0.00292969 -368.997c0 -26.667 4.5 -48.334 13.5 -65.001s20.833 -25 35.5 -25c12 0 22.833 6.66699 32.5 20s15.167 29.333 16.5 48l27 -1c-14.667 -80.667 -54.667 -121 -120 -121c-46.667 0 -77.667 31 -93 93c-52.667 -62 -104.334 -93 -155.001 -93
c-28.667 0 -61.334 15.333 -98.001 46c0 -29.333 4 -58 12 -86c12.667 -44 19 -74.667 19 -92c0 -49.333 -16.667 -74 -50 -74c-14 0 -25.667 6.66699 -35 20s-14 29.666 -14 48.999c0 20 5.66699 51.333 17 94c8 30 12 55.333 12 76v480h88v-331
c0 -34.667 8 -61.834 24 -81.501s38.333 -29.5 67 -29.5c41.333 0 78.666 24.333 111.999 73v369h89z" />
    <glyph glyph-name="mu" unicode="&#x3bc;" horiz-adv-x="576" 
d="M442 500l0.00292969 -368.997c0 -26.667 4.5 -48.334 13.5 -65.001s20.833 -25 35.5 -25c12 0 22.833 6.66699 32.5 20s15.167 29.333 16.5 48l27 -1c-14.667 -80.667 -54.667 -121 -120 -121c-46.667 0 -77.667 31 -93 93c-52.667 -62 -104.334 -93 -155.001 -93
c-28.667 0 -61.334 15.333 -98.001 46c0 -29.333 4 -58 12 -86c12.667 -44 19 -74.667 19 -92c0 -49.333 -16.667 -74 -50 -74c-14 0 -25.667 6.66699 -35 20s-14 29.666 -14 48.999c0 20 5.66699 51.333 17 94c8 30 12 55.333 12 76v480h88v-331
c0 -34.667 8 -61.834 24 -81.501s38.333 -29.5 67 -29.5c41.333 0 78.666 24.333 111.999 73v369h89z" />
    <glyph glyph-name="paragraph" unicode="&#xb6;" 
d="M255 -173l0.000976562 485h-16c-54.667 0 -99.334 16.5 -134.001 49.5s-52 75.167 -52 126.5c0 72 29.333 123.667 88 155c30 16 72 24 126 24h227v-31h-53v-809h-40v809h-106v-809h-40z" />
    <glyph glyph-name="periodcentered" unicode="&#xb7;" horiz-adv-x="200" 
d="M124 294v-95h-47v95h47z" />
    <glyph glyph-name="cedilla" unicode="&#xb8;" horiz-adv-x="500" 
d="M267 0l-41.999 -53c16 2.66699 28.333 4 37 4c20.667 0 37.667 -5.5 51 -16.5s20 -24.833 20 -41.5c0 -22.667 -9 -40.667 -27 -54s-42 -20 -72 -20c-24.667 0 -53.334 6 -86.001 18l10 23c26.667 -11.333 50.667 -17 72 -17c44 0 66 15 66 45
c0 26.667 -17.667 40 -53 40c-10.667 0 -25.667 -3.33301 -45 -10l-13 12l56 70h26z" />
    <glyph glyph-name="onesuperior" unicode="&#xb9;" horiz-adv-x="358" 
d="M217 654v-387h-32v333c-26.667 -24.667 -61.667 -39.334 -105 -44.001v27c49.333 8.66699 86 32.334 110 71.001h27z" />
    <glyph glyph-name="ordmasculine" unicode="&#xba;" horiz-adv-x="373" 
d="M335 297h-297v33h297v-33zM186 674c38.667 0 69.832 -12.833 93.499 -38.5s35.5 -59.167 35.5 -100.5c0 -44 -11.5 -78.667 -34.5 -104s-54.167 -38 -93.5 -38s-70.666 12.833 -93.999 38.5s-35 60.167 -35 103.5c0 41.333 11.833 74.833 35.5 100.5s54.5 38.5 92.5 38.5
zM186.998 649c-29.333 0 -53.168 -10.501 -71.501 -31.501s-27.5 -48.5 -27.5 -82.5c0 -36 8.83301 -64.5 26.5 -85.5s41.834 -31.5 72.501 -31.5s54.667 10.333 72 31s26 49.334 26 86.001c0 34 -9 61.5 -27 82.5s-41.667 31.5 -71 31.5z" />
    <glyph glyph-name="guillemotright" unicode="&#xbb;" horiz-adv-x="344" 
d="M186 386l107 -120v-37l-107 -122v44l81 97l-81 92v46zM65 387l109 -121v-36l-109 -123v43l83 98l-83 95v44z" />
    <glyph glyph-name="onequarter" unicode="&#xbc;" horiz-adv-x="854" 
d="M217 654v-387h-32v333c-26.667 -24.667 -61.667 -39.334 -105 -44.001v27c49.333 8.66699 86 32.334 110 71.001h27zM645 652l-405 -652h-32l406 652h31zM817 124v-27h-65v-97h-31v97h-190v28l192 263h29v-264h65zM721 124v219l-158 -219h158z" />
    <glyph glyph-name="onehalf" unicode="&#xbd;" horiz-adv-x="854" 
d="M217 654v-387h-32v333c-26.667 -24.667 -61.667 -39.334 -105 -44.001v27c49.333 8.66699 86 32.334 110 71.001h27zM645 652l-405 -652h-32l406 652h31zM811 29l0.000976562 -28.998h-271c3.33301 34.667 12.5 61 27.5 79s50.167 45.333 105.5 82
c38.667 25.333 65 46.833 79 64.5s21 38.167 21 61.5c0 24.667 -8.5 44.167 -25.5 58.5s-40.167 21.5 -69.5 21.5c-64.667 0 -97.334 -38.333 -98.001 -115h-31c1.33301 94.667 44.333 142 129 142c38.667 0 69.334 -9.66699 92.001 -29s34 -45.333 34 -78
c0 -30.667 -9 -56.834 -27 -78.501s-55.333 -50.834 -112 -87.501c-32.667 -21.333 -54.334 -37.5 -65.001 -48.5s-18.667 -25.5 -24 -43.5h235z" />
    <glyph glyph-name="threequarters" unicode="&#xbe;" horiz-adv-x="854" 
d="M77 527l-30 -0.000976562c3.33301 88.667 48.666 133 135.999 133c36.667 0 66.667 -9.33301 90 -28s35 -42.667 35 -72c0 -43.333 -21.333 -72 -64 -86c49.333 -14 74 -46.667 74 -98c0 -34.667 -13 -63 -39 -85s-59.333 -33 -100 -33
c-43.333 0 -77.833 11.5 -103.5 34.5s-38.5 54.167 -38.5 93.5v14h31c-0.666992 -3.33301 -1 -7.33301 -1 -12c0 -32 9.83301 -57.167 29.5 -75.5s46.834 -27.5 81.501 -27.5c32.667 0 59 8.33301 79 25s30 38.334 30 65.001c0 56 -38.667 84 -116 84h-17v27h20
c68 0 102 24.333 102 73c0 22.667 -8.5 40.667 -25.5 54s-39.833 20 -68.5 20c-68 0 -103 -35.333 -105 -106zM646 651.999l-406 -652h-32l406 652h32zM817 123.999v-27h-65v-97h-31v97h-190v28l192 263h29v-264h65zM721 123.999v219l-158 -219h158z" />
    <glyph glyph-name="questiondown" unicode="&#xbf;" horiz-adv-x="494" 
d="M402 19l36.999 -0.00292969c-1.33301 -70 -19.666 -124.333 -54.999 -163s-85 -58 -149 -58c-56 0 -101.833 15.667 -137.5 47s-53.5 71.333 -53.5 120c0 42.667 13.333 81.334 40 116.001c3.33301 4.66699 28 28.667 74 72c28 26.667 45.333 48.334 52 65.001
s10.334 47.667 11.001 93h38c0 -47.333 -3.66699 -80.666 -11 -99.999c-8.66699 -22 -30.334 -49.333 -65.001 -82c-40 -37.333 -66.667 -66.833 -80 -88.5s-20 -46.167 -20 -73.5c0 -39.333 14.333 -71.833 43 -97.5s64.667 -38.5 108 -38.5
c108.667 0 164.667 62.667 168 188zM219.999 386.997v92h41v-92h-41z" />
    <glyph glyph-name="Agrave" unicode="&#xc0;" horiz-adv-x="601" 
d="M324 667l265 -667h-44l-84 214h-322l-84 -214h-44l270 667h43zM448 249l-122 309l-16 47c-1.33301 3.33301 -4 11 -8 23l-25 -67l-125 -312h296zM167 845h50l123 -122h-36z" />
    <glyph glyph-name="Aacute" unicode="&#xc1;" horiz-adv-x="601" 
d="M324 667l265 -667h-44l-84 214h-322l-84 -214h-44l270 667h43zM448 249l-122 309l-16 47c-1.33301 3.33301 -4 11 -8 23l-25 -67l-125 -312h296zM440 845l-136 -122h-37l123 122h50z" />
    <glyph glyph-name="Acircumflex" unicode="&#xc2;" horiz-adv-x="601" 
d="M324 667l265 -667h-44l-84 214h-322l-84 -214h-44l270 667h43zM448 249l-122 309l-16 47c-1.33301 3.33301 -4 11 -8 23l-25 -67l-125 -312h296zM445 723h-42l-104 101l-105 -101h-38l123 125h42z" />
    <glyph glyph-name="Atilde" unicode="&#xc3;" horiz-adv-x="601" 
d="M324 667l265 -667h-44l-84 214h-322l-84 -214h-44l270 667h43zM448 249l-122 309l-16 47c-1.33301 3.33301 -4 11 -8 23l-25 -67l-125 -312h296zM413 825h27.001c-10.667 -54 -34.667 -81 -72 -81c-18.667 0 -40 7.33301 -64 22c-30.667 18.667 -51.667 28 -63 28
c-23.333 0 -39 -17 -47 -51h-27c9.33301 54.667 34.666 82 75.999 82c17.333 0 38.333 -7.66699 63 -23c29.333 -18 50 -27 62 -27c20.667 0 35.667 16.667 45 50z" />
    <glyph glyph-name="Adieresis" unicode="&#xc4;" horiz-adv-x="601" 
d="M324 667l265 -667h-44l-84 214h-322l-84 -214h-44l270 667h43zM448 249l-122 309l-16 47c-1.33301 3.33301 -4 11 -8 23l-25 -67l-125 -312h296zM417 833v-94h-41v94h41zM224 833v-94h-41v94h41z" />
    <glyph glyph-name="Aring" unicode="&#xc5;" horiz-adv-x="601" 
d="M324 667l265 -667h-44l-84 214h-322l-84 -214h-44l270 667h43zM448 249l-122 309l-16 47c-1.33301 3.33301 -4 11 -8 23l-25 -67l-125 -312h296zM301 896c26 0 48.167 -9.16699 66.5 -27.5s27.5 -40.833 27.5 -67.5c0 -26 -9.16699 -48.167 -27.5 -66.5
s-40.5 -27.5 -66.5 -27.5s-48.333 9.16699 -67 27.5s-28 40.5 -28 66.5c0 26.667 9.16699 49.167 27.5 67.5s40.833 27.5 67.5 27.5zM301 870c-18.667 0 -34.834 -6.66699 -48.501 -20s-20.5 -29.666 -20.5 -48.999c0 -18.667 6.83301 -34.667 20.5 -48
s29.834 -20 48.501 -20s34.667 6.66699 48 20s20 29.333 20 48c0 19.333 -6.66699 35.666 -20 48.999s-29.333 20 -48 20z" />
    <glyph glyph-name="AE" unicode="&#xc6;" horiz-adv-x="854" 
d="M813 667v-35h-354v-267h328v-35h-328v-295h356v-35h-397v238h-245l-124 -238h-46l350 667h460zM418 273v359h-42l-186 -359h228z" />
    <glyph glyph-name="Ccedilla" unicode="&#xc7;" horiz-adv-x="681" 
d="M602 259l41.0068 -0.00292969c-6 -78.667 -35.5 -143.5 -88.5 -194.5s-118.833 -77.167 -197.5 -78.5l-31 -41c14 2.66699 25.333 4 34 4c20.667 0 37.667 -5.5 51 -16.5s20 -24.833 20 -41.5c0 -22 -9.16699 -40 -27.5 -54s-41.5 -21 -69.5 -21
c-24.667 0 -53.334 6.66699 -86.001 20l10 22c26.667 -11.333 50.667 -17 72 -17c18.667 0 34 4.33301 46 13s18 19.667 18 33c0 26 -17 39 -51 39c-12.667 0 -27.334 -3.33301 -44.001 -10l-15 12l44 58c-84.667 6.66699 -152.5 41.334 -203.5 104.001
s-76.5 142.667 -76.5 240c0 103.333 28.667 187.833 86 253.5s131.333 98.5 222 98.5c71.333 0 131.833 -19.167 181.5 -57.5s81.167 -90.833 94.5 -157.5h-41c-12.667 54.667 -40.334 98.334 -83.001 131.001s-93.334 49 -152.001 49
c-78.667 0 -142.834 -29.5 -192.501 -88.5s-74.5 -135.167 -74.5 -228.5c0 -91.333 24.667 -166 74 -224s112.666 -87 189.999 -87c67.333 0 124.666 22.833 171.999 68.5s73 102.834 77 171.501z" />
    <glyph glyph-name="Egrave" unicode="&#xc8;" horiz-adv-x="577" 
d="M533 667v-35h-408v-267h384v-35h-384v-295h413v-35h-454v667h449zM191 845h50l123 -122h-36z" />
    <glyph glyph-name="Eacute" unicode="&#xc9;" horiz-adv-x="577" 
d="M533 667v-35h-408v-267h384v-35h-384v-295h413v-35h-454v667h449zM438 845l-136 -122h-37l123 122h50z" />
    <glyph glyph-name="Ecircumflex" unicode="&#xca;" horiz-adv-x="577" 
d="M533 667v-35h-408v-267h384v-35h-384v-295h413v-35h-454v667h449zM456 723h-42l-104 101l-105 -101h-38l123 125h42z" />
    <glyph glyph-name="Edieresis" unicode="&#xcb;" horiz-adv-x="577" 
d="M533 667v-35h-408v-267h384v-35h-384v-295h413v-35h-454v667h449zM428 833v-94h-41v94h41zM235 833v-94h-41v94h41z" />
    <glyph glyph-name="Igrave" unicode="&#xcc;" horiz-adv-x="208" 
d="M125 667v-667h-41v667h41zM-19 845h50l113 -122h-36z" />
    <glyph glyph-name="Iacute" unicode="&#xcd;" horiz-adv-x="208" 
d="M125 667v-667h-41v667h41zM227 845l-126 -122h-37l113 122h50z" />
    <glyph glyph-name="Icircumflex" unicode="&#xce;" horiz-adv-x="208" 
d="M125 667v-667h-41v667h41zM235 723h-42l-91 101l-91 -101h-38l110 125h41z" />
    <glyph glyph-name="Idieresis" unicode="&#xcf;" horiz-adv-x="208" 
d="M125 667v-667h-41v667h41zM188 833v-94h-41v94h41zM61 833v-94h-41v94h41z" />
    <glyph glyph-name="Eth" unicode="&#xd0;" horiz-adv-x="660" 
d="M84 366l0.000976562 301.001h226c89.333 0 158.666 -23 207.999 -69c63.333 -58.667 95 -143.334 95 -254.001c0 -118 -31 -207.667 -93 -269c-50.667 -50 -120.667 -75 -210 -75h-226v331h-80v35h80zM125.001 366.001h194v-35h-194v-296h172
c87.333 0 152.333 21.667 195 65c53.333 54 80 132 80 234c0 198.667 -88.333 298 -265 298h-182v-266z" />
    <glyph glyph-name="Ntilde" unicode="&#xd1;" horiz-adv-x="684" 
d="M601 667v-667.001h-47l-374 528c-0.666992 0.666992 -4.66699 7 -12 19l-13 19l-33 54c1.33301 -11.333 2 -24.666 2 -39.999v-10c0 -7.33301 0.333008 -14 1 -20v-32v-518h-41v667h49l365 -519c11.333 -16 33 -49.333 65 -100c-2 32 -3 74.667 -3 128v491h41z
M451 824.999h27.001c-10.667 -54 -34.667 -81 -72 -81c-18.667 0 -40 7.33301 -64 22c-30.667 18.667 -51.667 28 -63 28c-23.333 0 -39 -17 -47 -51h-27c9.33301 54.667 34.666 82 75.999 82c17.333 0 38.333 -7.66699 63 -23c29.333 -18 50 -27 62 -27
c20.667 0 35.667 16.667 45 50z" />
    <glyph glyph-name="Ograve" unicode="&#xd2;" horiz-adv-x="729" 
d="M364 682c94 0 170.5 -32.668 229.5 -98.001s88.5 -150.333 88.5 -255c0 -102.667 -29.167 -185.667 -87.5 -249s-134.833 -95 -229.5 -95c-95.333 0 -172 31.833 -230 95.5s-87 147.834 -87 252.501c0 103.333 29.167 187.333 87.5 252s134.5 97 228.5 97zM365 646.999
c-80.667 0 -146.834 -28.6689 -198.501 -86.002s-77.5 -130.666 -77.5 -219.999c0 -97.333 25 -175.166 75 -233.499s117 -87.5 201 -87.5c82 0 148.5 28.667 199.5 86s76.5 132 76.5 224c0 93.333 -25.667 169.5 -77 228.5s-117.666 88.5 -198.999 88.5zM238 844.997h50
l123 -122h-36z" />
    <glyph glyph-name="Oacute" unicode="&#xd3;" horiz-adv-x="729" 
d="M364 682c94 0 170.5 -32.668 229.5 -98.001s88.5 -150.333 88.5 -255c0 -102.667 -29.167 -185.667 -87.5 -249s-134.833 -95 -229.5 -95c-95.333 0 -172 31.833 -230 95.5s-87 147.834 -87 252.501c0 103.333 29.167 187.333 87.5 252s134.5 97 228.5 97zM365 646.999
c-80.667 0 -146.834 -28.6689 -198.501 -86.002s-77.5 -130.666 -77.5 -219.999c0 -97.333 25 -175.166 75 -233.499s117 -87.5 201 -87.5c82 0 148.5 28.667 199.5 86s76.5 132 76.5 224c0 93.333 -25.667 169.5 -77 228.5s-117.666 88.5 -198.999 88.5zM491 844.997
l-136 -122h-37l123 122h50z" />
    <glyph glyph-name="Ocircumflex" unicode="&#xd4;" horiz-adv-x="729" 
d="M364 682c94 0 170.5 -32.668 229.5 -98.001s88.5 -150.333 88.5 -255c0 -102.667 -29.167 -185.667 -87.5 -249s-134.833 -95 -229.5 -95c-95.333 0 -172 31.833 -230 95.5s-87 147.834 -87 252.501c0 103.333 29.167 187.333 87.5 252s134.5 97 228.5 97zM365 646.999
c-80.667 0 -146.834 -28.6689 -198.501 -86.002s-77.5 -130.666 -77.5 -219.999c0 -97.333 25 -175.166 75 -233.499s117 -87.5 201 -87.5c82 0 148.5 28.667 199.5 86s76.5 132 76.5 224c0 93.333 -25.667 169.5 -77 228.5s-117.666 88.5 -198.999 88.5zM509 722.997h-42
l-104 101l-105 -101h-38l123 125h42z" />
    <glyph glyph-name="Otilde" unicode="&#xd5;" horiz-adv-x="729" 
d="M364 682c94 0 170.5 -32.668 229.5 -98.001s88.5 -150.333 88.5 -255c0 -102.667 -29.167 -185.667 -87.5 -249s-134.833 -95 -229.5 -95c-95.333 0 -172 31.833 -230 95.5s-87 147.834 -87 252.501c0 103.333 29.167 187.333 87.5 252s134.5 97 228.5 97zM365 646.999
c-80.667 0 -146.834 -28.6689 -198.501 -86.002s-77.5 -130.666 -77.5 -219.999c0 -97.333 25 -175.166 75 -233.499s117 -87.5 201 -87.5c82 0 148.5 28.667 199.5 86s76.5 132 76.5 224c0 93.333 -25.667 169.5 -77 228.5s-117.666 88.5 -198.999 88.5zM488 824.997
h27.001c-10.667 -54 -34.667 -81 -72 -81c-18.667 0 -40 7.33301 -64 22c-30.667 18.667 -51.667 28 -63 28c-23.333 0 -39 -17 -47 -51h-27c9.33301 54.667 34.666 82 75.999 82c17.333 0 38.333 -7.66699 63 -23c29.333 -18 50 -27 62 -27c20.667 0 35.667 16.667 45 50z
" />
    <glyph glyph-name="Odieresis" unicode="&#xd6;" horiz-adv-x="729" 
d="M364 682c94 0 170.5 -32.668 229.5 -98.001s88.5 -150.333 88.5 -255c0 -102.667 -29.167 -185.667 -87.5 -249s-134.833 -95 -229.5 -95c-95.333 0 -172 31.833 -230 95.5s-87 147.834 -87 252.501c0 103.333 29.167 187.333 87.5 252s134.5 97 228.5 97zM365 646.999
c-80.667 0 -146.834 -28.6689 -198.501 -86.002s-77.5 -130.666 -77.5 -219.999c0 -97.333 25 -175.166 75 -233.499s117 -87.5 201 -87.5c82 0 148.5 28.667 199.5 86s76.5 132 76.5 224c0 93.333 -25.667 169.5 -77 228.5s-117.666 88.5 -198.999 88.5zM481 832.997v-94
h-41v94h41zM288 832.997v-94h-41v94h41z" />
    <glyph glyph-name="Oslash" unicode="&#xd8;" horiz-adv-x="729" 
d="M667 644l-65 -70c29.333 -40 49.833 -78.333 61.5 -115s17.5 -80.334 17.5 -131.001c0 -102 -29.5 -184.667 -88.5 -248s-136.167 -95 -231.5 -95c-90 0 -162.667 29.333 -218 88l-70 -76l-20 20l71 77c-50.667 70.667 -76 149.667 -76 237
c0 104.667 28.833 189.334 86.5 254.001s133.167 97 226.5 97c90.667 0 164.667 -29.333 222 -88l63 69zM152 124l404.999 441.998c-51.333 54 -116.666 81 -195.999 81c-81.333 0 -147 -29.167 -197 -87.5s-75 -135.166 -75 -230.499c0 -85.333 21 -153.666 63 -204.999z
M575.999 543.998l-407 -442.002c20.667 -24.667 48.5 -44.5 83.5 -59.5s70.833 -22.5 107.5 -22.5c84 0 151.667 28.333 203 85s77 131.334 77 224.001c0 80.667 -21.333 152.334 -64 215.001z" />
    <glyph glyph-name="Ugrave" unicode="&#xd9;" horiz-adv-x="663" 
d="M589 667v-408.001c0 -182.667 -85.333 -274 -256 -274c-109.333 0 -185 38.333 -227 115c-21.333 38.667 -32 92.334 -32 161.001v406h41v-408c0 -82 18 -142.333 54 -181s91.667 -58 167 -58c72.667 0 126.167 19.5 160.5 58.5s51.5 99.5 51.5 181.5v407h41z
M212 844.999h50l123 -122h-36z" />
    <glyph glyph-name="Uacute" unicode="&#xda;" horiz-adv-x="663" 
d="M589 667v-408.001c0 -182.667 -85.333 -274 -256 -274c-109.333 0 -185 38.333 -227 115c-21.333 38.667 -32 92.334 -32 161.001v406h41v-408c0 -82 18 -142.333 54 -181s91.667 -58 167 -58c72.667 0 126.167 19.5 160.5 58.5s51.5 99.5 51.5 181.5v407h41z
M465 844.999l-136 -122h-37l123 122h50z" />
    <glyph glyph-name="Ucircumflex" unicode="&#xdb;" horiz-adv-x="663" 
d="M589 667v-408.001c0 -182.667 -85.333 -274 -256 -274c-109.333 0 -185 38.333 -227 115c-21.333 38.667 -32 92.334 -32 161.001v406h41v-408c0 -82 18 -142.333 54 -181s91.667 -58 167 -58c72.667 0 126.167 19.5 160.5 58.5s51.5 99.5 51.5 181.5v407h41z
M476 722.999h-42l-104 101l-105 -101h-38l123 125h42z" />
    <glyph glyph-name="Udieresis" unicode="&#xdc;" horiz-adv-x="663" 
d="M589 667v-408.001c0 -182.667 -85.333 -274 -256 -274c-109.333 0 -185 38.333 -227 115c-21.333 38.667 -32 92.334 -32 161.001v406h41v-408c0 -82 18 -142.333 54 -181s91.667 -58 167 -58c72.667 0 126.167 19.5 160.5 58.5s51.5 99.5 51.5 181.5v407h41z
M448 832.999v-94h-41v94h41zM255 832.999v-94h-41v94h41z" />
    <glyph glyph-name="Yacute" unicode="&#xdd;" horiz-adv-x="573" 
d="M578 667l-270 -389v-278h-41v278l-269 389h49l212 -307l30 -47c0.666992 2 4.66699 8.66699 12 20c4.66699 6.66699 10 15 16 25l214 309h47zM420 845l-137 -122h-36l123 122h50z" />
    <glyph glyph-name="Thorn" unicode="&#xde;" horiz-adv-x="596" 
d="M125 192l-0.000976562 -192h-41v667h41v-104h219c64.667 0 112.334 -10.333 143.001 -31c50 -34 75 -85.667 75 -155c0 -57.333 -18.5 -102.5 -55.5 -135.5s-87.5 -49.5 -151.5 -49.5h-230zM124.999 528l-0.000976562 -301h207c54 0 93.667 7.33301 119 22
c46.667 27.333 70 70 70 128c0 56 -20 97.667 -60 125c-25.333 17.333 -66.666 26 -123.999 26h-212z" />
    <glyph glyph-name="germandbls" unicode="&#xdf;" horiz-adv-x="502" 
d="M219 -2l-0.000976562 31.999c9.33301 -0.666992 20 -1 32 -1c114 0 171 57.333 171 172c0 54.667 -16 94.167 -48 118.5s-83.667 36.5 -155 36.5v32h14c49.333 0 87.333 11.333 114 34s40 55 40 97c0 38.667 -13 70.167 -39 94.5s-59.667 36.5 -101 36.5
c-87.333 0 -131 -49.667 -131 -149v-501h-38v477c0 62.667 7.33301 106.334 22 131.001c29.333 50 79 75 149 75c52.667 0 95.167 -15.167 127.5 -45.5s48.5 -69.833 48.5 -118.5c0 -76.667 -37 -124.667 -111 -144c45.333 -4.66699 81 -22.667 107 -54s39 -72 39 -122
c0 -63.333 -17.667 -112.833 -53 -148.5s-84.666 -53.5 -147.999 -53.5c-14.667 0 -28 0.333008 -40 1z" />
    <glyph glyph-name="agrave" unicode="&#xe0;" horiz-adv-x="491" 
d="M475 34v-30.999c-12.667 -4 -23.334 -6 -32.001 -6c-24 0 -40.333 5.83301 -49 17.5s-13 33.167 -13 64.5v23c-38 -77.333 -99 -116 -183 -116c-52 0 -92.167 11.667 -120.5 35s-42.5 56.333 -42.5 99c0 64.667 31.333 108 94 130c21.333 7.33301 51.333 13 90 17l61 6
l31 2c24.667 1.33301 42.167 6.16602 52.5 14.499s15.5 24.833 15.5 49.5c0 80.667 -46.333 121 -139 121c-86.667 0 -134 -42.667 -142 -128h-37c3.33301 51.333 20.833 91 52.5 119s75.167 42 130.5 42c85.333 0 139.333 -25 162 -75c8 -18 12 -50 12 -96v-241
c0 -18 1.33301 -30 4 -36c4.66699 -10 14.334 -15 29.001 -15c7.33301 0 15.333 1.33301 24 4zM379 187.001l-0.000976562 84.999c-14 -14.667 -50 -25 -108 -31c-68.667 -7.33301 -116 -16.666 -142 -27.999c-38 -16.667 -57 -46 -57 -88c0 -32.667 11.333 -58.667 34 -78
s53.334 -29 92.001 -29c52.667 0 96 15.833 130 47.5s51 72.167 51 121.5zM179.999 687l113 -132h-35l-127 132h49z" />
    <glyph glyph-name="aacute" unicode="&#xe1;" horiz-adv-x="491" 
d="M475 34v-30.999c-12.667 -4 -23.334 -6 -32.001 -6c-24 0 -40.333 5.83301 -49 17.5s-13 33.167 -13 64.5v23c-38 -77.333 -99 -116 -183 -116c-52 0 -92.167 11.667 -120.5 35s-42.5 56.333 -42.5 99c0 64.667 31.333 108 94 130c21.333 7.33301 51.333 13 90 17l61 6
l31 2c24.667 1.33301 42.167 6.16602 52.5 14.499s15.5 24.833 15.5 49.5c0 80.667 -46.333 121 -139 121c-86.667 0 -134 -42.667 -142 -128h-37c3.33301 51.333 20.833 91 52.5 119s75.167 42 130.5 42c85.333 0 139.333 -25 162 -75c8 -18 12 -50 12 -96v-241
c0 -18 1.33301 -30 4 -36c4.66699 -10 14.334 -15 29.001 -15c7.33301 0 15.333 1.33301 24 4zM379 187.001l-0.000976562 84.999c-14 -14.667 -50 -25 -108 -31c-68.667 -7.33301 -116 -16.666 -142 -27.999c-38 -16.667 -57 -46 -57 -88c0 -32.667 11.333 -58.667 34 -78
s53.334 -29 92.001 -29c52.667 0 96 15.833 130 47.5s51 72.167 51 121.5zM363.999 687l-123 -132h-34l110 132h47z" />
    <glyph glyph-name="acircumflex" unicode="&#xe2;" horiz-adv-x="491" 
d="M475 34v-30.999c-12.667 -4 -23.334 -6 -32.001 -6c-24 0 -40.333 5.83301 -49 17.5s-13 33.167 -13 64.5v23c-38 -77.333 -99 -116 -183 -116c-52 0 -92.167 11.667 -120.5 35s-42.5 56.333 -42.5 99c0 64.667 31.333 108 94 130c21.333 7.33301 51.333 13 90 17l61 6
l31 2c24.667 1.33301 42.167 6.16602 52.5 14.499s15.5 24.833 15.5 49.5c0 80.667 -46.333 121 -139 121c-86.667 0 -134 -42.667 -142 -128h-37c3.33301 51.333 20.833 91 52.5 119s75.167 42 130.5 42c85.333 0 139.333 -25 162 -75c8 -18 12 -50 12 -96v-241
c0 -18 1.33301 -30 4 -36c4.66699 -10 14.334 -15 29.001 -15c7.33301 0 15.333 1.33301 24 4zM379 187.001l-0.000976562 84.999c-14 -14.667 -50 -25 -108 -31c-68.667 -7.33301 -116 -16.666 -142 -27.999c-38 -16.667 -57 -46 -57 -88c0 -32.667 11.333 -58.667 34 -78
s53.334 -29 92.001 -29c52.667 0 96 15.833 130 47.5s51 72.167 51 121.5zM373.999 555h-40l-90 108l-90 -108h-37l109 132h39z" />
    <glyph glyph-name="atilde" unicode="&#xe3;" horiz-adv-x="491" 
d="M475 34v-30.999c-12.667 -4 -23.334 -6 -32.001 -6c-24 0 -40.333 5.83301 -49 17.5s-13 33.167 -13 64.5v23c-38 -77.333 -99 -116 -183 -116c-52 0 -92.167 11.667 -120.5 35s-42.5 56.333 -42.5 99c0 64.667 31.333 108 94 130c21.333 7.33301 51.333 13 90 17l61 6
l31 2c24.667 1.33301 42.167 6.16602 52.5 14.499s15.5 24.833 15.5 49.5c0 80.667 -46.333 121 -139 121c-86.667 0 -134 -42.667 -142 -128h-37c3.33301 51.333 20.833 91 52.5 119s75.167 42 130.5 42c85.333 0 139.333 -25 162 -75c8 -18 12 -50 12 -96v-241
c0 -18 1.33301 -30 4 -36c4.66699 -10 14.334 -15 29.001 -15c7.33301 0 15.333 1.33301 24 4zM379 187.001l-0.000976562 84.999c-14 -14.667 -50 -25 -108 -31c-68.667 -7.33301 -116 -16.666 -142 -27.999c-38 -16.667 -57 -46 -57 -88c0 -32.667 11.333 -58.667 34 -78
s53.334 -29 92.001 -29c52.667 0 96 15.833 130 47.5s51 72.167 51 121.5zM340.999 659h27.0029c-2.66699 -24 -9.83398 -43.5 -21.501 -58.5s-25.834 -22.5 -42.501 -22.5c-16 0 -35 7.33301 -57 22c-28 18.667 -47 28 -57 28c-22.667 0 -36 -17 -40 -51h-27
c7.33301 54.667 30 82 68 82c16 0 35 -7.66699 57 -23c26 -18 43.667 -27 53 -27c21.333 0 34.666 16.667 39.999 50z" />
    <glyph glyph-name="adieresis" unicode="&#xe4;" horiz-adv-x="491" 
d="M475 34v-30.999c-12.667 -4 -23.334 -6 -32.001 -6c-24 0 -40.333 5.83301 -49 17.5s-13 33.167 -13 64.5v23c-38 -77.333 -99 -116 -183 -116c-52 0 -92.167 11.667 -120.5 35s-42.5 56.333 -42.5 99c0 64.667 31.333 108 94 130c21.333 7.33301 51.333 13 90 17l61 6
l31 2c24.667 1.33301 42.167 6.16602 52.5 14.499s15.5 24.833 15.5 49.5c0 80.667 -46.333 121 -139 121c-86.667 0 -134 -42.667 -142 -128h-37c3.33301 51.333 20.833 91 52.5 119s75.167 42 130.5 42c85.333 0 139.333 -25 162 -75c8 -18 12 -50 12 -96v-241
c0 -18 1.33301 -30 4 -36c4.66699 -10 14.334 -15 29.001 -15c7.33301 0 15.333 1.33301 24 4zM379 187.001l-0.000976562 84.999c-14 -14.667 -50 -25 -108 -31c-68.667 -7.33301 -116 -16.666 -142 -27.999c-38 -16.667 -57 -46 -57 -88c0 -32.667 11.333 -58.667 34 -78
s53.334 -29 92.001 -29c52.667 0 96 15.833 130 47.5s51 72.167 51 121.5zM346.999 668v-96h-39v96h39zM182.999 668v-96h-39v96h39z" />
    <glyph glyph-name="aring" unicode="&#xe5;" horiz-adv-x="491" 
d="M475 34v-30.999c-12.667 -4 -23.334 -6 -32.001 -6c-24 0 -40.333 5.83301 -49 17.5s-13 33.167 -13 64.5v23c-38 -77.333 -99 -116 -183 -116c-52 0 -92.167 11.667 -120.5 35s-42.5 56.333 -42.5 99c0 64.667 31.333 108 94 130c21.333 7.33301 51.333 13 90 17l61 6
l31 2c24.667 1.33301 42.167 6.16602 52.5 14.499s15.5 24.833 15.5 49.5c0 80.667 -46.333 121 -139 121c-86.667 0 -134 -42.667 -142 -128h-37c3.33301 51.333 20.833 91 52.5 119s75.167 42 130.5 42c85.333 0 139.333 -25 162 -75c8 -18 12 -50 12 -96v-241
c0 -18 1.33301 -30 4 -36c4.66699 -10 14.334 -15 29.001 -15c7.33301 0 15.333 1.33301 24 4zM379 187.001l-0.000976562 84.999c-14 -14.667 -50 -25 -108 -31c-68.667 -7.33301 -116 -16.666 -142 -27.999c-38 -16.667 -57 -46 -57 -88c0 -32.667 11.333 -58.667 34 -78
s53.334 -29 92.001 -29c52.667 0 96 15.833 130 47.5s51 72.167 51 121.5zM246.999 713c23.333 0 43.166 -8.33301 59.499 -25s24.5 -37 24.5 -61c0 -23.333 -8.16699 -43.333 -24.5 -60s-36.166 -25 -59.499 -25c-24 0 -44.333 8.33301 -61 25s-25 37 -25 61
c0 23.333 8.33301 43.333 25 60s37 25 61 25zM245.999 689c-16.667 0 -31 -6.16699 -43 -18.5s-18 -27.166 -18 -44.499c0 -16.667 6 -30.834 18 -42.501s26.667 -17.5 44 -17.5c16.667 0 31 6 43 18s18 26.333 18 43c0 17.333 -6 32 -18 44s-26.667 18 -44 18z" />
    <glyph glyph-name="ae" unicode="&#xe6;" horiz-adv-x="843" 
d="M761 161l36.999 0.000976562c-10.667 -56 -34 -99.167 -70 -129.5s-81.667 -45.5 -137 -45.5c-96 0 -159.667 47.667 -191 143c-13.333 -42 -39.333 -76.333 -78 -103s-81.667 -40 -129 -40c-48.667 0 -87.5 12.667 -116.5 38s-43.5 59 -43.5 101
c0 52.667 20.667 91 62 115c26.667 15.333 70.667 25.333 132 30c71.333 5.33301 115 11.333 131 18s24 21.667 24 45c0 44.667 -11.167 77 -33.5 97s-58.166 30 -107.499 30c-93.333 0 -143.333 -43 -150 -129h-37c9.33301 108 71.333 162 186 162
c54.667 0 95 -9.5 121 -28.5s42.333 -50.833 49 -95.5c32 82.667 93 124 183 124c64.667 0 116 -21.333 154 -64s57 -100.334 57 -173.001v-22h-386c-0.666992 -68 14.333 -121 45 -159s74 -57 130 -57c93.333 0 149.333 47.667 168 143zM416.999 267.001h348.999
c-0.666992 59.333 -16.667 106.333 -48 141s-73.333 52 -126 52c-107.333 0 -165.666 -64.333 -174.999 -193zM381.998 232.001v40.002c-10 -9.33301 -21.167 -15.833 -33.5 -19.5s-35.833 -6.83398 -70.5 -9.50098c-20 -1.33301 -46.667 -3.33301 -80 -6
c-84 -10 -126 -47 -126 -111c0 -33.333 11.5 -59.5 34.5 -78.5s54.167 -28.5 93.5 -28.5c36.667 0 71.167 10.5 103.5 31.5s54.5 48.167 66.5 81.5c8 21.333 12 54.666 12 99.999z" />
    <glyph glyph-name="ccedilla" unicode="&#xe7;" horiz-adv-x="501" 
d="M431 169l37.001 -0.000976562c-6.66699 -55.333 -28 -99.333 -64 -132s-81.333 -49 -136 -49h-7l-32 -41c16 2.66699 28.333 4 37 4c20.667 0 37.5 -5.5 50.5 -16.5s19.5 -24.833 19.5 -41.5c0 -22.667 -8.83301 -40.667 -26.5 -54s-41.5 -20 -71.5 -20
c-24.667 0 -53.334 6 -86.001 18l10 23c26.667 -11.333 50.667 -17 72 -17c44 0 66 15 66 45c0 26.667 -17.667 40 -53 40c-10.667 0 -25.667 -3.33301 -45 -10l-14 12l47 58c-60.667 8.66699 -107.834 35 -141.501 79s-50.5 100.667 -50.5 170c0 78 20.333 140.333 61 187
s95.334 70 164.001 70c53.333 0 97.666 -14.5 132.999 -43.5s56.333 -68.167 63 -117.5h-38c-17.333 85.333 -70 128 -158 128c-57.333 0 -102.833 -19.833 -136.5 -59.5s-50.5 -93.167 -50.5 -160.5s16.333 -121.166 49 -161.499s76.334 -60.5 131.001 -60.5
c98 0 154.667 50 170 150z" />
    <glyph glyph-name="egrave" unicode="&#xe8;" horiz-adv-x="510" 
d="M428 164h38.0029c-10 -56.667 -33 -100.5 -69 -131.5s-82 -46.5 -138 -46.5c-64.667 0 -116.834 22.833 -156.501 68.5s-59.5 106.167 -59.5 181.5s20.167 137 60.5 185s92.5 72 156.5 72c66.667 0 118.667 -22.833 156 -68.5s55.666 -109.167 54.999 -190.5h-389
c1.33301 -67.333 17.666 -120 48.999 -158s75 -57 131 -57c44 0 80.333 12.667 109 38s47.667 61 57 107zM83.0029 267h349c-2.66699 60 -19.167 107.167 -49.5 141.5s-70.833 51.5 -121.5 51.5c-51.333 0 -92.333 -16.667 -123 -50s-49 -81 -55 -143zM189.003 687l113 -132
h-35l-127 132h49z" />
    <glyph glyph-name="eacute" unicode="&#xe9;" horiz-adv-x="510" 
d="M428 164h38.0029c-10 -56.667 -33 -100.5 -69 -131.5s-82 -46.5 -138 -46.5c-64.667 0 -116.834 22.833 -156.501 68.5s-59.5 106.167 -59.5 181.5s20.167 137 60.5 185s92.5 72 156.5 72c66.667 0 118.667 -22.833 156 -68.5s55.666 -109.167 54.999 -190.5h-389
c1.33301 -67.333 17.666 -120 48.999 -158s75 -57 131 -57c44 0 80.333 12.667 109 38s47.667 61 57 107zM83.0029 267h349c-2.66699 60 -19.167 107.167 -49.5 141.5s-70.833 51.5 -121.5 51.5c-51.333 0 -92.333 -16.667 -123 -50s-49 -81 -55 -143zM373.003 687
l-123 -132h-34l110 132h47z" />
    <glyph glyph-name="ecircumflex" unicode="&#xea;" horiz-adv-x="510" 
d="M428 164h38.0029c-10 -56.667 -33 -100.5 -69 -131.5s-82 -46.5 -138 -46.5c-64.667 0 -116.834 22.833 -156.501 68.5s-59.5 106.167 -59.5 181.5s20.167 137 60.5 185s92.5 72 156.5 72c66.667 0 118.667 -22.833 156 -68.5s55.666 -109.167 54.999 -190.5h-389
c1.33301 -67.333 17.666 -120 48.999 -158s75 -57 131 -57c44 0 80.333 12.667 109 38s47.667 61 57 107zM83.0029 267h349c-2.66699 60 -19.167 107.167 -49.5 141.5s-70.833 51.5 -121.5 51.5c-51.333 0 -92.333 -16.667 -123 -50s-49 -81 -55 -143zM390.003 555h-40
l-90 108l-90 -108h-37l109 132h39z" />
    <glyph glyph-name="edieresis" unicode="&#xeb;" horiz-adv-x="510" 
d="M428 164h38.0029c-10 -56.667 -33 -100.5 -69 -131.5s-82 -46.5 -138 -46.5c-64.667 0 -116.834 22.833 -156.501 68.5s-59.5 106.167 -59.5 181.5s20.167 137 60.5 185s92.5 72 156.5 72c66.667 0 118.667 -22.833 156 -68.5s55.666 -109.167 54.999 -190.5h-389
c1.33301 -67.333 17.666 -120 48.999 -158s75 -57 131 -57c44 0 80.333 12.667 109 38s47.667 61 57 107zM83.0029 267h349c-2.66699 60 -19.167 107.167 -49.5 141.5s-70.833 51.5 -121.5 51.5c-51.333 0 -92.333 -16.667 -123 -50s-49 -81 -55 -143zM363.003 668v-96h-39
v96h39zM199.003 668v-96h-39v96h39z" />
    <glyph glyph-name="igrave" unicode="&#xec;" horiz-adv-x="192" 
d="M115 479v-479h-38v479h38zM27 687l103 -132h-35l-117 132h49z" />
    <glyph glyph-name="iacute" unicode="&#xed;" horiz-adv-x="192" 
d="M116 479v-479h-38v479h38zM211 687l-113 -132h-34l100 132h47z" />
    <glyph glyph-name="icircumflex" unicode="&#xee;" horiz-adv-x="192" 
d="M115 479v-479h-38v479h38zM204 555h-40l-70 108l-70 -108h-37l89 132h39z" />
    <glyph glyph-name="idieresis" unicode="&#xef;" horiz-adv-x="192" 
d="M115 479v-479h-38v479h38zM170 668v-96h-39v96h39zM60 668v-96h-39v96h39z" />
    <glyph glyph-name="eth" unicode="&#xf0;" horiz-adv-x="531" 
d="M208 554l81 36l-46 80l28 14l50 -80l90 38l11 -27l-85 -37l83 -132c44.667 -71.333 67 -140.666 67 -207.999c0 -78.667 -19.833 -140.334 -59.5 -185.001s-94.167 -67 -163.5 -67c-66.667 0 -120.167 23.167 -160.5 69.5s-60.5 107.5 -60.5 183.5
c0 75.333 20.333 136.5 61 183.5s93.667 70.5 159 70.5c29.333 0 60 -5.33301 92 -16l-50 87l-84 -36zM266 460c-54.667 0 -99 -20.167 -133 -60.5s-51 -92.5 -51 -156.5c0 -68.667 16.5 -123.167 49.5 -163.5s77.833 -60.5 134.5 -60.5
c55.333 0 99.666 19.833 132.999 59.5s50 92.5 50 158.5c0 67.333 -16.667 121.333 -50 162s-77.666 61 -132.999 61z" />
    <glyph glyph-name="ntilde" unicode="&#xf1;" horiz-adv-x="533" 
d="M116 479l-0.000976562 -104c32.667 78.667 90.334 118 173.001 118c73.333 0 124.333 -27 153 -81c12 -22.667 18 -58 18 -106v-306h-38v297c0 43.333 -5 75.333 -15 96c-21.333 44.667 -63.333 67 -126 67s-108.667 -26 -138 -78c-17.333 -30.667 -26 -75 -26 -133v-249
h-39v479h38zM361.999 659h27.0029c-2.66699 -24 -9.83398 -43.5 -21.501 -58.5s-25.834 -22.5 -42.501 -22.5c-16 0 -35 7.33301 -57 22c-28 18.667 -47 28 -57 28c-22.667 0 -36 -17 -40 -51h-27c7.33301 54.667 30 82 68 82c16 0 35 -7.66699 57 -23
c26 -18 43.667 -27 53 -27c21.333 0 34.666 16.667 39.999 50z" />
    <glyph glyph-name="ograve" unicode="&#xf2;" horiz-adv-x="531" 
d="M265 493c67.333 0 121.167 -23.167 161.5 -69.5s60.5 -108.5 60.5 -186.5c0 -76.667 -20 -137.667 -60 -183s-93.667 -68 -161 -68c-68.667 0 -123 23 -163 69s-60 108.333 -60 187c0 74.667 20.5 135.167 61.5 181.5s94.5 69.5 160.5 69.5zM265.001 460
c-54.667 0 -98.999 -20.167 -132.999 -60.5s-51 -92.5 -51 -156.5c0 -69.333 16.667 -124 50 -164s78.333 -60 135 -60c55.333 0 99.666 19.833 132.999 59.5s50 92.5 50 158.5c0 67.333 -16.667 121.333 -50 162s-78 61 -134 61zM196.002 687l113 -132h-35l-127 132h49z
" />
    <glyph glyph-name="oacute" unicode="&#xf3;" horiz-adv-x="531" 
d="M265 493c67.333 0 121.167 -23.167 161.5 -69.5s60.5 -108.5 60.5 -186.5c0 -76.667 -20 -137.667 -60 -183s-93.667 -68 -161 -68c-68.667 0 -123 23 -163 69s-60 108.333 -60 187c0 74.667 20.5 135.167 61.5 181.5s94.5 69.5 160.5 69.5zM265.001 460
c-54.667 0 -98.999 -20.167 -132.999 -60.5s-51 -92.5 -51 -156.5c0 -69.333 16.667 -124 50 -164s78.333 -60 135 -60c55.333 0 99.666 19.833 132.999 59.5s50 92.5 50 158.5c0 67.333 -16.667 121.333 -50 162s-78 61 -134 61zM383.002 687l-123 -132h-34l110 132h47z
" />
    <glyph glyph-name="ocircumflex" unicode="&#xf4;" horiz-adv-x="531" 
d="M265 493c67.333 0 121.167 -23.167 161.5 -69.5s60.5 -108.5 60.5 -186.5c0 -76.667 -20 -137.667 -60 -183s-93.667 -68 -161 -68c-68.667 0 -123 23 -163 69s-60 108.333 -60 187c0 74.667 20.5 135.167 61.5 181.5s94.5 69.5 160.5 69.5zM265.001 460
c-54.667 0 -98.999 -20.167 -132.999 -60.5s-51 -92.5 -51 -156.5c0 -69.333 16.667 -124 50 -164s78.333 -60 135 -60c55.333 0 99.666 19.833 132.999 59.5s50 92.5 50 158.5c0 67.333 -16.667 121.333 -50 162s-78 61 -134 61zM393.002 555h-40l-90 108l-90 -108h-37
l109 132h39z" />
    <glyph glyph-name="otilde" unicode="&#xf5;" horiz-adv-x="531" 
d="M265 493c67.333 0 121.167 -23.167 161.5 -69.5s60.5 -108.5 60.5 -186.5c0 -76.667 -20 -137.667 -60 -183s-93.667 -68 -161 -68c-68.667 0 -123 23 -163 69s-60 108.333 -60 187c0 74.667 20.5 135.167 61.5 181.5s94.5 69.5 160.5 69.5zM265.001 460
c-54.667 0 -98.999 -20.167 -132.999 -60.5s-51 -92.5 -51 -156.5c0 -69.333 16.667 -124 50 -164s78.333 -60 135 -60c55.333 0 99.666 19.833 132.999 59.5s50 92.5 50 158.5c0 67.333 -16.667 121.333 -50 162s-78 61 -134 61zM367.002 659h27.0029
c-2.66699 -24 -9.83398 -43.5 -21.501 -58.5s-25.834 -22.5 -42.501 -22.5c-16 0 -35 7.33301 -57 22c-28 18.667 -47 28 -57 28c-22.667 0 -36 -17 -40 -51h-27c7.33301 54.667 30 82 68 82c16 0 35 -7.66699 57 -23c26 -18 43.667 -27 53 -27
c21.333 0 34.666 16.667 39.999 50z" />
    <glyph glyph-name="odieresis" unicode="&#xf6;" horiz-adv-x="531" 
d="M265 493c67.333 0 121.167 -23.167 161.5 -69.5s60.5 -108.5 60.5 -186.5c0 -76.667 -20 -137.667 -60 -183s-93.667 -68 -161 -68c-68.667 0 -123 23 -163 69s-60 108.333 -60 187c0 74.667 20.5 135.167 61.5 181.5s94.5 69.5 160.5 69.5zM265.001 460
c-54.667 0 -98.999 -20.167 -132.999 -60.5s-51 -92.5 -51 -156.5c0 -69.333 16.667 -124 50 -164s78.333 -60 135 -60c55.333 0 99.666 19.833 132.999 59.5s50 92.5 50 158.5c0 67.333 -16.667 121.333 -50 162s-78 61 -134 61zM366.002 668v-96h-39v96h39zM202.002 668
v-96h-39v96h39z" />
    <glyph glyph-name="divide" unicode="&#xf7;" horiz-adv-x="549" 
d="M273 120c17.333 0 32 -6 44 -18s18 -26.667 18 -44c0 -16.667 -6 -31.167 -18 -43.5s-26.667 -18.5 -44 -18.5c-16.667 0 -31.167 6.16699 -43.5 18.5s-18.5 26.833 -18.5 43.5c0 17.333 6.16699 32 18.5 44s26.833 18 43.5 18zM273 519c17.333 0 32 -6 44 -18
s18 -26.667 18 -44c0 -16.667 -6 -31.167 -18 -43.5s-26.667 -18.5 -44 -18.5c-16.667 0 -31.167 6.16699 -43.5 18.5s-18.5 26.833 -18.5 43.5c0 17.333 6.16699 32 18.5 44s26.833 18 43.5 18zM10 288h526v-55h-526v55z" />
    <glyph glyph-name="oslash" unicode="&#xf8;" horiz-adv-x="531" 
d="M490 458l-49.999 -53c31.333 -44 47 -99 47 -165c0 -78.667 -19.667 -140.667 -59 -186s-93 -68 -161 -68c-64.667 0 -118.334 22.667 -161.001 68l-51 -54l-18 18l55 57c-32.667 45.333 -49 100.333 -49 165c0 75.333 20.5 136.333 61.5 183s94.5 70 160.5 70
c63.333 0 116.333 -22.333 159 -67l49 50zM117.001 101l283 299c-40 40 -83.667 60 -131 60c-57.333 0 -103 -19.833 -137 -59.5s-51 -93.5 -51 -161.5c0 -51.333 12 -97.333 36 -138zM414.001 379l-282 -299c27.333 -40.667 72.333 -61 135 -61c57.333 0 102 19.5 134 58.5
s48 93.167 48 162.5c0 54 -11.667 100.333 -35 139z" />
    <glyph glyph-name="ugrave" unicode="&#xf9;" horiz-adv-x="529" 
d="M452 479l-0.000976562 -479h-37v101c-33.333 -76.667 -89.666 -115 -168.999 -115c-114.667 0 -172 61.333 -172 184v309h38v-286c0 -47.333 5.33301 -82.666 16 -105.999c21.333 -46 62.333 -69 123 -69c49.333 0 88.833 18.167 118.5 54.5s44.5 85.166 44.5 146.499
v260h38zM194.999 687l113 -132h-35l-127 132h49z" />
    <glyph glyph-name="uacute" unicode="&#xfa;" horiz-adv-x="529" 
d="M452 479l-0.000976562 -479h-37v101c-33.333 -76.667 -89.666 -115 -168.999 -115c-114.667 0 -172 61.333 -172 184v309h38v-286c0 -47.333 5.33301 -82.666 16 -105.999c21.333 -46 62.333 -69 123 -69c49.333 0 88.833 18.167 118.5 54.5s44.5 85.166 44.5 146.499
v260h38zM381.999 687l-123 -132h-34l110 132h47z" />
    <glyph glyph-name="ucircumflex" unicode="&#xfb;" horiz-adv-x="529" 
d="M452 479l-0.000976562 -479h-37v101c-33.333 -76.667 -89.666 -115 -168.999 -115c-114.667 0 -172 61.333 -172 184v309h38v-286c0 -47.333 5.33301 -82.666 16 -105.999c21.333 -46 62.333 -69 123 -69c49.333 0 88.833 18.167 118.5 54.5s44.5 85.166 44.5 146.499
v260h38zM391.999 555h-40l-90 108l-90 -108h-37l109 132h39z" />
    <glyph glyph-name="udieresis" unicode="&#xfc;" horiz-adv-x="529" 
d="M452 479l-0.000976562 -479h-37v101c-33.333 -76.667 -89.666 -115 -168.999 -115c-114.667 0 -172 61.333 -172 184v309h38v-286c0 -47.333 5.33301 -82.666 16 -105.999c21.333 -46 62.333 -69 123 -69c49.333 0 88.833 18.167 118.5 54.5s44.5 85.166 44.5 146.499
v260h38zM364.999 668v-96h-39v96h39zM200.999 668v-96h-39v96h39z" />
    <glyph glyph-name="thorn" unicode="&#xfe;" horiz-adv-x="550" 
d="M117 667l0.000976562 -301.002c30.667 84.667 90.667 127 180 127c62.667 0 113.5 -23.167 152.5 -69.5s58.5 -107.166 58.5 -182.499c0 -77.333 -19.333 -139.166 -58 -185.499s-90.334 -69.5 -155.001 -69.5c-92.667 0 -152 41.333 -178 124v-283h-39v840h39z
M292.001 459.998c-54.667 0 -97.667 -19.6689 -129 -59.002s-47 -93.666 -47 -162.999c0 -67.333 15.667 -120.666 47 -159.999s74.333 -59 129 -59s98 19.833 130 59.5s48 93.5 48 161.5c0 66.667 -16.167 120 -48.5 160s-75.5 60 -129.5 60z" />
    <glyph glyph-name="ydieresis" unicode="&#xff;" horiz-adv-x="436" 
d="M432 479l-205.999 -528.999c-19.333 -50 -37.833 -83.167 -55.5 -99.5s-43.167 -23.833 -76.5 -22.5l-22 1h-14v34c10 -1.33301 20.333 -2 31 -2c41.333 0 70.333 20.667 87 62c10.667 26 17 41 19 45c10.667 18.667 15 30.667 13 36l-203 475h43l158 -376
c1.33301 -2.66699 8.66602 -22.334 21.999 -59.001l22 64l142 371h40zM320.001 668.001v-96h-39v96h39zM156.001 668.001v-96h-39v96h39z" />
    <glyph glyph-name="Gbreve" unicode="&#x11e;" horiz-adv-x="720" 
d="M653 326l0.00195312 -325.997h-30l-4 162c-18.667 -56.667 -50.334 -100.334 -95.001 -131.001s-98.667 -46 -162 -46c-94 0 -169.833 31.667 -227.5 95s-86.5 146.666 -86.5 249.999c0 104 29.167 188.667 87.5 254s134.166 98 227.499 98
c72.667 0 134.5 -20.167 185.5 -60.5s82.167 -93.833 93.5 -160.5h-39c-11.333 55.333 -39 100.166 -83 134.499s-96 51.5 -156 51.5c-82.667 0 -149.167 -29 -199.5 -87s-75.5 -134.667 -75.5 -230c0 -94 25 -169.167 75 -225.5s116.667 -84.5 200 -84.5
c76 0 137.167 24 183.5 72s69.5 111 69.5 189v10h-246v35h282zM452.002 862.003h28.001c-12.667 -73.333 -53.334 -110 -122.001 -110c-32.667 0 -59.667 10 -81 30s-33.666 46.667 -36.999 80h28c11.333 -52.667 42.333 -79 93 -79c49.333 0 79.666 26.333 90.999 79z" />
    <glyph glyph-name="gbreve" unicode="&#x11f;" horiz-adv-x="542" 
d="M464 479v-440.001c0 -77.333 -16.667 -133.666 -50 -168.999s-86.333 -53 -159 -53c-119.333 0 -182.666 49.333 -189.999 148h38c10 -76.667 61 -115 153 -115c59.333 0 102.5 14.833 129.5 44.5s40.5 77.5 40.5 143.5v100c-34.667 -80.667 -94.667 -121 -180 -121
c-61.333 0 -110.5 21 -147.5 63s-55.5 98.333 -55.5 169c0 73.333 19.167 132.333 57.5 177s89.166 67 152.499 67c86.667 0 144.667 -41.333 174 -124v110h37zM253 459.999c-51.333 0 -92.832 -18.668 -124.499 -56.001s-47.5 -86.666 -47.5 -147.999
c0 -63.333 15.167 -113.5 45.5 -150.5s71.166 -55.5 122.499 -55.5c53.333 0 96 18.5 128 55.5s48 86.5 48 148.5c0 62.667 -15.5 112.667 -46.5 150s-72.833 56 -125.5 56zM363.001 673.998h28.001c-12.667 -73.333 -53.334 -110 -122.001 -110
c-32.667 0 -59.667 10 -81 30s-33.666 46.667 -36.999 80h28c11.333 -52.667 42.333 -79 93 -79c49.333 0 79.666 26.333 90.999 79z" />
    <glyph glyph-name="Idotaccent" unicode="&#x130;" horiz-adv-x="208" 
d="M125 667v-667h-41v667h41zM126 856v-96h-39v96h39z" />
    <glyph glyph-name="dotlessi" unicode="&#x131;" horiz-adv-x="192" 
d="M116 479v-479h-38v479h38z" />
    <glyph glyph-name="Lslash" unicode="&#x141;" horiz-adv-x="520" 
d="M84 339v328h41v-305l143 108v-40l-143 -108v-287h381v-35h-422v298l-73 -55v40z" />
    <glyph glyph-name="lslash" unicode="&#x142;" horiz-adv-x="192" 
d="M77 380v287h39v-263l66 50v-39l-66 -50v-365h-39v341l-67 -50v39z" />
    <glyph glyph-name="OE" unicode="&#x152;" horiz-adv-x="1034" 
d="M993 667v-35h-396v-267h356v-35h-356v-295h398v-35h-437v67c-54.667 -54.667 -122 -82 -202 -82c-90 0 -164 32.5 -222 97.5s-87 148.167 -87 249.5c0 102.667 29.667 186.667 89 252s135.333 98 228 98c76 0 140.667 -24.667 194 -74v59h435zM556 124
l0.00195312 423.999c0 15.333 -17.333 35 -52 59c-38.667 26.667 -84.334 40 -137.001 40c-82.667 0 -149.834 -29.167 -201.501 -87.5s-77.5 -134.166 -77.5 -227.499c0 -92 25.167 -167 75.5 -225s115.5 -87 195.5 -87c64.667 0 118.667 18.667 162 56
c23.333 20 35 36 35 48z" />
    <glyph glyph-name="oe" unicode="&#x153;" horiz-adv-x="859" 
d="M779 158h37c-28.667 -114.667 -97.667 -172 -207 -172c-94.667 0 -154 48 -178 144c-26 -96 -86 -144 -180 -144c-64 0 -114.667 22.5 -152 67.5s-56 106.167 -56 183.5c0 78.667 18.833 141 56.5 187s89.167 69 154.5 69c90 0 149.333 -47.333 178 -142
c30 94.667 91.333 142 184 142c66 0 116.5 -22.333 151.5 -67s52.5 -108.667 52.5 -192h-371v-24c0 -57.333 15.333 -103.5 46 -138.5s71 -52.5 121 -52.5c84 0 138.333 46.333 163 139zM448 267h334c-2.66699 55.333 -13.667 97 -33 125c-31.333 45.333 -76 68 -134 68
c-105.333 0 -161 -64.333 -167 -193zM253 460c-54.667 0 -97 -19.667 -127 -59s-45 -94.333 -45 -165c0 -68 15.167 -121.167 45.5 -159.5s72.166 -57.5 125.499 -57.5c51.333 0 91.333 19.333 120 58s43 93.334 43 164.001c0 69.333 -14.167 123.166 -42.5 161.499
s-68.166 57.5 -119.499 57.5z" />
    <glyph glyph-name="Scedilla" unicode="&#x15e;" horiz-adv-x="588" 
d="M526 477l-40 0.00195312c-8.66699 112.667 -78.667 169 -210 169c-58 0 -103.667 -12.333 -137 -37s-50 -58.334 -50 -101.001c0 -52 25.333 -88.667 76 -110c20.667 -8.66699 47.334 -17 80.001 -25c4.66699 -0.666992 20 -4 46 -10l16 -4l17 -4
c75.333 -18 126.333 -35 153 -51c44 -26.667 66 -70.334 66 -131.001c0 -58 -22.667 -103.667 -68 -137c-41.333 -30.667 -96.666 -47 -165.999 -49l-31 -40c16 2.66699 28.333 4 37 4c20.667 0 37.667 -5.5 51 -16.5s20 -24.833 20 -41.5c0 -22.667 -9 -40.667 -27 -54
s-42 -20 -72 -20c-24.667 0 -53.334 6 -86.001 18l10 23c26.667 -11.333 50.667 -17 72 -17c44 0 66 15 66 45c0 26.667 -17.667 40 -53 40c-10.667 0 -25.667 -3.33301 -45 -10l-13 12l45 56c-81.333 1.33301 -143.666 21.333 -186.999 60
c-44.667 40 -67.334 98.333 -68.001 175h39c1.33301 -64.667 21 -114.167 59 -148.5s92.333 -51.5 163 -51.5c67.333 0 119.666 13.167 156.999 39.5s56 63.833 56 112.5c0 50 -22.667 86 -68 108c-26 12.667 -77.667 27.667 -155 45c-84 19.333 -140.667 38.333 -170 57
c-40.667 26 -61 66.667 -61 122c0 54.667 20.5 97.667 61.5 129s97.167 47 168.5 47c157.333 0 240 -68 248 -204z" />
    <glyph glyph-name="scedilla" unicode="&#x15f;" horiz-adv-x="449" 
d="M396 340l-39 -0.000976562c-6.66699 80 -54.667 120 -144 120c-42.667 0 -75.667 -8.33301 -99 -25s-35 -39.667 -35 -69c0 -27.333 9.5 -47.333 28.5 -60s60.5 -26.334 124.5 -41.001c58 -13.333 99 -26.666 123 -39.999c37.333 -21.333 56 -55 56 -101
c0 -41.333 -18 -74.666 -54 -99.999c-30.667 -22 -69.667 -34.333 -117 -37l-31 -40c16 2.66699 28.333 4 37 4c20.667 0 37.667 -5.5 51 -16.5s20 -24.833 20 -41.5c0 -22.667 -9 -40.667 -27 -54s-42 -20 -72 -20c-24.667 0 -53.334 6 -86.001 18l10 23
c26.667 -11.333 50.667 -17 72 -17c44 0 66 15 66 45c0 26.667 -17.667 40 -53 40c-10.667 0 -25.667 -3.33301 -45 -10l-13 12l45 56c-58.667 0.666992 -104.667 15.667 -138 45c-33.333 30.667 -50.333 74 -51 130h38c4 -94.667 56.667 -142 158 -142
c46 0 82.833 9.66699 110.5 29s41.5 45.333 41.5 78c0 26.667 -10.333 47.334 -31 62.001s-60 28.667 -118 42c-66 15.333 -109.333 28.666 -130 39.999c-35.333 19.333 -53 50 -53 92c0 41.333 15.5 73.5 46.5 96.5s74.167 34.5 129.5 34.5
c112.667 0 172.334 -51 179.001 -153z" />
    <glyph glyph-name="Scaron" unicode="&#x160;" horiz-adv-x="588" 
d="M526 477l-39.998 0.00195312c-8.66699 112.667 -78.667 169 -210 169c-58 0 -103.667 -12.333 -137 -37s-50 -58.334 -50 -101.001c0 -52 25.333 -88.667 76 -110c20.667 -8.66699 47.334 -17 80.001 -25c4.66699 -0.666992 20 -4 46 -10l16 -4l17 -4
c75.333 -18 126.333 -35 153 -51c44 -26.667 66 -70.334 66 -131.001c0 -58 -22.5 -103.667 -67.5 -137s-106.833 -50 -185.5 -50c-84.667 0 -149.334 20 -194.001 60s-67.334 98.333 -68.001 175h39c1.33301 -64.667 21 -114.167 59 -148.5s92.333 -51.5 163 -51.5
c67.333 0 119.666 13.167 156.999 39.5s56 63.833 56 112.5c0 50 -22.667 86 -68 108c-26 12.667 -77.667 27.667 -155 45c-84 19.333 -140.667 38.333 -170 57c-40.667 26 -61 66.667 -61 122c0 54.667 20.5 97.667 61.5 129s97.167 47 168.5 47
c157.333 0 240 -68 248 -204zM136.002 848.002h42l104 -101l104 101h39l-124 -125h-41z" />
    <glyph glyph-name="scaron" unicode="&#x161;" horiz-adv-x="449" 
d="M396 340l-38.999 -0.000976562c-6.66699 80 -54.667 120 -144 120c-42.667 0 -75.667 -8.33301 -99 -25s-35 -39.667 -35 -69c0 -27.333 9.5 -47.333 28.5 -60s60.5 -26.334 124.5 -41.001c58 -13.333 99 -26.666 123 -39.999c37.333 -21.333 56 -55 56 -101
c0 -41.333 -17.833 -74.666 -53.5 -99.999s-82.167 -38 -139.5 -38c-60.667 0 -107.834 15.167 -141.501 45.5s-50.834 73.5 -51.501 129.5h38c4 -94.667 56.667 -142 158 -142c46 0 82.833 9.66699 110.5 29s41.5 45.333 41.5 78c0 26.667 -10.333 47.334 -31 62.001
s-60 28.667 -118 42c-66 15.333 -109.333 28.666 -130 39.999c-35.333 19.333 -53 50 -53 92c0 41.333 15.5 73.5 46.5 96.5s74.167 34.5 129.5 34.5c112.667 0 172.334 -51 179.001 -153zM86.001 686.999h41l89 -108l90 108h37l-109 -132h-39z" />
    <glyph glyph-name="Ydieresis" unicode="&#x178;" horiz-adv-x="573" 
d="M578 667l-270 -389v-278h-41v278l-269 389h49l212 -307l30 -47c0.666992 2 4.66699 8.66699 12 20c4.66699 6.66699 10 15 16 25l214 309h47zM404 833v-94h-41v94h41zM211 833v-94h-41v94h41z" />
    <glyph glyph-name="Zcaron" unicode="&#x17d;" horiz-adv-x="561" 
d="M528 667l0.000976562 -39l-426 -558l-28 -36l70 1h393v-35h-507v40l429 560c5.33301 6.66699 13.666 17.667 24.999 33c-24 -0.666992 -43.667 -1 -59 -1h-366v35h469zM150.001 848h42l104 -101l104 101h39l-124 -125h-41z" />
    <glyph glyph-name="zcaron" unicode="&#x17e;" horiz-adv-x="415" 
d="M390 479v-32l-297 -381c-2 -2 -11 -13 -27 -33h339v-33h-382v36l295 377c2 2.66699 11 13.667 27 33h-298v33h343zM92 687h41l89 -108l90 108h37l-109 -132h-39z" />
    <glyph glyph-name="uni018F" unicode="&#x18f;" horiz-adv-x="681" 
d="M25 352h593c-4 84 -29.667 153 -77 207c-51.333 59.333 -117.666 89 -198.999 89c-80.667 0 -147 -28.667 -199 -86c-24.667 -27.333 -43.334 -58.666 -56.001 -93.999h-42c14 44.667 36.333 84 67 118c58.667 64.667 135 97 229 97s170.333 -32.667 229 -98
c55.333 -60.667 85 -138.334 89 -233.001v-22v-13c-2.66699 -96.667 -32 -175.334 -88 -236.001c-58 -63.333 -134.333 -95 -229 -95c-95.333 0 -172 31.667 -230 95c-54.667 60.667 -83.667 139.334 -87 236.001v17v18zM67 317c4 -86 28.666 -155.667 73.999 -209
c50 -58 117 -87 201 -87c82 0 148.333 28.667 199 86c48.667 54.667 74.334 124.667 77.001 210h-551z" />
    <glyph glyph-name="uni018F" unicode="&#x4d8;" horiz-adv-x="681" 
d="M25 352h593c-4 84 -29.667 153 -77 207c-51.333 59.333 -117.666 89 -198.999 89c-80.667 0 -147 -28.667 -199 -86c-24.667 -27.333 -43.334 -58.666 -56.001 -93.999h-42c14 44.667 36.333 84 67 118c58.667 64.667 135 97 229 97s170.333 -32.667 229 -98
c55.333 -60.667 85 -138.334 89 -233.001v-22v-13c-2.66699 -96.667 -32 -175.334 -88 -236.001c-58 -63.333 -134.333 -95 -229 -95c-95.333 0 -172 31.667 -230 95c-54.667 60.667 -83.667 139.334 -87 236.001v17v18zM67 317c4 -86 28.666 -155.667 73.999 -209
c50 -58 117 -87 201 -87c82 0 148.333 28.667 199 86c48.667 54.667 74.334 124.667 77.001 210h-551z" />
    <glyph glyph-name="florin" unicode="&#x192;" 
d="M437 455l-5 -31.002h-112l-73 -414c-12 -67.333 -28.5 -114.666 -49.5 -141.999s-51.5 -41 -91.5 -41c-16 0 -32.333 1.66699 -49 5l6 34c16.667 -2.66699 30 -4 40 -4c30.667 0 53.334 11.5 68.001 34.5s28 67.833 40 134.5l69 393h-103l6 31h102l19 105
c10.667 60.667 26.5 102.834 47.5 126.501s52.833 35.5 95.5 35.5c12.667 0 31.334 -1.66699 56.001 -5l-6 -34c-20 4 -36.333 6 -49 6c-30.667 0 -53.334 -8.83301 -68.001 -26.5s-26.334 -50.5 -35.001 -98.5l-20 -109h112z" />
    <glyph glyph-name="uni0259" unicode="&#x259;" horiz-adv-x="510" 
d="M91 316h-38.0029c10 56.667 33 100.5 69 131.5s82 46.5 138 46.5c64.667 0 116.834 -22.833 156.501 -68.5s59.5 -106.167 59.5 -181.5s-20.167 -137 -60.5 -185s-92.5 -72 -156.5 -72c-66.667 0 -118.667 22.833 -156 68.5s-55.666 109.167 -54.999 190.5h389
c-1.33301 67.333 -17.666 120 -48.999 158s-75 57 -131 57c-44 0 -80.333 -12.667 -109 -38s-47.667 -61 -57 -107zM435.997 213h-349c2.66699 -60 19.167 -107.167 49.5 -141.5s70.833 -51.5 121.5 -51.5c51.333 0 92.333 16.667 123 50s49 81 55 143z" />
    <glyph glyph-name="uni0259" unicode="&#x4d9;" horiz-adv-x="510" 
d="M91 316h-38.0029c10 56.667 33 100.5 69 131.5s82 46.5 138 46.5c64.667 0 116.834 -22.833 156.501 -68.5s59.5 -106.167 59.5 -181.5s-20.167 -137 -60.5 -185s-92.5 -72 -156.5 -72c-66.667 0 -118.667 22.833 -156 68.5s-55.666 109.167 -54.999 190.5h389
c-1.33301 67.333 -17.666 120 -48.999 158s-75 57 -131 57c-44 0 -80.333 -12.667 -109 -38s-47.667 -61 -57 -107zM435.997 213h-349c2.66699 -60 19.167 -107.167 49.5 -141.5s70.833 -51.5 121.5 -51.5c51.333 0 92.333 16.667 123 50s49 81 55 143z" />
    <glyph glyph-name="circumflex" unicode="&#x2c6;" horiz-adv-x="500" 
d="M378 555h-40l-90 108l-90 -108h-37l109 132h39z" />
    <glyph glyph-name="caron" unicode="&#x2c7;" horiz-adv-x="500" 
d="M121 687h41l89 -108l90 108h37l-109 -132h-39z" />
    <glyph glyph-name="breve" unicode="&#x2d8;" horiz-adv-x="500" 
d="M342 674h28.001c-12.667 -73.333 -53.334 -110 -122.001 -110c-32.667 0 -59.667 10 -81 30s-33.666 46.667 -36.999 80h28c11.333 -52.667 42.333 -79 93 -79c49.333 0 79.666 26.333 90.999 79z" />
    <glyph glyph-name="dotaccent" unicode="&#x2d9;" horiz-adv-x="500" 
d="M269 668v-96h-39v96h39z" />
    <glyph glyph-name="ring" unicode="&#x2da;" horiz-adv-x="500" 
d="M251 713c23.333 0 43.166 -8.33301 59.499 -25s24.5 -37 24.5 -61c0 -23.333 -8.16699 -43.333 -24.5 -60s-36.166 -25 -59.499 -25c-24 0 -44.333 8.33301 -61 25s-25 37 -25 61c0 23.333 8.33301 43.333 25 60s37 25 61 25zM250 689c-16.667 0 -31 -6.16699 -43 -18.5
s-18 -27.166 -18 -44.499c0 -16.667 6 -30.834 18 -42.501s26.667 -17.5 44 -17.5c16.667 0 31 6 43 18s18 26.333 18 43c0 17.333 -6 32 -18 44s-26.667 18 -44 18z" />
    <glyph glyph-name="ogonek" unicode="&#x2db;" horiz-adv-x="500" 
d="M288 0h35c-36.667 -28 -55 -55.333 -55 -82c0 -16.667 6.33301 -30.167 19 -40.5s29.667 -15.5 51 -15.5c13.333 0 28.333 3.33301 45 10v-29c-19.333 -6.66699 -37 -10 -53 -10c-28.667 0 -51.667 7.16699 -69 21.5s-26 33.166 -26 56.499
c0 30.667 17.667 60.334 53 89.001z" />
    <glyph glyph-name="tilde" unicode="&#x2dc;" horiz-adv-x="500" 
d="M346 659h27.0029c-2.66699 -24 -9.83398 -43.5 -21.501 -58.5s-25.834 -22.5 -42.501 -22.5c-16 0 -35 7.33301 -57 22c-28 18.667 -47 28 -57 28c-22.667 0 -36 -17 -40 -51h-27c7.33301 54.667 30 82 68 82c16 0 35 -7.66699 57 -23c26 -18 43.667 -27 53 -27
c21.333 0 34.666 16.667 39.999 50z" />
    <glyph glyph-name="hungarumlaut" unicode="&#x2dd;" horiz-adv-x="500" 
d="M404 687l-90 -132h-29l77 132h42zM291 687l-90 -132h-29l77 132h42z" />
    <glyph glyph-name="Omega" unicode="&#x3a9;" horiz-adv-x="768" 
d="M326 0h-292v153h24c6.66699 -42 29.667 -63 69 -63h146l-3 38c-64.667 22.667 -114.5 56.167 -149.5 100.5s-52.5 95.5 -52.5 153.5c0 82.667 31.333 154 94 214s137 90 223 90s160.333 -30 223 -90s94 -131.333 94 -214c0 -58 -17.5 -109.167 -52.5 -153.5
s-84.833 -77.833 -149.5 -100.5l-3 -38h146c39.333 0 62.333 21 69 63h24v-153h-292l18 155c38.667 22 69.667 53.5 93 94.5s35 85.167 35 132.5c0 72.667 -19.833 134.167 -59.5 184.5s-88.167 75.5 -145.5 75.5s-105.833 -25.167 -145.5 -75.5
s-59.5 -111.833 -59.5 -184.5c0 -47.333 11.667 -91.5 35 -132.5s54.333 -72.5 93 -94.5z" />
    <glyph glyph-name="Omega" unicode="&#x2126;" horiz-adv-x="768" 
d="M326 0h-292v153h24c6.66699 -42 29.667 -63 69 -63h146l-3 38c-64.667 22.667 -114.5 56.167 -149.5 100.5s-52.5 95.5 -52.5 153.5c0 82.667 31.333 154 94 214s137 90 223 90s160.333 -30 223 -90s94 -131.333 94 -214c0 -58 -17.5 -109.167 -52.5 -153.5
s-84.833 -77.833 -149.5 -100.5l-3 -38h146c39.333 0 62.333 21 69 63h24v-153h-292l18 155c38.667 22 69.667 53.5 93 94.5s35 85.167 35 132.5c0 72.667 -19.833 134.167 -59.5 184.5s-88.167 75.5 -145.5 75.5s-105.833 -25.167 -145.5 -75.5
s-59.5 -111.833 -59.5 -184.5c0 -47.333 11.667 -91.5 35 -132.5s54.333 -72.5 93 -94.5z" />
    <glyph glyph-name="pi" unicode="&#x3c0;" horiz-adv-x="549" 
d="M30 348l-19.999 -0.00195312c14.667 52.667 35 91.667 61 117c15.333 15.333 30.666 25.333 45.999 30c12 3.33301 30.667 5 56 5h350v-89h-126c-8 -62 -12 -135.667 -12 -221c0 -70 21.333 -105 64 -105c32.667 0 51.667 24.333 57 73h24
c-2.66699 -44 -10.334 -77.667 -23.001 -101c-25.333 -46.667 -57.333 -70 -96 -70c-31.333 0 -55.666 16 -72.999 48s-26 77.333 -26 136c0 68 7 148 21 240h-109l-13 -129c-0.666992 -9.33301 -3.33398 -35.666 -8.00098 -78.999c-4.66699 -38.667 -10.667 -83 -18 -133
c-13.333 -55.333 -38 -83 -74 -83c-15.333 0 -28.166 5.33301 -38.499 16s-15.5 24 -15.5 40c0 18.667 13.333 40.334 40 65.001c31.333 29.333 48.333 56.333 51 81l26 222h-46c-24 0 -42 -4 -54 -12s-26.667 -25 -44 -51z" />
    <glyph glyph-name="endash" unicode="&#x2013;" 
d="M490 264v-34h-420v34h420z" />
    <glyph glyph-name="emdash" unicode="&#x2014;" horiz-adv-x="640" 
d="M640 272v-34h-640v34h640z" />
    <glyph glyph-name="quoteleft" unicode="&#x2018;" horiz-adv-x="200" 
d="M77 462v78.999c0 39.333 4.5 69 13.5 89s24.833 35.667 47.5 47v-32c-21.333 -13.333 -32 -42.666 -32 -87.999h18v-95h-47z" />
    <glyph glyph-name="quoteright" unicode="&#x2019;" horiz-adv-x="200" 
d="M124 667v-78.999c0 -39.333 -4.5 -69 -13.5 -89s-24.833 -35.667 -47.5 -47v32c21.333 13.333 32 42.666 32 87.999h-18v95h47z" />
    <glyph glyph-name="quotesinglbase" unicode="&#x201a;" horiz-adv-x="200" 
d="M124 95v-78.999c0 -39.333 -4.5 -69 -13.5 -89s-24.833 -35.667 -47.5 -47v32c21.333 13.333 32 42.666 32 87.999h-18v95h47z" />
    <glyph glyph-name="quotedblleft" unicode="&#x201c;" horiz-adv-x="316" 
d="M193 462v78.999c0 39.333 4.5 69 13.5 89s24.833 35.667 47.5 47v-32c-21.333 -13.333 -32 -42.666 -32 -87.999h18v-95h-47zM77 461.999v78.999c0 39.333 4.5 69 13.5 89s24.833 35.667 47.5 47v-32c-21.333 -13.333 -32 -42.666 -32 -87.999h18v-95h-47z" />
    <glyph glyph-name="quotedblright" unicode="&#x201d;" horiz-adv-x="316" 
d="M124 667v-78.999c0 -39.333 -4.5 -69 -13.5 -89s-24.833 -35.667 -47.5 -47v32c21.333 13.333 32 42.666 32 87.999h-18v95h47zM240 667.001v-78.999c0 -39.333 -4.5 -69 -13.5 -89s-24.833 -35.667 -47.5 -47v32c21.333 13.333 32 42.666 32 87.999h-18v95h47z" />
    <glyph glyph-name="quotedblbase" unicode="&#x201e;" horiz-adv-x="316" 
d="M124 95v-78.999c0 -39.333 -4.5 -69 -13.5 -89s-24.833 -35.667 -47.5 -47v32c21.333 13.333 32 42.666 32 87.999h-18v95h47zM240 95.001v-78.999c0 -39.333 -4.5 -69 -13.5 -89s-24.833 -35.667 -47.5 -47v32c21.333 13.333 32 42.666 32 87.999h-18v95h47z" />
    <glyph glyph-name="dagger" unicode="&#x2020;" 
d="M490 449v-33h-192v-589h-37v589h-192v33h192v218h37v-218h192z" />
    <glyph glyph-name="daggerdbl" unicode="&#x2021;" 
d="M490 471v-33h-191v-382h191v-33h-191v-196h-37v196h-192v33h192v382h-192v33h192v196h37v-196h191z" />
    <glyph glyph-name="bullet" unicode="&#x2022;" horiz-adv-x="667" 
d="M336 477c37.333 0 69.5 -13.5 96.5 -40.5s40.5 -59.5 40.5 -97.5c0 -38.667 -13.5 -71.5 -40.5 -98.5s-59.167 -40.5 -96.5 -40.5c-38.667 0 -71.667 13.5 -99 40.5s-41 59.833 -41 98.5c0 38 13.667 70.5 41 97.5s60.333 40.5 99 40.5z" />
    <glyph glyph-name="ellipsis" unicode="&#x2026;" horiz-adv-x="600" 
d="M124 95v-95h-47v95h47zM324 95v-95h-47v95h47zM524 95v-95h-47v95h47z" />
    <glyph glyph-name="perthousand" unicode="&#x2030;" horiz-adv-x="1048" 
d="M522 306c44.667 0 79.333 -13.833 104 -41.5s37 -66.167 37 -115.5s-12.5 -88 -37.5 -116s-59.833 -42 -104.5 -42c-94 0 -141 53.333 -141 160c0 48 12.667 85.833 38 113.5s60 41.5 104 41.5zM522.999 278c-72.667 0 -109 -44.333 -109 -133
c0 -84.667 35.667 -127 107 -127c34.667 0 61.5 11.5 80.5 34.5s28.5 55.5 28.5 97.5c0 40 -9.5 71.333 -28.5 94s-45.167 34 -78.5 34zM862.999 307c44.667 0 79.332 -13.832 103.999 -41.499s37 -66.834 37 -117.501c0 -48 -12.667 -86.167 -38 -114.5
s-59.666 -42.5 -102.999 -42.5c-45.333 0 -80.5 13.667 -105.5 41s-37.5 66.333 -37.5 117c0 49.333 12.667 88 38 116s60.333 42 105 42zM861.997 279.001c-34 0 -60.667 -11.5 -80 -34.5s-29 -54.833 -29 -95.5c0 -41.333 9.5 -73.5 28.5 -96.5s45.833 -34.5 80.5 -34.5
c33.333 0 59.5 11.5 78.5 34.5s28.5 54.833 28.5 95.5c0 87.333 -35.667 131 -107 131zM185.997 662.001c44 0 78.333 -14 103 -42s37 -67.333 37 -118c0 -48 -13 -86.167 -39 -114.5s-61 -42.5 -105 -42.5c-43.333 0 -77.333 14 -102 42s-37 67.333 -37 118
c0 48.667 12.667 87 38 115s60.333 42 105 42zM185.997 634.001c-34.667 0 -61.667 -11.668 -81 -35.001s-29 -56 -29 -98c0 -40 9.33301 -71.167 28 -93.5s44.667 -33.5 78 -33.5c34.667 0 61.667 11.333 81 34s29 54.334 29 95.001c0 41.333 -9.33301 73.5 -28 96.5
s-44.667 34.5 -78 34.5zM575.997 665l-416 -688h-33l416 688h33z" />
    <glyph glyph-name="trademark" unicode="&#x2122;" horiz-adv-x="802" 
d="M316 667v-27h-138v-353h-31v353h-137v27h306zM732 667v-380.001h-31v283c0 16.667 0.333008 32.334 1 47.001c-2 -5.33301 -4.66699 -12 -8 -20l-138 -310h-28l-138 306c-1.33301 4 -4.33301 11.667 -9 23v-16c0 -5.33301 0.333008 -11.333 1 -18v-12v-283h-31v380h39
l137 -303c0 -0.666992 2 -6 6 -16l9 -22l15 37l136 304h39z" />
    <glyph glyph-name="partialdiff" unicode="&#x2202;" horiz-adv-x="494" 
d="M107 674l-41.001 50.999c50 18.667 93 28 129 28c76.667 0 140.334 -33.333 191.001 -100s76 -150.334 76 -251.001c0 -60.667 -8 -121.667 -24 -183s-36.333 -108.666 -61 -141.999c-42.667 -58 -97 -87 -163 -87c-53.333 0 -98 18.833 -134 56.5
s-54 84.834 -54 141.501c0 58.667 19.5 110.667 58.5 156s83.833 68 134.5 68c26.667 0 50.667 -4.66699 72 -14s48.333 -26.666 81 -51.999c4.66699 38.667 7 73.667 7 105c0 81.333 -14.167 144.166 -42.5 188.499s-68.166 66.5 -119.499 66.5
c-30.667 0 -67.334 -10.667 -110.001 -32zM365.999 311.999c-36.667 36.667 -71.667 55.001 -105 55.001c-40.667 0 -75.5 -20.5 -104.5 -61.5s-43.5 -89.833 -43.5 -146.5c0 -92 30 -138 90 -138c45.333 0 82.666 28.667 111.999 86c14 28 25.333 63 34 105
c12.667 63.333 18.334 96.666 17.001 99.999z" />
    <glyph glyph-name="Delta" unicode="&#x2206;" horiz-adv-x="612" 
d="M6 0l321 688l281 -688h-602zM77 51h402l-189 458z" />
    <glyph glyph-name="product" unicode="&#x220f;" horiz-adv-x="823" 
d="M25 -124l-0.00292969 26h3c34.667 0 59.334 10.333 74.001 31c9.33301 13.333 14 41.666 14 84.999v591c0 43.333 -4.66699 71.666 -14 84.999c-14.667 20.667 -39.334 31 -74.001 31h-3v26h778v-26h-3c-34.667 0 -59.334 -10.333 -74.001 -31
c-9.33301 -13.333 -14 -41.666 -14 -84.999v-591c0 -43.333 4.66699 -71.666 14 -84.999c14.667 -20.667 39.334 -31 74.001 -31h3v-26h-290v26h3c34.667 0 59.334 10.333 74.001 31c9.33301 13.333 14 41.666 14 84.999v576c0 52.667 -6 84.667 -18 96
c-10 9.33301 -29.667 15 -59 17c-8.66699 0.666992 -24.667 1 -48 1h-67c-77.333 0 -123.666 -1.33301 -138.999 -4c-24 -4 -39 -18 -45 -42c-2.66699 -10 -4 -32.667 -4 -68v-576c0 -43.333 4.66699 -71.666 14 -84.999c14.667 -20.667 39.334 -31 74.001 -31h3v-26h-290z
" />
    <glyph glyph-name="summation" unicode="&#x2211;" horiz-adv-x="713" 
d="M176 711l188 -370l-201 -352h328c58 0 98.167 6.16699 120.5 18.5s41.5 38.833 57.5 79.5h26l-54 -210h-627l242 408l-233 467h599l10 -165h-26c-8.66699 50.667 -23.5 84 -44.5 100s-60.167 24 -117.5 24h-268z" />
    <glyph glyph-name="minus" unicode="&#x2212;" 
d="M54 337h452v-32h-452v32z" />
    <glyph glyph-name="radical" unicode="&#x221a;" horiz-adv-x="549" 
d="M363 -35l-242 496l-95 -47l-16 35l146 71l195 -394l127 787l37 -5z" />
    <glyph glyph-name="infinity" unicode="&#x221e;" horiz-adv-x="713" 
d="M357 303c56 74 119.001 111.001 189.001 111.001c41.333 0 75.5 -13.667 102.5 -41s40.5 -62.333 40.5 -105c0 -46 -12.833 -83 -38.5 -111s-59.834 -42 -102.501 -42c-65.333 0 -129 37.333 -191 112l-30 -35c-46 -51.333 -98.667 -77 -158 -77
c-43.333 0 -78.166 13.667 -104.499 41s-39.5 63.333 -39.5 108c0 43.333 13.667 79.166 41 107.499s62 42.5 104 42.5c65.333 0 127.666 -37 186.999 -111zM391.001 264.001c36 -38 64.668 -63.666 86.001 -76.999s45.666 -20 72.999 -20c26.667 0 48.167 9 64.5 27
s24.5 42 24.5 72c0 28 -8.83301 51 -26.5 69s-40.5 27 -68.5 27c-32.667 0 -67 -14.333 -103 -43c-15.333 -12.667 -30 -28.334 -44 -47.001c-2 -3.33301 -4 -6 -6 -8zM324.002 266.002c-58.667 64 -110.666 96 -155.999 96c-28.667 0 -51.334 -8.83301 -68.001 -26.5
s-25 -41.5 -25 -71.5c0 -28.667 8.16699 -52 24.5 -70s37.5 -27 63.5 -27c43.333 0 88 22.667 134 68c8 8 15.333 16 22 24c2 2.66699 3.66699 5 5 7z" />
    <glyph glyph-name="integral" unicode="&#x222b;" horiz-adv-x="274" 
d="M180 576v-344.001c0 -114.667 -8.33301 -201.667 -25 -261c-14.667 -52 -45.334 -78 -92.001 -78c-40.667 0 -61 14.667 -61 44c0 22 12 33 36 33c11.333 0 20.833 -6.66699 28.5 -20s15.167 -20 22.5 -20c20.667 0 31 20 31 60c0 12.667 -1 37 -3 73
c-2.66699 48 -4 104.333 -4 169v345c0 114.667 8.33301 201.667 25 261c14.667 52 45.334 78 92.001 78c40.667 0 61 -15.333 61 -46c0 -20.667 -12 -31 -36 -31c-12.667 0 -26 11 -40 33c-2 4 -6.33301 6 -13 6c-19.333 0 -29 -21.667 -29 -65
c0 -13.333 1 -35.666 3 -66.999c2.66699 -42 4 -98.667 4 -170z" />
    <glyph glyph-name="approxequal" unicode="&#x2248;" horiz-adv-x="549" 
d="M489 251l38 -34c-30.667 -56.667 -77.667 -85 -141 -85c-22.667 0 -44.667 3.33301 -66 10l-16 5c-5.33301 2 -32.333 10.333 -81 25c-27.333 8 -48.333 12 -63 12c-22.667 0 -42 -6 -58 -18c-8.66699 -6 -23.667 -21 -45 -45l-43 34c39.333 56 88 84 146 84
c23.333 0 65 -9.33301 125 -28c51.333 -16 85 -24 101 -24c18.667 0 35 4.33301 49 13s32 25.667 54 51zM489 408l37.998 -33c-30 -57.333 -77 -86 -141 -86c-22 0 -44 3.33301 -66 10c-10.667 4 -43 14 -97 30c-27.333 8 -48.333 12 -63 12c-22.667 0 -42 -6 -58 -18
c-8.66699 -6 -23.667 -21 -45 -45l-43 34c39.333 56 88 84 146 84c23.333 0 65 -9.33301 125 -28c51.333 -16 85 -24 101 -24c18.667 0 34.834 4.33301 48.501 13s31.834 25.667 54.501 51z" />
    <glyph glyph-name="notequal" unicode="&#x2260;" horiz-adv-x="549" 
d="M187 141h-172v55h199l70 139h-269v55h297l80 159l47 -24l-68 -135h169v-55h-197l-70 -139h267v-55h-295l-84 -166l-46 24z" />
    <glyph glyph-name="lessequal" unicode="&#x2264;" horiz-adv-x="549" 
d="M526 55v-55h-497v55h497zM526 639v-62l-418 -199l418 -199v-62l-497 233v55z" />
    <glyph glyph-name="greaterequal" unicode="&#x2265;" horiz-adv-x="549" 
d="M526 55v-55h-497v55h497zM29 639l497 -234v-55l-497 -233v62l418 199l-418 199v62z" />
    <glyph glyph-name="lozenge" unicode="&#x25ca;" horiz-adv-x="494" 
d="M209 0l-191 377l196 363h63l189 -366l-197 -374h-60zM240 58l162 316l-157 309l-164 -306z" />
    <glyph glyph-name="apple" unicode="&#xf000;" horiz-adv-x="790" 
d="M570 698v-11.002c0 -43.333 -18.333 -81.666 -55 -114.999s-78.667 -49.666 -126 -48.999c1.33301 48.667 18 88.5 50 119.5s75.667 49.5 131 55.5zM714 460.998c-54 -41.333 -81.0029 -88.334 -81.0029 -141.001c0 -71.333 33.333 -121.333 100 -150
c-29.333 -61.333 -61.666 -109.5 -96.999 -144.5s-69 -52.5 -101 -52.5c-18 0 -39.667 5.66699 -65 17c-18 8 -40 12 -66 12c-19.333 0 -38 -4 -56 -12c-25.333 -11.333 -47.666 -17 -66.999 -17c-51.333 0 -101.666 37.333 -150.999 112s-74 150.334 -74 227.001
c0 60.667 20.167 112.667 60.5 156s89.166 65 146.499 65c23.333 0 53.333 -6.66699 90 -20c22 -8 39 -12 51 -12c10 0 23.667 3.33301 41 10c38.667 14.667 69.334 22 92.001 22c74.667 0 133.667 -24 177 -72z" />
  </font>
</defs>
</svg>
