<?xml version="1.0" standalone="no"?>
<!DOCTYPE svg PUBLIC "-//W3C//DTD SVG 1.1//EN" "http://www.w3.org/Graphics/SVG/1.1/DTD/svg11.dtd" >
<svg xmlns="http://www.w3.org/2000/svg" xmlns:xlink="http://www.w3.org/1999/xlink" version="1.1">
<metadata>
Created by FontForge 20161013 at Mon May  2 19:33:46 2011
 By ,,,
Copyright (c) 2008 by . All rights reserved.
</metadata>
<defs>
<font id="NimbusSansLight" horiz-adv-x="560" >
  <font-face 
    font-family="NimbusSans Light"
    font-weight="300"
    font-stretch="normal"
    units-per-em="1000"
    panose-1="2 0 4 0 0 0 0 0 0 0"
    ascent="800"
    descent="-200"
    x-height="479"
    cap-height="667"
    bbox="-39 -219 1004 916"
    underline-thickness="33"
    underline-position="-142"
    unicode-range="U+0020-F000"
  />
<missing-glyph horiz-adv-x="250" 
 />
    <glyph glyph-name=".notdef" horiz-adv-x="250" 
 />
    <glyph glyph-name=".null" horiz-adv-x="0" 
 />
    <glyph glyph-name="nonmarkingreturn" horiz-adv-x="333" 
 />
    <glyph glyph-name="space" unicode=" " horiz-adv-x="250" 
 />
    <glyph glyph-name="exclam" unicode="!" horiz-adv-x="241" 
d="M151 667l-7 -498h-27l-7 498h41zM151 91v-91h-40v91h40z" />
    <glyph glyph-name="quotedbl" unicode="&#x22;" horiz-adv-x="279" 
d="M98 400h-33l-5 267h43zM214 400h-33l-5 267h43z" />
    <glyph glyph-name="numbersign" unicode="#" 
d="M359 237l-29 -206h-30l29 206h-125l-29 -206h-31l29 206h-120l4 31h120l17 118h-120l4 31h120l27 191h31l-27 -191h125l27 191h31l-27 -191h122l-5 -31h-122l-16 -118h122l-5 -31h-122zM350 386h-125l-17 -118h125z" />
    <glyph glyph-name="dollar" unicode="$" 
d="M289 727v-71q185 -11 194 -191h-38q-9 145 -156 157v-273q85 -24 113 -35q98 -40 98 -154q0 -80 -56 -126t-155 -48v-86h-23v87q-204 12 -207 221h37q3 -175 170 -188v297q-89 24 -122 45q-65 41 -65 130q0 75 49 118t138 46v71h23zM289 310v-291q82 2 127 38.5t45 102.5
q0 89 -86 124q-23 9 -86 26zM266 355v268q-148 -5 -148 -131q0 -54 28.5 -82.5t104.5 -49.5q4 -1 15 -5z" />
    <glyph glyph-name="percent" unicode="%" horiz-adv-x="765" 
d="M601 665l-416 -688h-33l416 688h33zM568 319q67 0 110 -46.5t43 -119.5q0 -71 -43.5 -118.5t-108.5 -47.5q-70 0 -112.5 46t-42.5 120q0 71 44 118.5t110 47.5zM568 290q-53 0 -87 -38.5t-34 -98.5t34.5 -99t87.5 -39q49 0 83.5 40t34.5 98q0 59 -34 98t-85 39zM197 656
q67 0 110 -46t43 -119t-43 -120t-110 -47q-68 0 -111 46t-43 118q0 74 43 121t111 47zM197 627q-53 0 -87 -38.5t-34 -99.5q0 -59 34 -98t86 -39t86.5 39.5t34.5 99.5q0 59 -34 97.5t-86 38.5z" />
    <glyph glyph-name="ampersand" unicode="&#x26;" horiz-adv-x="581" 
d="M454 275h36q-2 -74 -35 -142l110 -133h-48l-81 100q-72 -113 -191 -113q-89 0 -144.5 48t-55.5 125q0 58 39.5 105t134.5 103q-57 71 -74 102t-17 64q0 56 40 92t102 36q61 0 100.5 -35.5t39.5 -88.5q0 -65 -54 -115q-26 -24 -84 -64l158 -197q21 56 24 113zM251 385
q123 71 123 149q0 41 -30 68.5t-74 27.5q-47 0 -77 -27t-30 -69q0 -37 46 -96l18 -22l18 -24q3 -4 6 -7zM413 127l-174 215q-156 -89 -156 -182q0 -61 46.5 -101.5t114.5 -40.5q111 0 169 109z" />
    <glyph glyph-name="quotesingle" unicode="'" horiz-adv-x="163" 
d="M98 400h-33l-5 267h43z" />
    <glyph glyph-name="parenleft" unicode="(" horiz-adv-x="259" 
d="M165 667h33q-114 -189 -114 -418q0 -221 114 -422h-33q-120 213 -120 424q0 103 33 216.5t87 199.5z" />
    <glyph glyph-name="parenright" unicode=")" horiz-adv-x="259" 
d="M94 -173h-33q114 189 114 418q0 218 -114 422h33q120 -213 120 -424q0 -103 -33 -216.5t-87 -199.5z" />
    <glyph glyph-name="asterisk" unicode="*" 
d="M418 559l-117 -39l73 -98l-22 -16l-72 99l-75 -97l-22 16l75 96l-115 39l8 25l115 -39v122h27v-122l115 39z" />
    <glyph glyph-name="plus" unicode="+" 
d="M54 337h210v211h32v-211h210v-32h-210v-211h-32v211h-210v32z" />
    <glyph glyph-name="comma" unicode="," horiz-adv-x="200" 
d="M124 95v-79q0 -59 -13.5 -89t-47.5 -47v32q32 20 32 88h-18v95h47z" />
    <glyph glyph-name="hyphen" unicode="-" horiz-adv-x="213" 
d="M213 264v-34h-213v34h213z" />
    <glyph glyph-name="period" unicode="." horiz-adv-x="200" 
d="M124 95v-95h-47v95h47z" />
    <glyph glyph-name="slash" unicode="/" horiz-adv-x="407" 
d="M369 667l-374 -840h-34l376 840h32z" />
    <glyph glyph-name="zero" unicode="0" 
d="M280 656q112 0 173 -87.5t61 -249.5q0 -159 -61.5 -246t-173.5 -87q-113 0 -173 83.5t-60 241.5q0 164 61.5 254.5t172.5 90.5zM280 623q-92 0 -143.5 -82.5t-51.5 -231.5q0 -139 50.5 -214.5t143.5 -75.5t144.5 79t51.5 221q0 146 -50.5 225t-144.5 79z" />
    <glyph glyph-name="one" unicode="1" horiz-adv-x="463" 
d="M335 645v-645h-40v575q-69 -70 -171 -82v32q64 12 103.5 39t73.5 81h34z" />
    <glyph glyph-name="two" unicode="2" 
d="M497 34v-34h-431q10 86 59 139q22 24 67 60q4 2 88 60q96 66 131.5 113t35.5 109q0 64 -44 103t-118 39q-164 0 -167 -196h-38q5 229 206 229q92 0 146 -48t54 -129q0 -87 -63 -152q-38 -40 -162 -124q-84 -57 -113.5 -90t-37.5 -79h387z" />
    <glyph glyph-name="three" unicode="3" 
d="M106 442h-36q4 104 59 159t155 55q89 0 144 -45.5t55 -118.5q0 -59 -34 -98t-95 -49q147 -25 147 -165q0 -85 -62 -139.5t-159 -54.5q-105 0 -166 56.5t-61 153.5q0 10 1 17h36v-14q0 -83 50.5 -131.5t137.5 -48.5q81 0 132.5 44.5t51.5 115.5q0 149 -195 149
q-12 0 -22 -1v33q12 -1 26 -1q173 0 173 130q0 61 -43.5 97.5t-117.5 36.5q-172 0 -177 -181z" />
    <glyph glyph-name="four" unicode="4" 
d="M506 199v-34h-106v-165h-37v165h-312v39l311 443h38v-448h106zM363 199v320q0 48 1 82q-27 -43 -45 -69l-194 -276l-21 -29l-7 -9l-7 -10l-7 -9h280z" />
    <glyph glyph-name="five" unicode="5" 
d="M472 641v-34h-299l-39 -183q-4 -21 -15 -71q61 79 163 79q93 0 156 -62.5t63 -155.5q0 -99 -62.5 -163.5t-158.5 -64.5q-100 0 -159.5 56t-61.5 154h37q11 -177 183 -177q79 0 131 54t52 136t-51.5 136t-129.5 54q-109 0 -166 -88l-36 1l66 329h327z" />
    <glyph glyph-name="six" unicode="6" 
d="M494 485h-39q-10 64 -53.5 101t-105.5 37q-196 0 -200 -338q51 140 196 140q92 0 153.5 -62t61.5 -156q0 -95 -62.5 -158t-156.5 -63q-121 0 -182 95q-46 71 -46 217q0 174 61 266t176 92q80 0 131.5 -45t65.5 -126zM287 392q-77 0 -129 -53t-52 -131q0 -81 52 -135
t131 -54q76 0 127.5 53.5t51.5 133.5t-51.5 133t-129.5 53z" />
    <glyph glyph-name="seven" unicode="7" 
d="M500 641v-34q-2 -3 -46 -52q-108 -119 -173 -286q-47 -122 -56 -269h-41q6 168 88 339q47 97 118 186q25 31 76 83h-15q-9 -1 -11 -1h-354v34h414z" />
    <glyph glyph-name="eight" unicode="8" 
d="M201 349q-121 28 -121 144q0 76 54 119.5t149 43.5q91 0 144 -43.5t53 -117.5q0 -116 -120 -146q147 -27 147 -169q0 -90 -61 -142t-166 -52q-106 0 -166.5 52.5t-60.5 144.5q0 66 39 109.5t109 56.5zM283 623q-164 0 -164 -131q0 -60 43.5 -94t120.5 -34
q74 0 116.5 34.5t42.5 93.5q0 62 -42 96.5t-117 34.5zM282 333q-89 0 -139.5 -40t-50.5 -110q0 -77 49.5 -120.5t138.5 -43.5q88 0 138 43t50 118q0 71 -50 112t-136 41z" />
    <glyph glyph-name="nine" unicode="9" 
d="M71 153h37q11 -62 55 -98t108 -36q94 0 144.5 79t50.5 227q0 18 -1 36q-3 -10 -6 -14q-54 -130 -190 -130q-95 0 -155.5 62t-60.5 159q0 92 63.5 155t156.5 63q117 0 179 -92q50 -74 50 -224q0 -354 -231 -354q-81 0 -135.5 45.5t-64.5 121.5zM272 623q-76 0 -128 -53.5
t-52 -131.5q0 -81 50.5 -134.5t127.5 -53.5q80 0 132 53t52 135q0 77 -53 131t-129 54z" />
    <glyph glyph-name="colon" unicode=":" horiz-adv-x="217" 
d="M140 95v-95h-47v95h47zM140 463v-95h-47v95h47z" />
    <glyph glyph-name="semicolon" unicode=";" horiz-adv-x="217" 
d="M140 95v-79q0 -59 -13.5 -89t-47.5 -47v32q32 20 32 88h-18v95h47zM140 463v-95h-47v95h47z" />
    <glyph glyph-name="less" unicode="&#x3c;" horiz-adv-x="500" 
d="M466 547v-43l-387 -170l387 -170v-43l-433 194v38z" />
    <glyph glyph-name="equal" unicode="=" 
d="M54 407h452v-33h-452v33zM54 273h452v-32h-452v32z" />
    <glyph glyph-name="greater" unicode="&#x3e;" horiz-adv-x="500" 
d="M34 121v43l387 170l-387 170v43l433 -194v-38z" />
    <glyph glyph-name="question" unicode="?" horiz-adv-x="493" 
d="M91 460h-36q1 105 54.5 163t148.5 58q84 0 137.5 -47t53.5 -120q0 -64 -41 -115q-13 -16 -73 -73q-43 -40 -52.5 -65t-10.5 -93h-38q0 71 11 100q13 34 65 82q60 56 80 88.5t20 73.5q0 59 -43 97.5t-108 38.5q-162 0 -168 -188zM274 93v-93h-41v93h41z" />
    <glyph glyph-name="at" unicode="@" horiz-adv-x="741" 
d="M643 166h28q-34 -77 -113.5 -125t-174.5 -48q-137 0 -232 95.5t-95 233.5q0 140 97 237.5t236 97.5q126 0 211.5 -78.5t85.5 -194.5q0 -114 -85 -186q-62 -52 -121 -52q-62 0 -68 58q-50 -56 -107 -56q-46 0 -73 32t-27 87q0 89 58 162t128 73q65 0 90 -67l19 52h34
l-82 -235q-9 -26 -9 -42q0 -39 44 -39q65 0 118.5 65t53.5 144q0 109 -76.5 180.5t-194.5 71.5q-128 0 -216 -90.5t-88 -220.5q0 -128 86.5 -215.5t213.5 -87.5q80 0 151 40.5t108 107.5zM428 285l23 63q13 36 13 55q0 31 -19.5 53.5t-47.5 22.5q-58 0 -107 -70t-49 -152
q0 -86 66 -86q79 0 121 114z" />
    <glyph glyph-name="A" unicode="A" horiz-adv-x="601" 
d="M324 667l265 -667h-44l-84 214h-322l-84 -214h-44l270 667h43zM448 249l-122 309l-16 47q-2 5 -8 23l-25 -67l-125 -312h296z" />
    <glyph glyph-name="B" unicode="B" horiz-adv-x="630" 
d="M84 667h265q102 0 157.5 -43.5t55.5 -122.5q0 -58 -35 -99t-93 -52q48 -9 74 -24q78 -46 78 -140q0 -119 -111 -166q-47 -20 -133 -20h-258v667zM125 632v-269h190q91 0 130 17q76 33 76 117q0 135 -183 135h-213zM125 328v-293h214q206 0 206 151q0 142 -201 142h-219z
" />
    <glyph glyph-name="C" unicode="C" horiz-adv-x="681" 
d="M603 259h40q-11 -124 -91 -199t-201 -75q-134 0 -218.5 95.5t-84.5 248.5q0 158 85 255.5t222 97.5q110 0 188 -60.5t89 -154.5h-40q-17 83 -81.5 131.5t-155.5 48.5q-119 0 -192.5 -87.5t-73.5 -230.5q0 -137 73.5 -223t190.5 -86q103 0 170 64t80 175z" />
    <glyph glyph-name="D" unicode="D" horiz-adv-x="660" 
d="M84 667h225q135 0 209 -69q95 -88 95 -254q0 -176 -94 -269q-76 -75 -209 -75h-226v667zM125 632v-597h171q72 0 116.5 14.5t79.5 50.5q80 81 80 241q0 142 -67.5 216.5t-197.5 74.5h-182z" />
    <glyph glyph-name="E" unicode="E" horiz-adv-x="577" 
d="M533 667v-35h-408v-267h384v-35h-384v-295h413v-35h-454v667h449z" />
    <glyph glyph-name="F" unicode="F" horiz-adv-x="523" 
d="M504 667v-35h-379v-268h340v-35h-340v-329h-41v667h420z" />
    <glyph glyph-name="G" unicode="G" horiz-adv-x="720" 
d="M653 326v-326h-30l-4 162q-28 -85 -95 -131t-162 -46q-141 0 -227.5 95t-86.5 250q0 156 87.5 254t227.5 98q109 0 185.5 -60.5t93.5 -160.5h-39q-17 83 -83 134.5t-156 51.5q-124 0 -199.5 -87t-75.5 -230q0 -141 75 -225.5t200 -84.5q114 0 183.5 72t69.5 189v10h-246
v35h282z" />
    <glyph glyph-name="H" unicode="H" horiz-adv-x="676" 
d="M592 667v-667h-41v332h-427v-332h-41v667h41v-300h427v300h41z" />
    <glyph glyph-name="I" unicode="I" horiz-adv-x="208" 
d="M125 667v-667h-41v667h41z" />
    <glyph glyph-name="J" unicode="J" horiz-adv-x="459" 
d="M385 667v-486q0 -196 -185 -196q-96 0 -141 48.5t-45 152.5q0 14 1 25h38v-22q0 -91 34.5 -130t113.5 -39q75 0 109 39t34 124v484h41z" />
    <glyph glyph-name="K" unicode="K" horiz-adv-x="615" 
d="M600 667l-308 -277l326 -390h-51l-303 363l-139 -126v-237h-41v667h41v-383l42 40l379 343h54z" />
    <glyph glyph-name="L" unicode="L" horiz-adv-x="520" 
d="M505 35v-35h-421v667h41v-632h380z" />
    <glyph glyph-name="M" unicode="M" horiz-adv-x="811" 
d="M727 667v-667h-41v499q0 -3 2 78q1 26 3 52q-1 -5 -10 -27q-1 -2 -5 -13l-3 -6l-2 -7l-10 -25l-234 -551h-40l-235 545q-4 9 -17 44l-3 8l-3 7l-2 8l-4 10l-2 6q4 -97 4 -128v-500h-41v667h58l232 -539l19 -50q4 -8 14 -36l32 84l231 541h57z" />
    <glyph glyph-name="N" unicode="N" horiz-adv-x="684" 
d="M601 667v-667h-47l-374 528q-1 1 -12 19l-13 19l-33 54q2 -17 2 -40v-10q0 -11 1 -20v-32v-518h-41v667h49l365 -519q17 -24 65 -100q-3 48 -3 128v491h41z" />
    <glyph glyph-name="O" unicode="O" horiz-adv-x="729" 
d="M364 682q141 0 229.5 -98t88.5 -255q0 -154 -87.5 -249t-229.5 -95q-143 0 -230 95.5t-87 252.5q0 155 87.5 252t228.5 97zM365 647q-121 0 -198.5 -86t-77.5 -220q0 -146 75 -233.5t201 -87.5q123 0 199.5 86t76.5 224q0 140 -77 228.5t-199 88.5z" />
    <glyph glyph-name="P" unicode="P" horiz-adv-x="593" 
d="M84 667h260q96 0 143 -31q75 -50 75 -155q0 -86 -55.5 -135.5t-151.5 -49.5h-230v-296h-41v667zM125 632v-301h207q81 0 119 22q70 41 70 128q0 84 -60 125q-38 26 -124 26h-212z" />
    <glyph glyph-name="Q" unicode="Q" horiz-adv-x="729" 
d="M684 -5l-21 -26l-110 79q-73 -63 -192 -63q-138 0 -225.5 96t-87.5 248q0 157 88 255t230 98q140 0 227.5 -96.5t87.5 -250.5q0 -166 -100 -266zM439 172l111 -80q90 100 90 242q0 140 -76 226.5t-198 86.5q-123 0 -200 -87t-77 -225q0 -143 75.5 -229t201.5 -86
q89 0 155 51l-104 74z" />
    <glyph glyph-name="R" unicode="R" horiz-adv-x="637" 
d="M81 667h275q213 0 213 -177q0 -66 -37 -109.5t-105 -57.5q65 -10 95 -44q21 -24 27 -53t10 -115q3 -79 16 -102l5 -9h-45q-10 19 -14 103t-13 116.5t-34 53.5q-40 33 -145 33h-207v-306h-41v667zM122 632v-291h201q205 0 205 147q0 144 -185 144h-221z" />
    <glyph glyph-name="S" unicode="S" horiz-adv-x="588" 
d="M526 477h-40q-13 169 -210 169q-87 0 -137 -37t-50 -101q0 -78 76 -110q31 -13 80 -25q7 -1 46 -10l16 -4l17 -4q113 -27 153 -51q66 -40 66 -131q0 -87 -67.5 -137t-185.5 -50q-127 0 -194 60t-68 175h39q2 -97 59 -148.5t163 -51.5q101 0 157 39.5t56 112.5
q0 75 -68 108q-39 19 -155 45q-126 29 -170 57q-61 39 -61 122q0 82 61.5 129t168.5 47q236 0 248 -204z" />
    <glyph glyph-name="T" unicode="T" horiz-adv-x="540" 
d="M527 667v-35h-236v-632h-41v632h-236v35h513z" />
    <glyph glyph-name="U" unicode="U" horiz-adv-x="663" 
d="M589 667v-408q0 -274 -256 -274q-164 0 -227 115q-32 58 -32 161v406h41v-408q0 -123 54 -181t167 -58q109 0 160.5 58.5t51.5 181.5v407h41z" />
    <glyph glyph-name="V" unicode="V" horiz-adv-x="570" 
d="M559 667l-248 -667h-48l-252 667h44l200 -534q17 -46 29 -83l4 -14q10 35 32 95l198 536h41z" />
    <glyph glyph-name="W" unicode="W" horiz-adv-x="877" 
d="M860 667l-191 -667h-46l-156 526q-3 9 -12 41q-6 22 -16 63l-6 -28q-3 -6 -12 -36q1 0 -11 -41l-153 -525h-46l-194 667h44l147 -512q2 -7 8 -31l7 -29q7 -26 12 -51q2 12 14 50q4 21 15 59l150 514h50l155 -518q6 -20 12 -43q1 -7 8 -33q2 -7 7 -29q3 14 27 105l147 518
h40z" />
    <glyph glyph-name="X" unicode="X" horiz-adv-x="571" 
d="M548 667l-237 -324l250 -343h-49l-197 269q-4 5 -13 19q-5 8 -17 24q-4 -5 -19 -26q-3 -6 -13 -19l-195 -267h-48l251 343l-236 324h48l182 -249q6 -8 12 -17.5t19 -28.5l17 25l15 22l185 248h45z" />
    <glyph glyph-name="Y" unicode="Y" horiz-adv-x="573" 
d="M578 667l-270 -389v-278h-41v278l-269 389h49l212 -307l30 -47q1 3 12 20q7 10 16 25l214 309h47z" />
    <glyph glyph-name="Z" unicode="Z" horiz-adv-x="561" 
d="M528 667v-39l-426 -558l-28 -36l70 1h393v-35h-507v40l429 560q8 10 25 33q-36 -1 -59 -1h-366v35h469z" />
    <glyph glyph-name="bracketleft" unicode="[" horiz-adv-x="261" 
d="M207 667v-31h-92v-778h92v-31h-129v840h129z" />
    <glyph glyph-name="backslash" unicode="\" horiz-adv-x="407" 
d="M38 667h32l376 -840h-34z" />
    <glyph glyph-name="bracketright" unicode="]" horiz-adv-x="261" 
d="M54 -173v31h92v778h-92v31h129v-840h-129z" />
    <glyph glyph-name="asciicircum" unicode="^" horiz-adv-x="500" 
d="M83 386h-44l185 281h51l185 -281h-45l-167 251z" />
    <glyph glyph-name="underscore" unicode="_" horiz-adv-x="500" 
d="M0 -78h500v-33h-500v33z" />
    <glyph glyph-name="grave" unicode="`" horiz-adv-x="500" 
d="M178 687l113 -132h-35l-127 132h49z" />
    <glyph glyph-name="a" unicode="a" horiz-adv-x="491" 
d="M475 34v-31q-19 -6 -32 -6q-36 0 -49 17.5t-13 64.5v23q-57 -116 -183 -116q-78 0 -120.5 35t-42.5 99q0 97 94 130q32 11 90 17l61 6l31 2q37 2 52.5 14.5t15.5 49.5q0 121 -139 121q-130 0 -142 -128h-37q5 77 52.5 119t130.5 42q128 0 162 -75q12 -27 12 -96v-241
q0 -27 4 -36q7 -15 29 -15q11 0 24 4zM379 187v85q-21 -22 -108 -31q-103 -11 -142 -28q-57 -25 -57 -88q0 -49 34 -78t92 -29q79 0 130 47.5t51 121.5z" />
    <glyph glyph-name="b" unicode="b" horiz-adv-x="553" 
d="M117 667v-301q49 127 181 127q99 0 156 -68t57 -186q0 -115 -57.5 -184t-152.5 -69q-143 0 -185 129v-115h-38v667h39zM295 460q-83 0 -130.5 -60t-47.5 -163q0 -100 49.5 -159t132.5 -59q79 0 126.5 60t47.5 160q0 102 -48 161.5t-130 59.5z" />
    <glyph glyph-name="c" unicode="c" horiz-adv-x="501" 
d="M430 169h38q-12 -87 -65.5 -135t-138.5 -48q-101 0 -161 68.5t-60 183.5t60.5 185t161.5 70q85 0 137 -42t62 -119h-39q-25 128 -157 128q-86 0 -136.5 -60t-50.5 -161q0 -97 49.5 -158.5t128.5 -61.5q72 0 116.5 39.5t54.5 110.5z" />
    <glyph glyph-name="d" unicode="d" horiz-adv-x="554" 
d="M476 667v-667h-37v117q-17 -61 -64.5 -96t-114.5 -35q-101 0 -159 67t-58 184q0 118 58.5 187t157.5 69q127 0 179 -124v298h38zM259 460q-82 0 -130 -60t-48 -162q0 -103 48 -161t133 -58q81 0 129 59.5t48 160.5q0 102 -48.5 161.5t-131.5 59.5z" />
    <glyph glyph-name="e" unicode="e" horiz-adv-x="510" 
d="M428 164h38q-15 -85 -69 -131.5t-138 -46.5q-97 0 -156.5 68.5t-59.5 181.5t60.5 185t156.5 72q100 0 156 -68.5t55 -190.5h-389q2 -101 49 -158t131 -57q66 0 109 38t57 107zM83 267h349q-4 90 -49.5 141.5t-121.5 51.5q-77 0 -123 -50t-55 -143z" />
    <glyph glyph-name="f" unicode="f" horiz-adv-x="248" 
d="M235 668v-34q-21 4 -37 4q-59 0 -71 -42q-5 -18 -5 -76v-41h100v-33h-100v-446h-38v446h-83v33h83v50q0 80 24 110.5t86 30.5q5 0 41 -2z" />
    <glyph glyph-name="g" unicode="g" horiz-adv-x="542" 
d="M464 479v-440q0 -116 -50 -169t-159 -53q-179 0 -190 148h38q15 -115 153 -115q89 0 129.5 44.5t40.5 143.5v100q-52 -121 -180 -121q-92 0 -147.5 63t-55.5 169q0 110 57.5 177t152.5 67q130 0 174 -124v110h37zM253 460q-77 0 -124.5 -56t-47.5 -148q0 -95 45.5 -150.5
t122.5 -55.5q80 0 128 55.5t48 148.5q0 94 -46.5 150t-125.5 56z" />
    <glyph glyph-name="h" unicode="h" horiz-adv-x="531" 
d="M116 667v-240q0 -7 -1 -26q0 -8 -1 -30q49 122 176 122q80 0 124 -48.5t44 -137.5v-307h-38v301q0 159 -139 159q-80 0 -122.5 -56t-42.5 -161v-243h-38v667h38z" />
    <glyph glyph-name="i" unicode="i" horiz-adv-x="192" 
d="M115 667v-94h-38v94h38zM115 479v-479h-38v479h38z" />
    <glyph glyph-name="j" unicode="j" horiz-adv-x="190" 
d="M113 479v-530q0 -70 -24 -97t-86 -27q-13 0 -22 1v33q9 -1 19 -1q44 0 59.5 18.5t15.5 70.5v532h38zM113 667v-94h-38v94h38z" />
    <glyph glyph-name="k" unicode="k" horiz-adv-x="490" 
d="M463 479l-210 -178l225 -301h-48l-206 274l-108 -92v-182h-38v667h38v-442q12 13 38 34l258 220h51z" />
    <glyph glyph-name="l" unicode="l" horiz-adv-x="192" 
d="M115 667v-667h-38v667h38z" />
    <glyph glyph-name="m" unicode="m" horiz-adv-x="791" 
d="M116 479v-97q44 111 156 111q107 0 140 -103q49 103 155 103q151 0 151 -164v-329h-38v325q0 135 -121 135q-66 0 -103 -43.5t-37 -120.5v-296h-38v317q0 143 -119 143q-67 0 -106 -50.5t-39 -136.5v-273h-39v479h38z" />
    <glyph glyph-name="n" unicode="n" horiz-adv-x="533" 
d="M116 479v-104q49 118 173 118q110 0 153 -81q18 -34 18 -106v-306h-38v297q0 65 -15 96q-32 67 -126 67t-138 -78q-26 -46 -26 -133v-249h-39v479h38z" />
    <glyph glyph-name="o" unicode="o" horiz-adv-x="531" 
d="M265 493q101 0 161.5 -69.5t60.5 -186.5q0 -115 -60 -183t-161 -68q-103 0 -163 69t-60 187q0 112 61.5 181.5t160.5 69.5zM265 460q-82 0 -133 -60.5t-51 -156.5q0 -104 50 -164t135 -60q83 0 133 59.5t50 158.5q0 101 -50 162t-134 61z" />
    <glyph glyph-name="p" unicode="p" horiz-adv-x="550" 
d="M116 479v-113q42 127 181 127q94 0 152.5 -69.5t58.5 -182.5q0 -116 -58 -185.5t-155 -69.5q-139 0 -178 124v-283h-39v652h38zM291 460q-82 0 -128.5 -59t-46.5 -163q0 -102 47 -160.5t129 -58.5t130 59.5t48 161.5q0 100 -48.5 160t-130.5 60z" />
    <glyph glyph-name="q" unicode="q" horiz-adv-x="550" 
d="M472 479v-652h-38v283q-46 -124 -179 -124q-98 0 -155 68t-57 183q0 117 58 186.5t156 69.5q67 0 108.5 -29t70.5 -97v112h36zM259 460q-83 0 -130.5 -60t-47.5 -163q0 -100 47.5 -159t128.5 -59q82 0 130.5 59.5t48.5 159.5q0 103 -47.5 162.5t-129.5 59.5z" />
    <glyph glyph-name="r" unicode="r" horiz-adv-x="296" 
d="M302 483v-38h-12q-103 0 -150 -90q-23 -45 -23 -148v-207h-39v479h38v-126q25 69 68.5 99.5t117.5 30.5z" />
    <glyph glyph-name="s" unicode="s" horiz-adv-x="449" 
d="M396 340h-39q-10 120 -144 120q-64 0 -99 -25t-35 -69q0 -41 28.5 -60t124.5 -41q87 -20 123 -40q56 -32 56 -101q0 -62 -53.5 -100t-139.5 -38q-91 0 -141.5 45.5t-51.5 129.5h38q6 -142 158 -142q69 0 110.5 29t41.5 78q0 40 -31 62t-118 42q-99 23 -130 40
q-53 29 -53 92q0 62 46.5 96.5t129.5 34.5q169 0 179 -153z" />
    <glyph glyph-name="t" unicode="t" horiz-adv-x="251" 
d="M221 479v-33h-104v-324q0 -57 12.5 -75t50.5 -18q14 0 41 6v-34q-25 -4 -46 -4q-67 0 -86 39q-10 20 -10 101v309h-87v33h87v150h38v-150h104z" />
    <glyph glyph-name="u" unicode="u" horiz-adv-x="529" 
d="M452 479v-479h-37v101q-50 -115 -169 -115q-172 0 -172 184v309h38v-286q0 -71 16 -106q32 -69 123 -69q74 0 118.5 54.5t44.5 146.5v260h38z" />
    <glyph glyph-name="v" unicode="v" horiz-adv-x="430" 
d="M425 479l-181 -479h-44l-195 479h42l137 -336q7 -18 38 -105l38 107l126 334h39z" />
    <glyph glyph-name="w" unicode="w" horiz-adv-x="685" 
d="M675 479l-155 -479h-43l-114 364q-8 25 -19 71q-7 -26 -20 -70l-114 -365h-44l-155 479h41l111 -350q12 -36 25 -88q5 17 10 43q5 18 14 47l109 348h47l108 -350q8 -27 24 -87q14 53 24 85l112 352h39z" />
    <glyph glyph-name="x" unicode="x" horiz-adv-x="437" 
d="M415 479l-174 -226l193 -253h-49l-150 199l-18 25q-2 -2 -9 -13q-4 -5 -9 -12l-150 -199h-45l190 251l-175 228h48l128 -170q3 -3 23 -30l21 30l131 170h45z" />
    <glyph glyph-name="y" unicode="y" horiz-adv-x="436" 
d="M432 479l-206 -529q-29 -75 -55.5 -99.5t-76.5 -22.5l-22 1h-14v34q15 -2 31 -2q62 0 87 62q16 39 19 45q16 28 13 36l-203 475h43l158 -376q2 -4 22 -59l22 64l142 371h40z" />
    <glyph glyph-name="z" unicode="z" horiz-adv-x="415" 
d="M390 479v-32l-297 -381q-3 -3 -27 -33h339v-33h-382v36l295 377q3 4 27 33h-298v33h343z" />
    <glyph glyph-name="braceleft" unicode="{" horiz-adv-x="261" 
d="M111 537v-181q0 -46 -12 -70t-42 -39q54 -28 54 -114v-171q0 -104 83 -104h10v-31h-7q-67 0 -95 34t-28 116v158q0 44 -12.5 65t-45.5 32v31q58 18 58 94v176q0 134 124 134h6v-31h-10q-83 0 -83 -99z" />
    <glyph glyph-name="bar" unicode="|" horiz-adv-x="500" 
d="M229 667h42v-834h-42v834z" />
    <glyph glyph-name="braceright" unicode="}" horiz-adv-x="261" 
d="M150 -43v181q0 46 12 70t42 39q-54 28 -54 114v171q0 104 -83 104h-10v31h7q67 0 95 -34t28 -116v-158q0 -44 12.5 -65t45.5 -32v-31q-58 -18 -58 -94v-176q0 -134 -124 -134h-6v31h10q83 0 83 99z" />
    <glyph glyph-name="asciitilde" unicode="~" horiz-adv-x="667" 
d="M122 594l-27 20q53 100 129 100q38 0 117 -42q70 -37 103 -37q55 0 101 81l27 -19q-52 -100 -132 -100q-29 0 -68 17q-5 3 -61.5 32.5t-88.5 29.5q-54 0 -100 -82z" />
    <glyph glyph-name="exclamdown" unicode="&#xa1;" horiz-adv-x="241" 
d="M90 -187l7 498h27l7 -498h-41zM90 388v91h40v-91h-40z" />
    <glyph glyph-name="cent" unicode="&#xa2;" 
d="M451 260h37q-11 -83 -61 -130.5t-130 -49.5v-100h-23v100q-95 6 -149 73t-54 178q0 110 53.5 177t149.5 77v82h23v-82q169 -9 188 -162h-38q-21 121 -150 130v-442q134 6 154 149zM274 111v441q-77 -9 -120.5 -66t-43.5 -151q0 -201 164 -224z" />
    <glyph glyph-name="sterling" unicode="&#xa3;" 
d="M503 435h-37q-3 188 -178 188q-79 0 -127 -38.5t-48 -100.5q0 -45 38 -114l24 -44h149v-23h-136q23 -52 23 -99q0 -58 -40 -115q-14 -20 -57 -63q60 31 101 31q33 0 121 -32q25 -9 52 -9q31 0 67 17.5t60 45.5l21 -28q-67 -69 -148 -69q-35 0 -122 30q-35 12 -65 12
q-49 0 -110 -41l-24 33q108 81 108 184q0 51 -27 103h-75v23h61q-18 31 -28 50q-32 59 -32 108q0 77 59 124.5t153 47.5q217 0 217 -221z" />
    <glyph glyph-name="yen" unicode="&#xa5;" 
d="M205 373l-157 269h45l188 -323l187 323h43l-157 -269h137v-23h-151l-42 -72v-45h173v-23h-173v-210h-37v210h-173v23h173v45l-42 72h-151v23h137z" />
    <glyph glyph-name="brokenbar" unicode="&#xa6;" horiz-adv-x="500" 
d="M229 667h42v-326h-42v326zM229 153h42v-320h-42v320z" />
    <glyph glyph-name="section" unicode="&#xa7;" 
d="M439 493h-37q-5 132 -130 132q-50 0 -81.5 -26.5t-31.5 -67.5q0 -36 19.5 -58t84.5 -58q121 -67 163 -101q66 -52 66 -118q0 -44 -28 -79t-77 -52q56 -50 56 -105q0 -59 -45 -96t-115 -37q-81 0 -126.5 46t-44.5 127h37q3 -140 133 -140q55 0 88.5 27t33.5 71
q0 45 -39 78q-27 23 -115 74q-111 65 -139 93q-43 43 -43 96q0 97 103 133q-50 40 -50 99q0 56 42.5 91.5t108.5 35.5q162 0 167 -165zM195 413q-90 -41 -90 -111q0 -49 46 -85q16 -12 93 -59q-6 4 78 -47q28 -17 38 -26q95 30 95 104q0 46 -42 85t-172 111q-19 10 -46 28z
" />
    <glyph glyph-name="dieresis" unicode="&#xa8;" horiz-adv-x="500" 
d="M352 668v-96h-39v96h39zM188 668v-96h-39v96h39z" />
    <glyph glyph-name="copyright" unicode="&#xa9;" horiz-adv-x="793" 
d="M545 295h30q-6 -73 -54.5 -116.5t-124.5 -43.5q-82 0 -133.5 54.5t-51.5 141.5q0 90 52 145.5t136 55.5q68 0 115 -35.5t54 -91.5h-30q-10 47 -47.5 74t-92.5 27q-70 0 -113 -48t-43 -127q0 -76 43 -123t112 -47q62 0 101 35.5t47 98.5zM397 682q144 0 246 -102t102 -246
q0 -145 -102 -247t-246 -102q-145 0 -247 102t-102 247q0 144 102 246t247 102zM397 655q-133 0 -226 -94t-93 -227t93.5 -227.5t225.5 -94.5t225 94t93 228q0 133 -93 227t-225 94z" />
    <glyph glyph-name="ordfeminine" unicode="&#xaa;" horiz-adv-x="373" 
d="M335 297h-297v33h297v-33zM317 427v-24q-12 -5 -22 -5q-23 0 -30.5 10t-8.5 35q-39 -51 -98 -51q-96 0 -96 77q0 55 56 75q8 3 52 8l17 2l17 1l17 2q20 2 27.5 7t7.5 23q0 62 -74 62q-70 0 -77 -70h-28q6 95 106 95q55 0 78.5 -21.5t23.5 -71.5v-23q-1 -23 -1 -43v-70
q0 -22 14 -22q7 0 19 4zM255 505v37q-20 -8 -56 -12q-64 -7 -85.5 -18.5t-21.5 -40.5q0 -54 66 -54q43 0 70 25t27 63z" />
    <glyph glyph-name="guillemotleft" unicode="&#xab;" horiz-adv-x="344" 
d="M158 107l-107 121v36l107 122v-44l-81 -97l81 -91v-47zM279 107l-108 120v36l108 124v-44l-82 -98l82 -94v-44z" />
    <glyph glyph-name="logicalnot" unicode="&#xac;" horiz-adv-x="500" 
d="M424 0v233h-391v38h433v-271h-42z" />
    <glyph glyph-name="registered" unicode="&#xae;" horiz-adv-x="793" 
d="M257 523h168q131 0 131 -102q0 -68 -71 -93q33 -7 49 -29q13 -17 17 -90q3 -48 8 -56l7 -10h-35q-8 11 -10 61q-3 72 -23 91.5t-89 19.5h-121v-172h-31v380zM288 497v-156h117q120 0 120 79q0 77 -108 77h-129zM397 682q144 0 246 -102t102 -246q0 -145 -102 -247
t-246 -102q-145 0 -247 102t-102 247q0 144 102 246t247 102zM397 655q-133 0 -226 -94t-93 -227t93.5 -227.5t225.5 -94.5t225 94t93 228q0 133 -93 227t-225 94z" />
    <glyph glyph-name="macron" unicode="&#xaf;" horiz-adv-x="500" 
d="M376 631v-29h-252v29h252z" />
    <glyph glyph-name="degree" unicode="&#xb0;" horiz-adv-x="400" 
d="M201 686q64 0 106.5 -43.5t42.5 -108.5q0 -64 -43.5 -108.5t-106.5 -44.5t-106.5 44.5t-43.5 109.5q0 62 44.5 106.5t106.5 44.5zM199 629q-39 0 -66 -28.5t-27 -69.5q0 -37 27.5 -65t63.5 -28q41 0 68.5 27t27.5 67q0 41 -27 69t-67 28z" />
    <glyph glyph-name="plusminus" unicode="&#xb1;" horiz-adv-x="549" 
d="M302 662v-245h237v-55h-237v-233h-55v233h-237v55h237v245h55zM11 55h524v-55h-524v55z" />
    <glyph glyph-name="twosuperior" unicode="&#xb2;" horiz-adv-x="358" 
d="M315 295v-29h-271q5 51 27.5 78.5t105.5 82.5q57 38 78.5 65t21.5 61q0 37 -25.5 58.5t-69.5 21.5q-97 0 -98 -115h-31q2 142 129 142q58 0 92 -29t34 -79q0 -45 -27.5 -77.5t-111.5 -87.5q-49 -32 -65 -48.5t-24 -43.5h235z" />
    <glyph glyph-name="threesuperior" unicode="&#xb3;" horiz-adv-x="358" 
d="M77 527h-30q5 133 136 133q55 0 90 -28t35 -72q0 -65 -64 -86q74 -21 74 -98q0 -52 -39 -85t-100 -33q-65 0 -103.5 34.5t-38.5 93.5v14h31q-1 -5 -1 -12q0 -48 29.5 -75.5t81.5 -27.5q49 0 79 25t30 65q0 84 -116 84h-17v27h20q102 0 102 73q0 34 -25.5 54t-68.5 20
q-102 0 -105 -106z" />
    <glyph glyph-name="acute" unicode="&#xb4;" horiz-adv-x="500" 
d="M368 687l-123 -132h-34l110 132h47z" />
    <glyph glyph-name="mu" unicode="&#xb5;" horiz-adv-x="576" 
d="M442 500v-369q0 -40 13.5 -65t35.5 -25q18 0 32.5 20t16.5 48l27 -1q-22 -121 -120 -121q-70 0 -93 93q-79 -93 -155 -93q-43 0 -98 46q0 -44 12 -86q19 -66 19 -92q0 -74 -50 -74q-21 0 -35 20t-14 49q0 30 17 94q12 45 12 76v480h88v-331q0 -52 24 -81.5t67 -29.5
q62 0 112 73v369h89z" />
    <glyph glyph-name="mu" unicode="&#x3bc;" horiz-adv-x="576" 
d="M442 500v-369q0 -40 13.5 -65t35.5 -25q18 0 32.5 20t16.5 48l27 -1q-22 -121 -120 -121q-70 0 -93 93q-79 -93 -155 -93q-43 0 -98 46q0 -44 12 -86q19 -66 19 -92q0 -74 -50 -74q-21 0 -35 20t-14 49q0 30 17 94q12 45 12 76v480h88v-331q0 -52 24 -81.5t67 -29.5
q62 0 112 73v369h89z" />
    <glyph glyph-name="paragraph" unicode="&#xb6;" 
d="M255 -173v485h-16q-82 0 -134 49.5t-52 126.5q0 108 88 155q45 24 126 24h227v-31h-53v-809h-40v809h-106v-809h-40z" />
    <glyph glyph-name="periodcentered" unicode="&#xb7;" horiz-adv-x="200" 
d="M124 294v-95h-47v95h47z" />
    <glyph glyph-name="cedilla" unicode="&#xb8;" horiz-adv-x="500" 
d="M267 0l-42 -53q24 4 37 4q31 0 51 -16.5t20 -41.5q0 -34 -27 -54t-72 -20q-37 0 -86 18l10 23q40 -17 72 -17q66 0 66 45q0 40 -53 40q-16 0 -45 -10l-13 12l56 70h26z" />
    <glyph glyph-name="onesuperior" unicode="&#xb9;" horiz-adv-x="358" 
d="M217 654v-387h-32v333q-40 -37 -105 -44v27q74 13 110 71h27z" />
    <glyph glyph-name="ordmasculine" unicode="&#xba;" horiz-adv-x="373" 
d="M335 297h-297v33h297v-33zM186 674q58 0 93.5 -38.5t35.5 -100.5q0 -66 -34.5 -104t-93.5 -38t-94 38.5t-35 103.5q0 62 35.5 100.5t92.5 38.5zM187 649q-44 0 -71.5 -31.5t-27.5 -82.5q0 -54 26.5 -85.5t72.5 -31.5t72 31t26 86q0 51 -27 82.5t-71 31.5z" />
    <glyph glyph-name="guillemotright" unicode="&#xbb;" horiz-adv-x="344" 
d="M186 386l107 -120v-37l-107 -122v44l81 97l-81 92v46zM65 387l109 -121v-36l-109 -123v43l83 98l-83 95v44z" />
    <glyph glyph-name="onequarter" unicode="&#xbc;" horiz-adv-x="854" 
d="M217 654v-387h-32v333q-40 -37 -105 -44v27q74 13 110 71h27zM645 652l-405 -652h-32l406 652h31zM817 124v-27h-65v-97h-31v97h-190v28l192 263h29v-264h65zM721 124v219l-158 -219h158z" />
    <glyph glyph-name="onehalf" unicode="&#xbd;" horiz-adv-x="854" 
d="M217 654v-387h-32v333q-40 -37 -105 -44v27q74 13 110 71h27zM645 652l-405 -652h-32l406 652h31zM811 29v-29h-271q5 52 27.5 79t105.5 82q58 38 79 64.5t21 61.5q0 37 -25.5 58.5t-69.5 21.5q-97 0 -98 -115h-31q2 142 129 142q58 0 92 -29t34 -78q0 -46 -27 -78.5
t-112 -87.5q-49 -32 -65 -48.5t-24 -43.5h235z" />
    <glyph glyph-name="threequarters" unicode="&#xbe;" horiz-adv-x="854" 
d="M77 527h-30q5 133 136 133q55 0 90 -28t35 -72q0 -65 -64 -86q74 -21 74 -98q0 -52 -39 -85t-100 -33q-65 0 -103.5 34.5t-38.5 93.5v14h31q-1 -5 -1 -12q0 -48 29.5 -75.5t81.5 -27.5q49 0 79 25t30 65q0 84 -116 84h-17v27h20q102 0 102 73q0 34 -25.5 54t-68.5 20
q-102 0 -105 -106zM646 652l-406 -652h-32l406 652h32zM817 124v-27h-65v-97h-31v97h-190v28l192 263h29v-264h65zM721 124v219l-158 -219h158z" />
    <glyph glyph-name="questiondown" unicode="&#xbf;" horiz-adv-x="494" 
d="M402 19h37q-2 -105 -55 -163t-149 -58q-84 0 -137.5 47t-53.5 120q0 64 40 116q5 7 74 72q42 40 52 65t11 93h38q0 -71 -11 -100q-13 -33 -65 -82q-60 -56 -80 -88.5t-20 -73.5q0 -59 43 -97.5t108 -38.5q163 0 168 188zM220 387v92h41v-92h-41z" />
    <glyph glyph-name="Agrave" unicode="&#xc0;" horiz-adv-x="601" 
d="M324 667l265 -667h-44l-84 214h-322l-84 -214h-44l270 667h43zM448 249l-122 309l-16 47q-2 5 -8 23l-25 -67l-125 -312h296zM167 845h50l123 -122h-36z" />
    <glyph glyph-name="Aacute" unicode="&#xc1;" horiz-adv-x="601" 
d="M324 667l265 -667h-44l-84 214h-322l-84 -214h-44l270 667h43zM448 249l-122 309l-16 47q-2 5 -8 23l-25 -67l-125 -312h296zM440 845l-136 -122h-37l123 122h50z" />
    <glyph glyph-name="Acircumflex" unicode="&#xc2;" horiz-adv-x="601" 
d="M324 667l265 -667h-44l-84 214h-322l-84 -214h-44l270 667h43zM448 249l-122 309l-16 47q-2 5 -8 23l-25 -67l-125 -312h296zM445 723h-42l-104 101l-105 -101h-38l123 125h42z" />
    <glyph glyph-name="Atilde" unicode="&#xc3;" horiz-adv-x="601" 
d="M324 667l265 -667h-44l-84 214h-322l-84 -214h-44l270 667h43zM448 249l-122 309l-16 47q-2 5 -8 23l-25 -67l-125 -312h296zM413 825h27q-16 -81 -72 -81q-28 0 -64 22q-46 28 -63 28q-35 0 -47 -51h-27q14 82 76 82q26 0 63 -23q44 -27 62 -27q31 0 45 50z" />
    <glyph glyph-name="Adieresis" unicode="&#xc4;" horiz-adv-x="601" 
d="M324 667l265 -667h-44l-84 214h-322l-84 -214h-44l270 667h43zM448 249l-122 309l-16 47q-2 5 -8 23l-25 -67l-125 -312h296zM417 833v-94h-41v94h41zM224 833v-94h-41v94h41z" />
    <glyph glyph-name="Aring" unicode="&#xc5;" horiz-adv-x="601" 
d="M324 667l265 -667h-44l-84 214h-322l-84 -214h-44l270 667h43zM448 249l-122 309l-16 47q-2 5 -8 23l-25 -67l-125 -312h296zM301 896q39 0 66.5 -27.5t27.5 -67.5q0 -39 -27.5 -66.5t-66.5 -27.5t-67 27.5t-28 66.5q0 40 27.5 67.5t67.5 27.5zM301 870q-28 0 -48.5 -20
t-20.5 -49q0 -28 20.5 -48t48.5 -20t48 20t20 48q0 29 -20 49t-48 20z" />
    <glyph glyph-name="AE" unicode="&#xc6;" horiz-adv-x="854" 
d="M813 667v-35h-354v-267h328v-35h-328v-295h356v-35h-397v238h-245l-124 -238h-46l350 667h460zM418 273v359h-42l-186 -359h228z" />
    <glyph glyph-name="Ccedilla" unicode="&#xc7;" horiz-adv-x="681" 
d="M602 259h41q-9 -118 -88.5 -194.5t-197.5 -78.5l-31 -41q21 4 34 4q31 0 51 -16.5t20 -41.5q0 -33 -27.5 -54t-69.5 -21q-37 0 -86 20l10 22q40 -17 72 -17q28 0 46 13t18 33q0 39 -51 39q-19 0 -44 -10l-15 12l44 58q-127 10 -203.5 104t-76.5 240q0 155 86 253.5
t222 98.5q107 0 181.5 -57.5t94.5 -157.5h-41q-19 82 -83 131t-152 49q-118 0 -192.5 -88.5t-74.5 -228.5q0 -137 74 -224t190 -87q101 0 172 68.5t77 171.5z" />
    <glyph glyph-name="Egrave" unicode="&#xc8;" horiz-adv-x="577" 
d="M533 667v-35h-408v-267h384v-35h-384v-295h413v-35h-454v667h449zM191 845h50l123 -122h-36z" />
    <glyph glyph-name="Eacute" unicode="&#xc9;" horiz-adv-x="577" 
d="M533 667v-35h-408v-267h384v-35h-384v-295h413v-35h-454v667h449zM438 845l-136 -122h-37l123 122h50z" />
    <glyph glyph-name="Ecircumflex" unicode="&#xca;" horiz-adv-x="577" 
d="M533 667v-35h-408v-267h384v-35h-384v-295h413v-35h-454v667h449zM456 723h-42l-104 101l-105 -101h-38l123 125h42z" />
    <glyph glyph-name="Edieresis" unicode="&#xcb;" horiz-adv-x="577" 
d="M533 667v-35h-408v-267h384v-35h-384v-295h413v-35h-454v667h449zM428 833v-94h-41v94h41zM235 833v-94h-41v94h41z" />
    <glyph glyph-name="Igrave" unicode="&#xcc;" horiz-adv-x="208" 
d="M125 667v-667h-41v667h41zM-19 845h50l113 -122h-36z" />
    <glyph glyph-name="Iacute" unicode="&#xcd;" horiz-adv-x="208" 
d="M125 667v-667h-41v667h41zM227 845l-126 -122h-37l113 122h50z" />
    <glyph glyph-name="Icircumflex" unicode="&#xce;" horiz-adv-x="208" 
d="M125 667v-667h-41v667h41zM235 723h-42l-91 101l-91 -101h-38l110 125h41z" />
    <glyph glyph-name="Idieresis" unicode="&#xcf;" horiz-adv-x="208" 
d="M125 667v-667h-41v667h41zM188 833v-94h-41v94h41zM61 833v-94h-41v94h41z" />
    <glyph glyph-name="Eth" unicode="&#xd0;" horiz-adv-x="660" 
d="M84 366v301h226q134 0 208 -69q95 -88 95 -254q0 -177 -93 -269q-76 -75 -210 -75h-226v331h-80v35h80zM125 366h194v-35h-194v-296h172q131 0 195 65q80 81 80 234q0 298 -265 298h-182v-266z" />
    <glyph glyph-name="Ntilde" unicode="&#xd1;" horiz-adv-x="684" 
d="M601 667v-667h-47l-374 528q-1 1 -12 19l-13 19l-33 54q2 -17 2 -40v-10q0 -11 1 -20v-32v-518h-41v667h49l365 -519q17 -24 65 -100q-3 48 -3 128v491h41zM451 825h27q-16 -81 -72 -81q-28 0 -64 22q-46 28 -63 28q-35 0 -47 -51h-27q14 82 76 82q26 0 63 -23
q44 -27 62 -27q31 0 45 50z" />
    <glyph glyph-name="Ograve" unicode="&#xd2;" horiz-adv-x="729" 
d="M364 682q141 0 229.5 -98t88.5 -255q0 -154 -87.5 -249t-229.5 -95q-143 0 -230 95.5t-87 252.5q0 155 87.5 252t228.5 97zM365 647q-121 0 -198.5 -86t-77.5 -220q0 -146 75 -233.5t201 -87.5q123 0 199.5 86t76.5 224q0 140 -77 228.5t-199 88.5zM238 845h50l123 -122
h-36z" />
    <glyph glyph-name="Oacute" unicode="&#xd3;" horiz-adv-x="729" 
d="M364 682q141 0 229.5 -98t88.5 -255q0 -154 -87.5 -249t-229.5 -95q-143 0 -230 95.5t-87 252.5q0 155 87.5 252t228.5 97zM365 647q-121 0 -198.5 -86t-77.5 -220q0 -146 75 -233.5t201 -87.5q123 0 199.5 86t76.5 224q0 140 -77 228.5t-199 88.5zM491 845l-136 -122
h-37l123 122h50z" />
    <glyph glyph-name="Ocircumflex" unicode="&#xd4;" horiz-adv-x="729" 
d="M364 682q141 0 229.5 -98t88.5 -255q0 -154 -87.5 -249t-229.5 -95q-143 0 -230 95.5t-87 252.5q0 155 87.5 252t228.5 97zM365 647q-121 0 -198.5 -86t-77.5 -220q0 -146 75 -233.5t201 -87.5q123 0 199.5 86t76.5 224q0 140 -77 228.5t-199 88.5zM509 723h-42l-104 101
l-105 -101h-38l123 125h42z" />
    <glyph glyph-name="Otilde" unicode="&#xd5;" horiz-adv-x="729" 
d="M364 682q141 0 229.5 -98t88.5 -255q0 -154 -87.5 -249t-229.5 -95q-143 0 -230 95.5t-87 252.5q0 155 87.5 252t228.5 97zM365 647q-121 0 -198.5 -86t-77.5 -220q0 -146 75 -233.5t201 -87.5q123 0 199.5 86t76.5 224q0 140 -77 228.5t-199 88.5zM488 825h27
q-16 -81 -72 -81q-28 0 -64 22q-46 28 -63 28q-35 0 -47 -51h-27q14 82 76 82q26 0 63 -23q44 -27 62 -27q31 0 45 50z" />
    <glyph glyph-name="Odieresis" unicode="&#xd6;" horiz-adv-x="729" 
d="M364 682q141 0 229.5 -98t88.5 -255q0 -154 -87.5 -249t-229.5 -95q-143 0 -230 95.5t-87 252.5q0 155 87.5 252t228.5 97zM365 647q-121 0 -198.5 -86t-77.5 -220q0 -146 75 -233.5t201 -87.5q123 0 199.5 86t76.5 224q0 140 -77 228.5t-199 88.5zM481 833v-94h-41v94
h41zM288 833v-94h-41v94h41z" />
    <glyph glyph-name="Oslash" unicode="&#xd8;" horiz-adv-x="729" 
d="M667 644l-65 -70q44 -60 61.5 -115t17.5 -131q0 -153 -88.5 -248t-231.5 -95q-135 0 -218 88l-70 -76l-20 20l71 77q-76 106 -76 237q0 157 86.5 254t226.5 97q136 0 222 -88l63 69zM152 124l405 442q-77 81 -196 81q-122 0 -197 -87.5t-75 -230.5q0 -128 63 -205z
M576 544l-407 -442q31 -37 83.5 -59.5t107.5 -22.5q126 0 203 85t77 224q0 121 -64 215z" />
    <glyph glyph-name="Ugrave" unicode="&#xd9;" horiz-adv-x="663" 
d="M589 667v-408q0 -274 -256 -274q-164 0 -227 115q-32 58 -32 161v406h41v-408q0 -123 54 -181t167 -58q109 0 160.5 58.5t51.5 181.5v407h41zM212 845h50l123 -122h-36z" />
    <glyph glyph-name="Uacute" unicode="&#xda;" horiz-adv-x="663" 
d="M589 667v-408q0 -274 -256 -274q-164 0 -227 115q-32 58 -32 161v406h41v-408q0 -123 54 -181t167 -58q109 0 160.5 58.5t51.5 181.5v407h41zM465 845l-136 -122h-37l123 122h50z" />
    <glyph glyph-name="Ucircumflex" unicode="&#xdb;" horiz-adv-x="663" 
d="M589 667v-408q0 -274 -256 -274q-164 0 -227 115q-32 58 -32 161v406h41v-408q0 -123 54 -181t167 -58q109 0 160.5 58.5t51.5 181.5v407h41zM476 723h-42l-104 101l-105 -101h-38l123 125h42z" />
    <glyph glyph-name="Udieresis" unicode="&#xdc;" horiz-adv-x="663" 
d="M589 667v-408q0 -274 -256 -274q-164 0 -227 115q-32 58 -32 161v406h41v-408q0 -123 54 -181t167 -58q109 0 160.5 58.5t51.5 181.5v407h41zM448 833v-94h-41v94h41zM255 833v-94h-41v94h41z" />
    <glyph glyph-name="Yacute" unicode="&#xdd;" horiz-adv-x="573" 
d="M578 667l-270 -389v-278h-41v278l-269 389h49l212 -307l30 -47q1 3 12 20q7 10 16 25l214 309h47zM420 845l-137 -122h-36l123 122h50z" />
    <glyph glyph-name="Thorn" unicode="&#xde;" horiz-adv-x="596" 
d="M125 192v-192h-41v667h41v-104h219q97 0 143 -31q75 -51 75 -155q0 -86 -55.5 -135.5t-151.5 -49.5h-230zM125 528v-301h207q81 0 119 22q70 41 70 128q0 84 -60 125q-38 26 -124 26h-212z" />
    <glyph glyph-name="germandbls" unicode="&#xdf;" horiz-adv-x="502" 
d="M219 -2v32q14 -1 32 -1q171 0 171 172q0 82 -48 118.5t-155 36.5v32h14q74 0 114 34t40 97q0 58 -39 94.5t-101 36.5q-131 0 -131 -149v-501h-38v477q0 94 22 131q44 75 149 75q79 0 127.5 -45.5t48.5 -118.5q0 -115 -111 -144q68 -7 107 -54t39 -122q0 -95 -53 -148.5
t-148 -53.5q-22 0 -40 1z" />
    <glyph glyph-name="agrave" unicode="&#xe0;" horiz-adv-x="491" 
d="M475 34v-31q-19 -6 -32 -6q-36 0 -49 17.5t-13 64.5v23q-57 -116 -183 -116q-78 0 -120.5 35t-42.5 99q0 97 94 130q32 11 90 17l61 6l31 2q37 2 52.5 14.5t15.5 49.5q0 121 -139 121q-130 0 -142 -128h-37q5 77 52.5 119t130.5 42q128 0 162 -75q12 -27 12 -96v-241
q0 -27 4 -36q7 -15 29 -15q11 0 24 4zM379 187v85q-21 -22 -108 -31q-103 -11 -142 -28q-57 -25 -57 -88q0 -49 34 -78t92 -29q79 0 130 47.5t51 121.5zM180 687l113 -132h-35l-127 132h49z" />
    <glyph glyph-name="aacute" unicode="&#xe1;" horiz-adv-x="491" 
d="M475 34v-31q-19 -6 -32 -6q-36 0 -49 17.5t-13 64.5v23q-57 -116 -183 -116q-78 0 -120.5 35t-42.5 99q0 97 94 130q32 11 90 17l61 6l31 2q37 2 52.5 14.5t15.5 49.5q0 121 -139 121q-130 0 -142 -128h-37q5 77 52.5 119t130.5 42q128 0 162 -75q12 -27 12 -96v-241
q0 -27 4 -36q7 -15 29 -15q11 0 24 4zM379 187v85q-21 -22 -108 -31q-103 -11 -142 -28q-57 -25 -57 -88q0 -49 34 -78t92 -29q79 0 130 47.5t51 121.5zM364 687l-123 -132h-34l110 132h47z" />
    <glyph glyph-name="acircumflex" unicode="&#xe2;" horiz-adv-x="491" 
d="M475 34v-31q-19 -6 -32 -6q-36 0 -49 17.5t-13 64.5v23q-57 -116 -183 -116q-78 0 -120.5 35t-42.5 99q0 97 94 130q32 11 90 17l61 6l31 2q37 2 52.5 14.5t15.5 49.5q0 121 -139 121q-130 0 -142 -128h-37q5 77 52.5 119t130.5 42q128 0 162 -75q12 -27 12 -96v-241
q0 -27 4 -36q7 -15 29 -15q11 0 24 4zM379 187v85q-21 -22 -108 -31q-103 -11 -142 -28q-57 -25 -57 -88q0 -49 34 -78t92 -29q79 0 130 47.5t51 121.5zM374 555h-40l-90 108l-90 -108h-37l109 132h39z" />
    <glyph glyph-name="atilde" unicode="&#xe3;" horiz-adv-x="491" 
d="M475 34v-31q-19 -6 -32 -6q-36 0 -49 17.5t-13 64.5v23q-57 -116 -183 -116q-78 0 -120.5 35t-42.5 99q0 97 94 130q32 11 90 17l61 6l31 2q37 2 52.5 14.5t15.5 49.5q0 121 -139 121q-130 0 -142 -128h-37q5 77 52.5 119t130.5 42q128 0 162 -75q12 -27 12 -96v-241
q0 -27 4 -36q7 -15 29 -15q11 0 24 4zM379 187v85q-21 -22 -108 -31q-103 -11 -142 -28q-57 -25 -57 -88q0 -49 34 -78t92 -29q79 0 130 47.5t51 121.5zM341 659h27q-4 -36 -21.5 -58.5t-42.5 -22.5q-24 0 -57 22q-42 28 -57 28q-34 0 -40 -51h-27q11 82 68 82q24 0 57 -23
q39 -27 53 -27q32 0 40 50z" />
    <glyph glyph-name="adieresis" unicode="&#xe4;" horiz-adv-x="491" 
d="M475 34v-31q-19 -6 -32 -6q-36 0 -49 17.5t-13 64.5v23q-57 -116 -183 -116q-78 0 -120.5 35t-42.5 99q0 97 94 130q32 11 90 17l61 6l31 2q37 2 52.5 14.5t15.5 49.5q0 121 -139 121q-130 0 -142 -128h-37q5 77 52.5 119t130.5 42q128 0 162 -75q12 -27 12 -96v-241
q0 -27 4 -36q7 -15 29 -15q11 0 24 4zM379 187v85q-21 -22 -108 -31q-103 -11 -142 -28q-57 -25 -57 -88q0 -49 34 -78t92 -29q79 0 130 47.5t51 121.5zM347 668v-96h-39v96h39zM183 668v-96h-39v96h39z" />
    <glyph glyph-name="aring" unicode="&#xe5;" horiz-adv-x="491" 
d="M475 34v-31q-19 -6 -32 -6q-36 0 -49 17.5t-13 64.5v23q-57 -116 -183 -116q-78 0 -120.5 35t-42.5 99q0 97 94 130q32 11 90 17l61 6l31 2q37 2 52.5 14.5t15.5 49.5q0 121 -139 121q-130 0 -142 -128h-37q5 77 52.5 119t130.5 42q128 0 162 -75q12 -27 12 -96v-241
q0 -27 4 -36q7 -15 29 -15q11 0 24 4zM379 187v85q-21 -22 -108 -31q-103 -11 -142 -28q-57 -25 -57 -88q0 -49 34 -78t92 -29q79 0 130 47.5t51 121.5zM247 713q35 0 59.5 -25t24.5 -61q0 -35 -24.5 -60t-59.5 -25q-36 0 -61 25t-25 61q0 35 25 60t61 25zM246 689
q-25 0 -43 -18.5t-18 -44.5q0 -25 18 -42.5t44 -17.5q25 0 43 18t18 43q0 26 -18 44t-44 18z" />
    <glyph glyph-name="ae" unicode="&#xe6;" horiz-adv-x="843" 
d="M761 161h37q-16 -84 -70 -129.5t-137 -45.5q-144 0 -191 143q-20 -63 -78 -103t-129 -40q-73 0 -116.5 38t-43.5 101q0 79 62 115q40 23 132 30q107 8 131 18t24 45q0 67 -33.5 97t-107.5 30q-140 0 -150 -129h-37q14 162 186 162q82 0 121 -28.5t49 -95.5
q48 124 183 124q97 0 154 -64t57 -173v-22h-386q-1 -102 45 -159t130 -57q140 0 168 143zM417 267h349q-1 89 -48 141t-126 52q-161 0 -175 -193zM382 232v40q-15 -14 -33.5 -19.5t-70.5 -9.5q-30 -2 -80 -6q-126 -15 -126 -111q0 -50 34.5 -78.5t93.5 -28.5
q55 0 103.5 31.5t66.5 81.5q12 32 12 100z" />
    <glyph glyph-name="ccedilla" unicode="&#xe7;" horiz-adv-x="501" 
d="M431 169h37q-10 -83 -64 -132t-136 -49h-7l-32 -41q24 4 37 4q31 0 50.5 -16.5t19.5 -41.5q0 -34 -26.5 -54t-71.5 -20q-37 0 -86 18l10 23q40 -17 72 -17q66 0 66 45q0 40 -53 40q-16 0 -45 -10l-14 12l47 58q-91 13 -141.5 79t-50.5 170q0 117 61 187t164 70
q80 0 133 -43.5t63 -117.5h-38q-26 128 -158 128q-86 0 -136.5 -59.5t-50.5 -160.5t49 -161.5t131 -60.5q147 0 170 150z" />
    <glyph glyph-name="egrave" unicode="&#xe8;" horiz-adv-x="510" 
d="M428 164h38q-15 -85 -69 -131.5t-138 -46.5q-97 0 -156.5 68.5t-59.5 181.5t60.5 185t156.5 72q100 0 156 -68.5t55 -190.5h-389q2 -101 49 -158t131 -57q66 0 109 38t57 107zM83 267h349q-4 90 -49.5 141.5t-121.5 51.5q-77 0 -123 -50t-55 -143zM189 687l113 -132h-35
l-127 132h49z" />
    <glyph glyph-name="eacute" unicode="&#xe9;" horiz-adv-x="510" 
d="M428 164h38q-15 -85 -69 -131.5t-138 -46.5q-97 0 -156.5 68.5t-59.5 181.5t60.5 185t156.5 72q100 0 156 -68.5t55 -190.5h-389q2 -101 49 -158t131 -57q66 0 109 38t57 107zM83 267h349q-4 90 -49.5 141.5t-121.5 51.5q-77 0 -123 -50t-55 -143zM373 687l-123 -132h-34
l110 132h47z" />
    <glyph glyph-name="ecircumflex" unicode="&#xea;" horiz-adv-x="510" 
d="M428 164h38q-15 -85 -69 -131.5t-138 -46.5q-97 0 -156.5 68.5t-59.5 181.5t60.5 185t156.5 72q100 0 156 -68.5t55 -190.5h-389q2 -101 49 -158t131 -57q66 0 109 38t57 107zM83 267h349q-4 90 -49.5 141.5t-121.5 51.5q-77 0 -123 -50t-55 -143zM390 555h-40l-90 108
l-90 -108h-37l109 132h39z" />
    <glyph glyph-name="edieresis" unicode="&#xeb;" horiz-adv-x="510" 
d="M428 164h38q-15 -85 -69 -131.5t-138 -46.5q-97 0 -156.5 68.5t-59.5 181.5t60.5 185t156.5 72q100 0 156 -68.5t55 -190.5h-389q2 -101 49 -158t131 -57q66 0 109 38t57 107zM83 267h349q-4 90 -49.5 141.5t-121.5 51.5q-77 0 -123 -50t-55 -143zM363 668v-96h-39v96h39
zM199 668v-96h-39v96h39z" />
    <glyph glyph-name="igrave" unicode="&#xec;" horiz-adv-x="192" 
d="M115 479v-479h-38v479h38zM27 687l103 -132h-35l-117 132h49z" />
    <glyph glyph-name="iacute" unicode="&#xed;" horiz-adv-x="192" 
d="M116 479v-479h-38v479h38zM211 687l-113 -132h-34l100 132h47z" />
    <glyph glyph-name="icircumflex" unicode="&#xee;" horiz-adv-x="192" 
d="M115 479v-479h-38v479h38zM204 555h-40l-70 108l-70 -108h-37l89 132h39z" />
    <glyph glyph-name="idieresis" unicode="&#xef;" horiz-adv-x="192" 
d="M115 479v-479h-38v479h38zM170 668v-96h-39v96h39zM60 668v-96h-39v96h39z" />
    <glyph glyph-name="eth" unicode="&#xf0;" horiz-adv-x="531" 
d="M208 554l81 36l-46 80l28 14l50 -80l90 38l11 -27l-85 -37l83 -132q67 -107 67 -208q0 -118 -59.5 -185t-163.5 -67q-100 0 -160.5 69.5t-60.5 183.5q0 113 61 183.5t159 70.5q44 0 92 -16l-50 87l-84 -36zM266 460q-82 0 -133 -60.5t-51 -156.5q0 -103 49.5 -163.5
t134.5 -60.5q83 0 133 59.5t50 158.5q0 101 -50 162t-133 61z" />
    <glyph glyph-name="ntilde" unicode="&#xf1;" horiz-adv-x="533" 
d="M116 479v-104q49 118 173 118q110 0 153 -81q18 -34 18 -106v-306h-38v297q0 65 -15 96q-32 67 -126 67t-138 -78q-26 -46 -26 -133v-249h-39v479h38zM362 659h27q-4 -36 -21.5 -58.5t-42.5 -22.5q-24 0 -57 22q-42 28 -57 28q-34 0 -40 -51h-27q11 82 68 82q24 0 57 -23
q39 -27 53 -27q32 0 40 50z" />
    <glyph glyph-name="ograve" unicode="&#xf2;" horiz-adv-x="531" 
d="M265 493q101 0 161.5 -69.5t60.5 -186.5q0 -115 -60 -183t-161 -68q-103 0 -163 69t-60 187q0 112 61.5 181.5t160.5 69.5zM265 460q-82 0 -133 -60.5t-51 -156.5q0 -104 50 -164t135 -60q83 0 133 59.5t50 158.5q0 101 -50 162t-134 61zM196 687l113 -132h-35l-127 132
h49z" />
    <glyph glyph-name="oacute" unicode="&#xf3;" horiz-adv-x="531" 
d="M265 493q101 0 161.5 -69.5t60.5 -186.5q0 -115 -60 -183t-161 -68q-103 0 -163 69t-60 187q0 112 61.5 181.5t160.5 69.5zM265 460q-82 0 -133 -60.5t-51 -156.5q0 -104 50 -164t135 -60q83 0 133 59.5t50 158.5q0 101 -50 162t-134 61zM383 687l-123 -132h-34l110 132
h47z" />
    <glyph glyph-name="ocircumflex" unicode="&#xf4;" horiz-adv-x="531" 
d="M265 493q101 0 161.5 -69.5t60.5 -186.5q0 -115 -60 -183t-161 -68q-103 0 -163 69t-60 187q0 112 61.5 181.5t160.5 69.5zM265 460q-82 0 -133 -60.5t-51 -156.5q0 -104 50 -164t135 -60q83 0 133 59.5t50 158.5q0 101 -50 162t-134 61zM393 555h-40l-90 108l-90 -108
h-37l109 132h39z" />
    <glyph glyph-name="otilde" unicode="&#xf5;" horiz-adv-x="531" 
d="M265 493q101 0 161.5 -69.5t60.5 -186.5q0 -115 -60 -183t-161 -68q-103 0 -163 69t-60 187q0 112 61.5 181.5t160.5 69.5zM265 460q-82 0 -133 -60.5t-51 -156.5q0 -104 50 -164t135 -60q83 0 133 59.5t50 158.5q0 101 -50 162t-134 61zM367 659h27q-4 -36 -21.5 -58.5
t-42.5 -22.5q-24 0 -57 22q-42 28 -57 28q-34 0 -40 -51h-27q11 82 68 82q24 0 57 -23q39 -27 53 -27q32 0 40 50z" />
    <glyph glyph-name="odieresis" unicode="&#xf6;" horiz-adv-x="531" 
d="M265 493q101 0 161.5 -69.5t60.5 -186.5q0 -115 -60 -183t-161 -68q-103 0 -163 69t-60 187q0 112 61.5 181.5t160.5 69.5zM265 460q-82 0 -133 -60.5t-51 -156.5q0 -104 50 -164t135 -60q83 0 133 59.5t50 158.5q0 101 -50 162t-134 61zM366 668v-96h-39v96h39zM202 668
v-96h-39v96h39z" />
    <glyph glyph-name="divide" unicode="&#xf7;" horiz-adv-x="549" 
d="M273 120q26 0 44 -18t18 -44q0 -25 -18 -43.5t-44 -18.5q-25 0 -43.5 18.5t-18.5 43.5q0 26 18.5 44t43.5 18zM273 519q26 0 44 -18t18 -44q0 -25 -18 -43.5t-44 -18.5q-25 0 -43.5 18.5t-18.5 43.5q0 26 18.5 44t43.5 18zM10 288h526v-55h-526v55z" />
    <glyph glyph-name="oslash" unicode="&#xf8;" horiz-adv-x="531" 
d="M490 458l-50 -53q47 -66 47 -165q0 -118 -59 -186t-161 -68q-97 0 -161 68l-51 -54l-18 18l55 57q-49 68 -49 165q0 113 61.5 183t160.5 70q95 0 159 -67l49 50zM117 101l283 299q-60 60 -131 60q-86 0 -137 -59.5t-51 -161.5q0 -77 36 -138zM414 379l-282 -299
q41 -61 135 -61q86 0 134 58.5t48 162.5q0 81 -35 139z" />
    <glyph glyph-name="ugrave" unicode="&#xf9;" horiz-adv-x="529" 
d="M452 479v-479h-37v101q-50 -115 -169 -115q-172 0 -172 184v309h38v-286q0 -71 16 -106q32 -69 123 -69q74 0 118.5 54.5t44.5 146.5v260h38zM195 687l113 -132h-35l-127 132h49z" />
    <glyph glyph-name="uacute" unicode="&#xfa;" horiz-adv-x="529" 
d="M452 479v-479h-37v101q-50 -115 -169 -115q-172 0 -172 184v309h38v-286q0 -71 16 -106q32 -69 123 -69q74 0 118.5 54.5t44.5 146.5v260h38zM382 687l-123 -132h-34l110 132h47z" />
    <glyph glyph-name="ucircumflex" unicode="&#xfb;" horiz-adv-x="529" 
d="M452 479v-479h-37v101q-50 -115 -169 -115q-172 0 -172 184v309h38v-286q0 -71 16 -106q32 -69 123 -69q74 0 118.5 54.5t44.5 146.5v260h38zM392 555h-40l-90 108l-90 -108h-37l109 132h39z" />
    <glyph glyph-name="udieresis" unicode="&#xfc;" horiz-adv-x="529" 
d="M452 479v-479h-37v101q-50 -115 -169 -115q-172 0 -172 184v309h38v-286q0 -71 16 -106q32 -69 123 -69q74 0 118.5 54.5t44.5 146.5v260h38zM365 668v-96h-39v96h39zM201 668v-96h-39v96h39z" />
    <glyph glyph-name="thorn" unicode="&#xfe;" horiz-adv-x="550" 
d="M117 667v-301q46 127 180 127q94 0 152.5 -69.5t58.5 -182.5q0 -116 -58 -185.5t-155 -69.5q-139 0 -178 124v-283h-39v840h39zM292 460q-82 0 -129 -59t-47 -163q0 -101 47 -160t129 -59t130 59.5t48 161.5q0 100 -48.5 160t-129.5 60z" />
    <glyph glyph-name="ydieresis" unicode="&#xff;" horiz-adv-x="436" 
d="M432 479l-206 -529q-29 -75 -55.5 -99.5t-76.5 -22.5l-22 1h-14v34q15 -2 31 -2q62 0 87 62q16 39 19 45q16 28 13 36l-203 475h43l158 -376q2 -4 22 -59l22 64l142 371h40zM320 668v-96h-39v96h39zM156 668v-96h-39v96h39z" />
    <glyph glyph-name="Gbreve" unicode="&#x11e;" horiz-adv-x="720" 
d="M653 326v-326h-30l-4 162q-28 -85 -95 -131t-162 -46q-141 0 -227.5 95t-86.5 250q0 156 87.5 254t227.5 98q109 0 185.5 -60.5t93.5 -160.5h-39q-17 83 -83 134.5t-156 51.5q-124 0 -199.5 -87t-75.5 -230q0 -141 75 -225.5t200 -84.5q114 0 183.5 72t69.5 189v10h-246
v35h282zM452 862h28q-19 -110 -122 -110q-49 0 -81 30t-37 80h28q17 -79 93 -79q74 0 91 79z" />
    <glyph glyph-name="gbreve" unicode="&#x11f;" horiz-adv-x="542" 
d="M464 479v-440q0 -116 -50 -169t-159 -53q-179 0 -190 148h38q15 -115 153 -115q89 0 129.5 44.5t40.5 143.5v100q-52 -121 -180 -121q-92 0 -147.5 63t-55.5 169q0 110 57.5 177t152.5 67q130 0 174 -124v110h37zM253 460q-77 0 -124.5 -56t-47.5 -148q0 -95 45.5 -150.5
t122.5 -55.5q80 0 128 55.5t48 148.5q0 94 -46.5 150t-125.5 56zM363 674h28q-19 -110 -122 -110q-49 0 -81 30t-37 80h28q17 -79 93 -79q74 0 91 79z" />
    <glyph glyph-name="Idotaccent" unicode="&#x130;" horiz-adv-x="208" 
d="M125 667v-667h-41v667h41zM126 856v-96h-39v96h39z" />
    <glyph glyph-name="dotlessi" unicode="&#x131;" horiz-adv-x="192" 
d="M116 479v-479h-38v479h38z" />
    <glyph glyph-name="Lslash" unicode="&#x141;" horiz-adv-x="520" 
d="M84 339v328h41v-305l143 108v-40l-143 -108v-287h381v-35h-422v298l-73 -55v40z" />
    <glyph glyph-name="lslash" unicode="&#x142;" horiz-adv-x="192" 
d="M77 380v287h39v-263l66 50v-39l-66 -50v-365h-39v341l-67 -50v39z" />
    <glyph glyph-name="OE" unicode="&#x152;" horiz-adv-x="1034" 
d="M993 667v-35h-396v-267h356v-35h-356v-295h398v-35h-437v67q-82 -82 -202 -82q-135 0 -222 97.5t-87 249.5q0 154 89 252t228 98q114 0 194 -74v59h435zM556 124v424q0 23 -52 59q-58 40 -137 40q-124 0 -201.5 -87.5t-77.5 -227.5q0 -138 75.5 -225t195.5 -87
q97 0 162 56q35 30 35 48z" />
    <glyph glyph-name="oe" unicode="&#x153;" horiz-adv-x="859" 
d="M779 158h37q-43 -172 -207 -172q-142 0 -178 144q-39 -144 -180 -144q-96 0 -152 67.5t-56 183.5q0 118 56.5 187t154.5 69q135 0 178 -142q45 142 184 142q99 0 151.5 -67t52.5 -192h-371v-24q0 -86 46 -138.5t121 -52.5q126 0 163 139zM448 267h334q-4 83 -33 125
q-47 68 -134 68q-158 0 -167 -193zM253 460q-82 0 -127 -59t-45 -165q0 -102 45.5 -159.5t125.5 -57.5q77 0 120 58t43 164q0 104 -42.5 161.5t-119.5 57.5z" />
    <glyph glyph-name="Scedilla" unicode="&#x15e;" horiz-adv-x="588" 
d="M526 477h-40q-13 169 -210 169q-87 0 -137 -37t-50 -101q0 -78 76 -110q31 -13 80 -25q7 -1 46 -10l16 -4l17 -4q113 -27 153 -51q66 -40 66 -131q0 -87 -68 -137q-62 -46 -166 -49l-31 -40q24 4 37 4q31 0 51 -16.5t20 -41.5q0 -34 -27 -54t-72 -20q-37 0 -86 18l10 23
q40 -17 72 -17q66 0 66 45q0 40 -53 40q-16 0 -45 -10l-13 12l45 56q-122 2 -187 60q-67 60 -68 175h39q2 -97 59 -148.5t163 -51.5q101 0 157 39.5t56 112.5q0 75 -68 108q-39 19 -155 45q-126 29 -170 57q-61 39 -61 122q0 82 61.5 129t168.5 47q236 0 248 -204z" />
    <glyph glyph-name="scedilla" unicode="&#x15f;" horiz-adv-x="449" 
d="M396 340h-39q-10 120 -144 120q-64 0 -99 -25t-35 -69q0 -41 28.5 -60t124.5 -41q87 -20 123 -40q56 -32 56 -101q0 -62 -54 -100q-46 -33 -117 -37l-31 -40q24 4 37 4q31 0 51 -16.5t20 -41.5q0 -34 -27 -54t-72 -20q-37 0 -86 18l10 23q40 -17 72 -17q66 0 66 45
q0 40 -53 40q-16 0 -45 -10l-13 12l45 56q-88 1 -138 45q-50 46 -51 130h38q6 -142 158 -142q69 0 110.5 29t41.5 78q0 40 -31 62t-118 42q-99 23 -130 40q-53 29 -53 92q0 62 46.5 96.5t129.5 34.5q169 0 179 -153z" />
    <glyph glyph-name="Scaron" unicode="&#x160;" horiz-adv-x="588" 
d="M526 477h-40q-13 169 -210 169q-87 0 -137 -37t-50 -101q0 -78 76 -110q31 -13 80 -25q7 -1 46 -10l16 -4l17 -4q113 -27 153 -51q66 -40 66 -131q0 -87 -67.5 -137t-185.5 -50q-127 0 -194 60t-68 175h39q2 -97 59 -148.5t163 -51.5q101 0 157 39.5t56 112.5
q0 75 -68 108q-39 19 -155 45q-126 29 -170 57q-61 39 -61 122q0 82 61.5 129t168.5 47q236 0 248 -204zM136 848h42l104 -101l104 101h39l-124 -125h-41z" />
    <glyph glyph-name="scaron" unicode="&#x161;" horiz-adv-x="449" 
d="M396 340h-39q-10 120 -144 120q-64 0 -99 -25t-35 -69q0 -41 28.5 -60t124.5 -41q87 -20 123 -40q56 -32 56 -101q0 -62 -53.5 -100t-139.5 -38q-91 0 -141.5 45.5t-51.5 129.5h38q6 -142 158 -142q69 0 110.5 29t41.5 78q0 40 -31 62t-118 42q-99 23 -130 40
q-53 29 -53 92q0 62 46.5 96.5t129.5 34.5q169 0 179 -153zM86 687h41l89 -108l90 108h37l-109 -132h-39z" />
    <glyph glyph-name="Ydieresis" unicode="&#x178;" horiz-adv-x="573" 
d="M578 667l-270 -389v-278h-41v278l-269 389h49l212 -307l30 -47q1 3 12 20q7 10 16 25l214 309h47zM404 833v-94h-41v94h41zM211 833v-94h-41v94h41z" />
    <glyph glyph-name="Zcaron" unicode="&#x17d;" horiz-adv-x="561" 
d="M528 667v-39l-426 -558l-28 -36l70 1h393v-35h-507v40l429 560q8 10 25 33q-36 -1 -59 -1h-366v35h469zM150 848h42l104 -101l104 101h39l-124 -125h-41z" />
    <glyph glyph-name="zcaron" unicode="&#x17e;" horiz-adv-x="415" 
d="M390 479v-32l-297 -381q-3 -3 -27 -33h339v-33h-382v36l295 377q3 4 27 33h-298v33h343zM92 687h41l89 -108l90 108h37l-109 -132h-39z" />
    <glyph glyph-name="uni018F" unicode="&#x18f;" horiz-adv-x="681" 
d="M25 352h593q-6 126 -77 207q-77 89 -199 89q-121 0 -199 -86q-37 -41 -56 -94h-42q21 67 67 118q88 97 229 97t229 -98q83 -91 89 -233v-22v-13q-4 -145 -88 -236q-87 -95 -229 -95q-143 0 -230 95q-82 91 -87 236v17v18zM67 317q6 -129 74 -209q75 -87 201 -87
q123 0 199 86q73 82 77 210h-551z" />
    <glyph glyph-name="uni018F" unicode="&#x4d8;" horiz-adv-x="681" 
d="M25 352h593q-6 126 -77 207q-77 89 -199 89q-121 0 -199 -86q-37 -41 -56 -94h-42q21 67 67 118q88 97 229 97t229 -98q83 -91 89 -233v-22v-13q-4 -145 -88 -236q-87 -95 -229 -95q-143 0 -230 95q-82 91 -87 236v17v18zM67 317q6 -129 74 -209q75 -87 201 -87
q123 0 199 86q73 82 77 210h-551z" />
    <glyph glyph-name="florin" unicode="&#x192;" 
d="M437 455l-5 -31h-112l-73 -414q-18 -101 -49.5 -142t-91.5 -41q-24 0 -49 5l6 34q25 -4 40 -4q46 0 68 34.5t40 134.5l69 393h-103l6 31h102l19 105q16 91 47.5 126.5t95.5 35.5q19 0 56 -5l-6 -34q-30 6 -49 6q-46 0 -68 -26.5t-35 -98.5l-20 -109h112z" />
    <glyph glyph-name="uni0259" unicode="&#x259;" horiz-adv-x="510" 
d="M91 316h-38q15 85 69 131.5t138 46.5q97 0 156.5 -68.5t59.5 -181.5t-60.5 -185t-156.5 -72q-100 0 -156 68.5t-55 190.5h389q-2 101 -49 158t-131 57q-66 0 -109 -38t-57 -107zM436 213h-349q4 -90 49.5 -141.5t121.5 -51.5q77 0 123 50t55 143z" />
    <glyph glyph-name="uni0259" unicode="&#x4d9;" horiz-adv-x="510" 
d="M91 316h-38q15 85 69 131.5t138 46.5q97 0 156.5 -68.5t59.5 -181.5t-60.5 -185t-156.5 -72q-100 0 -156 68.5t-55 190.5h389q-2 101 -49 158t-131 57q-66 0 -109 -38t-57 -107zM436 213h-349q4 -90 49.5 -141.5t121.5 -51.5q77 0 123 50t55 143z" />
    <glyph glyph-name="circumflex" unicode="&#x2c6;" horiz-adv-x="500" 
d="M378 555h-40l-90 108l-90 -108h-37l109 132h39z" />
    <glyph glyph-name="caron" unicode="&#x2c7;" horiz-adv-x="500" 
d="M121 687h41l89 -108l90 108h37l-109 -132h-39z" />
    <glyph glyph-name="breve" unicode="&#x2d8;" horiz-adv-x="500" 
d="M342 674h28q-19 -110 -122 -110q-49 0 -81 30t-37 80h28q17 -79 93 -79q74 0 91 79z" />
    <glyph glyph-name="dotaccent" unicode="&#x2d9;" horiz-adv-x="500" 
d="M269 668v-96h-39v96h39z" />
    <glyph glyph-name="ring" unicode="&#x2da;" horiz-adv-x="500" 
d="M251 713q35 0 59.5 -25t24.5 -61q0 -35 -24.5 -60t-59.5 -25q-36 0 -61 25t-25 61q0 35 25 60t61 25zM250 689q-25 0 -43 -18.5t-18 -44.5q0 -25 18 -42.5t44 -17.5q25 0 43 18t18 43q0 26 -18 44t-44 18z" />
    <glyph glyph-name="ogonek" unicode="&#x2db;" horiz-adv-x="500" 
d="M288 0h35q-55 -42 -55 -82q0 -25 19 -40.5t51 -15.5q20 0 45 10v-29q-29 -10 -53 -10q-43 0 -69 21.5t-26 56.5q0 46 53 89z" />
    <glyph glyph-name="tilde" unicode="&#x2dc;" horiz-adv-x="500" 
d="M346 659h27q-4 -36 -21.5 -58.5t-42.5 -22.5q-24 0 -57 22q-42 28 -57 28q-34 0 -40 -51h-27q11 82 68 82q24 0 57 -23q39 -27 53 -27q32 0 40 50z" />
    <glyph glyph-name="hungarumlaut" unicode="&#x2dd;" horiz-adv-x="500" 
d="M404 687l-90 -132h-29l77 132h42zM291 687l-90 -132h-29l77 132h42z" />
    <glyph glyph-name="Omega" unicode="&#x3a9;" horiz-adv-x="768" 
d="M326 0h-292v153h24q10 -63 69 -63h146l-3 38q-97 34 -149.5 100.5t-52.5 153.5q0 124 94 214t223 90t223 -90t94 -214q0 -87 -52.5 -153.5t-149.5 -100.5l-3 -38h146q59 0 69 63h24v-153h-292l18 155q58 33 93 94.5t35 132.5q0 109 -59.5 184.5t-145.5 75.5t-145.5 -75.5
t-59.5 -184.5q0 -71 35 -132.5t93 -94.5z" />
    <glyph glyph-name="Omega" unicode="&#x2126;" horiz-adv-x="768" 
d="M326 0h-292v153h24q10 -63 69 -63h146l-3 38q-97 34 -149.5 100.5t-52.5 153.5q0 124 94 214t223 90t223 -90t94 -214q0 -87 -52.5 -153.5t-149.5 -100.5l-3 -38h146q59 0 69 63h24v-153h-292l18 155q58 33 93 94.5t35 132.5q0 109 -59.5 184.5t-145.5 75.5t-145.5 -75.5
t-59.5 -184.5q0 -71 35 -132.5t93 -94.5z" />
    <glyph glyph-name="pi" unicode="&#x3c0;" horiz-adv-x="549" 
d="M30 348h-20q22 79 61 117q23 23 46 30q18 5 56 5h350v-89h-126q-12 -93 -12 -221q0 -105 64 -105q49 0 57 73h24q-4 -66 -23 -101q-38 -70 -96 -70q-47 0 -73 48t-26 136q0 102 21 240h-109l-13 -129q-1 -14 -8 -79q-7 -58 -18 -133q-20 -83 -74 -83q-23 0 -38.5 16
t-15.5 40q0 28 40 65q47 44 51 81l26 222h-46q-36 0 -54 -12t-44 -51z" />
    <glyph glyph-name="endash" unicode="&#x2013;" 
d="M490 264v-34h-420v34h420z" />
    <glyph glyph-name="emdash" unicode="&#x2014;" horiz-adv-x="640" 
d="M640 272v-34h-640v34h640z" />
    <glyph glyph-name="quoteleft" unicode="&#x2018;" horiz-adv-x="200" 
d="M77 462v79q0 59 13.5 89t47.5 47v-32q-32 -20 -32 -88h18v-95h-47z" />
    <glyph glyph-name="quoteright" unicode="&#x2019;" horiz-adv-x="200" 
d="M124 667v-79q0 -59 -13.5 -89t-47.5 -47v32q32 20 32 88h-18v95h47z" />
    <glyph glyph-name="quotesinglbase" unicode="&#x201a;" horiz-adv-x="200" 
d="M124 95v-79q0 -59 -13.5 -89t-47.5 -47v32q32 20 32 88h-18v95h47z" />
    <glyph glyph-name="quotedblleft" unicode="&#x201c;" horiz-adv-x="316" 
d="M193 462v79q0 59 13.5 89t47.5 47v-32q-32 -20 -32 -88h18v-95h-47zM77 462v79q0 59 13.5 89t47.5 47v-32q-32 -20 -32 -88h18v-95h-47z" />
    <glyph glyph-name="quotedblright" unicode="&#x201d;" horiz-adv-x="316" 
d="M124 667v-79q0 -59 -13.5 -89t-47.5 -47v32q32 20 32 88h-18v95h47zM240 667v-79q0 -59 -13.5 -89t-47.5 -47v32q32 20 32 88h-18v95h47z" />
    <glyph glyph-name="quotedblbase" unicode="&#x201e;" horiz-adv-x="316" 
d="M124 95v-79q0 -59 -13.5 -89t-47.5 -47v32q32 20 32 88h-18v95h47zM240 95v-79q0 -59 -13.5 -89t-47.5 -47v32q32 20 32 88h-18v95h47z" />
    <glyph glyph-name="dagger" unicode="&#x2020;" 
d="M490 449v-33h-192v-589h-37v589h-192v33h192v218h37v-218h192z" />
    <glyph glyph-name="daggerdbl" unicode="&#x2021;" 
d="M490 471v-33h-191v-382h191v-33h-191v-196h-37v196h-192v33h192v382h-192v33h192v196h37v-196h191z" />
    <glyph glyph-name="bullet" unicode="&#x2022;" horiz-adv-x="667" 
d="M336 477q56 0 96.5 -40.5t40.5 -97.5q0 -58 -40.5 -98.5t-96.5 -40.5q-58 0 -99 40.5t-41 98.5q0 57 41 97.5t99 40.5z" />
    <glyph glyph-name="ellipsis" unicode="&#x2026;" horiz-adv-x="600" 
d="M124 95v-95h-47v95h47zM324 95v-95h-47v95h47zM524 95v-95h-47v95h47z" />
    <glyph glyph-name="perthousand" unicode="&#x2030;" horiz-adv-x="1048" 
d="M522 306q67 0 104 -41.5t37 -115.5t-37.5 -116t-104.5 -42q-141 0 -141 160q0 72 38 113.5t104 41.5zM523 278q-109 0 -109 -133q0 -127 107 -127q52 0 80.5 34.5t28.5 97.5q0 60 -28.5 94t-78.5 34zM863 307q67 0 104 -41.5t37 -117.5q0 -72 -38 -114.5t-103 -42.5
q-68 0 -105.5 41t-37.5 117q0 74 38 116t105 42zM862 279q-51 0 -80 -34.5t-29 -95.5q0 -62 28.5 -96.5t80.5 -34.5q50 0 78.5 34.5t28.5 95.5q0 131 -107 131zM186 662q66 0 103 -42t37 -118q0 -72 -39 -114.5t-105 -42.5q-65 0 -102 42t-37 118q0 73 38 115t105 42z
M186 634q-52 0 -81 -35t-29 -98q0 -60 28 -93.5t78 -33.5q52 0 81 34t29 95q0 62 -28 96.5t-78 34.5zM576 665l-416 -688h-33l416 688h33z" />
    <glyph glyph-name="trademark" unicode="&#x2122;" horiz-adv-x="802" 
d="M316 667v-27h-138v-353h-31v353h-137v27h306zM732 667v-380h-31v283q0 25 1 47q-3 -8 -8 -20l-138 -310h-28l-138 306q-2 6 -9 23v-16q0 -8 1 -18v-12v-283h-31v380h39l137 -303q0 -1 6 -16l9 -22l15 37l136 304h39z" />
    <glyph glyph-name="partialdiff" unicode="&#x2202;" horiz-adv-x="494" 
d="M107 674l-41 51q75 28 129 28q115 0 191 -100t76 -251q0 -91 -24 -183t-61 -142q-64 -87 -163 -87q-80 0 -134 56.5t-54 141.5q0 88 58.5 156t134.5 68q40 0 72 -14t81 -52q7 58 7 105q0 122 -42.5 188.5t-119.5 66.5q-46 0 -110 -32zM366 312q-55 55 -105 55
q-61 0 -104.5 -61.5t-43.5 -146.5q0 -138 90 -138q68 0 112 86q21 42 34 105q19 95 17 100z" />
    <glyph glyph-name="Delta" unicode="&#x2206;" horiz-adv-x="612" 
d="M6 0l321 688l281 -688h-602zM77 51h402l-189 458z" />
    <glyph glyph-name="product" unicode="&#x220f;" horiz-adv-x="823" 
d="M25 -124v26h3q52 0 74 31q14 20 14 85v591q0 65 -14 85q-22 31 -74 31h-3v26h778v-26h-3q-52 0 -74 -31q-14 -20 -14 -85v-591q0 -65 14 -85q22 -31 74 -31h3v-26h-290v26h3q52 0 74 31q14 20 14 85v576q0 79 -18 96q-15 14 -59 17q-13 1 -48 1h-67q-116 0 -139 -4
q-36 -6 -45 -42q-4 -15 -4 -68v-576q0 -65 14 -85q22 -31 74 -31h3v-26h-290z" />
    <glyph glyph-name="summation" unicode="&#x2211;" horiz-adv-x="713" 
d="M176 711l188 -370l-201 -352h328q87 0 120.5 18.5t57.5 79.5h26l-54 -210h-627l242 408l-233 467h599l10 -165h-26q-13 76 -44.5 100t-117.5 24h-268z" />
    <glyph glyph-name="minus" unicode="&#x2212;" 
d="M54 337h452v-32h-452v32z" />
    <glyph glyph-name="radical" unicode="&#x221a;" horiz-adv-x="549" 
d="M363 -35l-242 496l-95 -47l-16 35l146 71l195 -394l127 787l37 -5z" />
    <glyph glyph-name="infinity" unicode="&#x221e;" horiz-adv-x="713" 
d="M357 303q84 111 189 111q62 0 102.5 -41t40.5 -105q0 -69 -38.5 -111t-102.5 -42q-98 0 -191 112l-30 -35q-69 -77 -158 -77q-65 0 -104.5 41t-39.5 108q0 65 41 107.5t104 42.5q98 0 187 -111zM391 264q54 -57 86 -77t73 -20q40 0 64.5 27t24.5 72q0 42 -26.5 69
t-68.5 27q-49 0 -103 -43q-23 -19 -44 -47q-3 -5 -6 -8zM324 266q-88 96 -156 96q-43 0 -68 -26.5t-25 -71.5q0 -43 24.5 -70t63.5 -27q65 0 134 68q12 12 22 24q3 4 5 7z" />
    <glyph glyph-name="integral" unicode="&#x222b;" horiz-adv-x="274" 
d="M180 576v-344q0 -172 -25 -261q-22 -78 -92 -78q-61 0 -61 44q0 33 36 33q17 0 28.5 -20t22.5 -20q31 0 31 60q0 19 -3 73q-4 72 -4 169v345q0 172 25 261q22 78 92 78q61 0 61 -46q0 -31 -36 -31q-19 0 -40 33q-3 6 -13 6q-29 0 -29 -65q0 -20 3 -67q4 -63 4 -170z" />
    <glyph glyph-name="approxequal" unicode="&#x2248;" horiz-adv-x="549" 
d="M489 251l38 -34q-46 -85 -141 -85q-34 0 -66 10l-16 5q-8 3 -81 25q-41 12 -63 12q-34 0 -58 -18q-13 -9 -45 -45l-43 34q59 84 146 84q35 0 125 -28q77 -24 101 -24q28 0 49 13t54 51zM489 408l38 -33q-45 -86 -141 -86q-33 0 -66 10q-16 6 -97 30q-41 12 -63 12
q-34 0 -58 -18q-13 -9 -45 -45l-43 34q59 84 146 84q35 0 125 -28q77 -24 101 -24q28 0 48.5 13t54.5 51z" />
    <glyph glyph-name="notequal" unicode="&#x2260;" horiz-adv-x="549" 
d="M187 141h-172v55h199l70 139h-269v55h297l80 159l47 -24l-68 -135h169v-55h-197l-70 -139h267v-55h-295l-84 -166l-46 24z" />
    <glyph glyph-name="lessequal" unicode="&#x2264;" horiz-adv-x="549" 
d="M526 55v-55h-497v55h497zM526 639v-62l-418 -199l418 -199v-62l-497 233v55z" />
    <glyph glyph-name="greaterequal" unicode="&#x2265;" horiz-adv-x="549" 
d="M526 55v-55h-497v55h497zM29 639l497 -234v-55l-497 -233v62l418 199l-418 199v62z" />
    <glyph glyph-name="lozenge" unicode="&#x25ca;" horiz-adv-x="494" 
d="M209 0l-191 377l196 363h63l189 -366l-197 -374h-60zM240 58l162 316l-157 309l-164 -306z" />
    <glyph glyph-name="apple" unicode="&#xf000;" horiz-adv-x="790" 
d="M570 698v-11q0 -65 -55 -115t-126 -49q2 73 50 119.5t131 55.5zM714 461q-81 -62 -81 -141q0 -107 100 -150q-44 -92 -97 -144.5t-101 -52.5q-27 0 -65 17q-27 12 -66 12q-29 0 -56 -12q-38 -17 -67 -17q-77 0 -151 112t-74 227q0 91 60.5 156t146.5 65q35 0 90 -20
q33 -12 51 -12q15 0 41 10q58 22 92 22q112 0 177 -72z" />
  </font>
</defs>
</svg>
